<?xml version="1.0" encoding="UTF-8"?>
<!DOCTYPE svg PUBLIC "-//W3C//DTD SVG 1.1//EN" "http://www.w3.org/Graphics/SVG/1.1/DTD/svg11.dtd">
<!-- Creator: CorelDRAW X7 -->
<svg xmlns="http://www.w3.org/2000/svg" xml:space="preserve" width="104.065mm" height="104.223mm" version="1.1" style="shape-rendering:geometricPrecision; text-rendering:geometricPrecision; image-rendering:optimizeQuality; fill-rule:evenodd; clip-rule:evenodd"
viewBox="0 0 8566 8579"
 xmlns:xlink="http://www.w3.org/1999/xlink">
 <defs>
  <style type="text/css">
   <![CDATA[
    .fil0 {fill:#1F5CA9}
   ]]>
  </style>
 </defs>
 <g id="Capa_x0020_1">
  <metadata id="CorelCorpID_0Corel-Layer"/>
  <path class="fil0" d="M3855 27c144,-11 288,-28 432,-27 429,12 859,70 1269,200 726,225 1388,649 1897,1212 387,424 686,926 874,1467 356,1009 314,2153 -120,3132 -427,985 -1242,1795 -2229,2218 -727,315 -1541,420 -2324,305 -673,-98 -1321,-361 -1873,-757 -579,-415 -1052,-976 -1362,-1617 -238,-487 -378,-1021 -419,-1562 12,-211 5,-422 4,-633 56,-782 337,-1546 797,-2180 476,-661 1144,-1182 1902,-1480 369,-146 758,-240 1152,-278zm-18 115c-966,98 -1891,552 -2563,1253 -576,595 -969,1365 -1109,2182 -125,721 -58,1474 196,2160 266,723 738,1368 1345,1842 554,435 1220,727 1917,835 922,149 1893,-24 2705,-485 655,-370 1207,-919 1579,-1572 479,-832 650,-1832 485,-2777 -107,-630 -364,-1234 -742,-1749 -424,-580 -998,-1048 -1653,-1343 -672,-306 -1426,-423 -2160,-346zm46 183c29,1 59,1 88,2 0,93 0,186 0,279 118,0 237,0 355,0 0,-94 0,-187 1,-281 30,1 60,1 90,2 1,227 0,454 0,682 -30,0 -60,0 -91,0 0,-107 0,-215 0,-323 -118,1 -237,0 -355,2 0,107 0,214 0,321 -30,0 -60,0 -90,0 1,-228 -4,-456 2,-684zm791 22c164,24 326,52 489,76 -3,20 -9,60 -13,80 -133,-20 -266,-43 -400,-62 -9,69 -20,137 -31,206 124,18 247,40 371,57 -3,27 -6,54 -9,81 -125,-19 -250,-40 -375,-60 -11,76 -26,152 -34,228 136,28 274,45 412,67 -3,20 -8,60 -11,80 -168,-25 -336,-53 -504,-79 33,-225 72,-449 105,-674zm-1735 198c28,-8 56,-16 84,-22 66,189 118,383 179,573 107,-33 214,-65 321,-98 8,25 16,51 24,77 -136,42 -272,82 -408,125 -67,-218 -133,-437 -200,-655zm2613 61c17,-18 32,-39 54,-51 28,8 56,18 82,31 18,246 21,492 32,738 -32,-13 -65,-25 -97,-38 0,-73 -2,-145 -3,-218 -89,-35 -180,-67 -270,-99 -46,57 -94,113 -141,170 -25,-16 -68,-15 -81,-43 140,-165 285,-325 424,-490zm-151 302c72,27 145,53 217,79 -1,-114 -2,-228 -1,-342 -68,91 -142,177 -216,263zm-2986 -108c27,-16 56,-29 84,-44 187,160 380,312 565,473 -30,16 -61,31 -92,46 -54,-48 -110,-96 -165,-144 -84,44 -167,89 -252,132 10,74 20,147 30,220 -28,15 -55,30 -82,44 -33,-242 -65,-484 -88,-727zm75 50c26,111 38,225 53,337 68,-36 137,-71 204,-108 -86,-76 -171,-153 -257,-229zm3622 -78c26,15 52,29 79,44 -98,176 -196,351 -292,528 99,53 196,107 294,162 -13,24 -27,47 -40,70 -124,-69 -248,-138 -372,-207 110,-199 221,-398 331,-597zm-4149 317c23,-18 45,-35 68,-53 140,180 275,365 413,546 -25,19 -50,37 -75,56 -201,-71 -403,-142 -605,-211 103,144 213,284 318,426 -22,18 -45,36 -68,53 -137,-182 -275,-364 -411,-546 24,-18 49,-37 74,-55 201,69 402,142 604,209 -102,-144 -213,-283 -318,-425zm4556 3c17,-21 34,-41 51,-62 140,113 281,226 420,340 -16,21 -31,42 -47,63 -61,-46 -120,-93 -179,-142 -126,156 -253,312 -379,468 -22,-19 -45,-37 -67,-56 121,-159 250,-312 376,-468 -58,-48 -116,-96 -175,-143zm-2907 272c593,-135 1226,-86 1790,142 604,243 1124,689 1457,1248 294,489 441,1064 422,1634 -17,565 -199,1125 -518,1592 -354,521 -875,929 -1469,1137 -13,-35 -25,-70 -37,-105 456,-165 871,-444 1191,-810 397,-449 648,-1024 707,-1621 62,-601 -71,-1221 -378,-1743 -316,-542 -812,-977 -1392,-1216 -496,-207 -1050,-269 -1580,-181 -616,100 -1195,408 -1623,862 -403,423 -674,971 -761,1549 -86,557 -5,1138 233,1650 285,624 803,1140 1430,1421 -16,35 -31,69 -46,104 -557,-251 -1033,-678 -1343,-1204 -321,-538 -466,-1178 -408,-1801 55,-647 331,-1271 769,-1749 409,-453 961,-776 1556,-909zm3020 605c172,-150 344,-299 516,-449 18,22 38,44 56,67 -65,67 -140,123 -208,186 76,90 155,178 231,268 72,-61 143,-123 214,-185 19,24 38,47 57,71 -172,148 -343,296 -513,446 -20,-22 -41,-44 -62,-65 80,-73 162,-143 244,-213 -76,-90 -155,-179 -233,-269 -81,71 -162,141 -243,211 -20,-23 -40,-45 -59,-68zm-5295 -296c192,-69 404,76 465,258 65,192 -100,411 -299,415 -165,1 -313,-121 -370,-271 -58,-161 49,-345 204,-402zm22 80c-126,40 -201,202 -131,320 59,96 157,184 275,188 124,3 236,-112 229,-236 -4,-93 -69,-170 -141,-222 -65,-48 -152,-79 -232,-50zm-539 584c15,-26 31,-52 46,-77 197,112 394,226 591,340 -15,26 -29,52 -43,78 -199,-111 -395,-229 -594,-341zm-119 187c25,8 51,17 77,25 -28,71 -54,143 -81,214 188,69 372,145 560,213 -9,29 -19,57 -29,86 -188,-71 -376,-145 -564,-216 -27,70 -53,140 -80,210 -25,-9 -50,-18 -76,-28 63,-168 130,-335 193,-504zm6904 153c30,-59 65,-130 138,-143 111,-20 212,96 190,204 -10,64 -69,114 -133,115 -57,2 -105,-32 -153,-57 -29,58 -59,117 -87,176 33,-3 67,-7 101,-10 5,29 11,58 17,87 -54,6 -108,9 -163,9 -17,45 -33,90 -46,136 -28,-7 -57,-14 -85,-20 12,-46 26,-91 42,-135 -76,-30 -147,-85 -173,-165 -43,-104 17,-240 128,-267 82,-23 160,24 224,70zm72 56c43,23 95,57 145,27 73,-31 34,-157 -43,-146 -60,8 -77,75 -102,119zm-349 131c24,54 83,78 133,102 41,-75 78,-151 114,-227 -34,-18 -67,-39 -105,-48 -92,-27 -183,88 -142,173zm-5150 318c138,-30 291,-16 409,65 126,82 197,228 211,375 17,163 -17,343 -134,466 -186,194 -537,192 -715,-12 -140,-158 -158,-391 -99,-587 48,-149 175,-272 328,-307zm39 114c-105,28 -200,106 -229,214 -53,182 -46,418 120,541 127,92 320,84 435,-25 70,-65 106,-160 115,-254 14,-129 -5,-271 -90,-374 -83,-100 -227,-135 -351,-102zm766 -112c45,0 91,0 136,0 0,141 1,282 0,423 178,0 357,0 536,0 0,-141 -1,-283 0,-424 46,1 91,2 136,2 0,343 0,686 0,1029 -46,0 -91,0 -137,0 1,-161 1,-323 0,-484 -178,0 -357,0 -535,0 1,161 0,323 0,484 -45,0 -91,0 -136,0 0,-343 -1,-687 0,-1030zm1070 125c57,-93 170,-132 274,-139 131,-12 280,16 367,122 45,50 59,118 69,183 -43,3 -86,6 -129,9 -15,-77 -56,-159 -139,-181 -101,-24 -226,-30 -310,42 -62,53 -56,165 20,202 135,62 289,70 425,132 71,34 134,95 153,174 31,116 -22,245 -123,310 -129,84 -297,82 -441,43 -139,-37 -254,-175 -242,-321 40,-7 81,-9 122,-12 15,58 27,125 79,163 89,71 211,85 320,63 63,-13 129,-49 152,-114 28,-67 -8,-149 -75,-178 -150,-68 -327,-68 -465,-164 -108,-70 -126,-231 -57,-334zm1206 -124c50,-1 100,-1 150,0 138,344 281,686 420,1029 -52,0 -104,0 -156,0 -39,-104 -80,-207 -119,-311 -144,-1 -287,0 -430,-1 -39,103 -77,207 -113,312 -49,0 -97,0 -146,0 131,-343 265,-685 394,-1029zm-97 606c117,0 233,0 349,0 -62,-164 -125,-328 -178,-495 -42,170 -110,331 -171,495zm876 -551c130,-89 306,-90 451,-39 115,40 186,155 194,274 -43,3 -87,6 -130,9 -13,-78 -56,-158 -138,-181 -97,-23 -214,-28 -299,33 -71,48 -72,171 8,211 158,76 352,67 495,176 102,80 120,236 53,343 -63,108 -192,160 -312,165 -129,5 -272,-16 -368,-110 -65,-61 -95,-150 -102,-237 43,-4 86,-8 129,-12 15,67 35,142 99,179 116,72 276,80 393,9 87,-53 93,-196 -1,-245 -156,-80 -349,-72 -492,-181 -127,-96 -107,-307 20,-394zm-5589 102c231,-39 464,-75 696,-114 -8,33 -15,67 -23,100 -73,11 -147,20 -220,32 -21,93 -43,186 -64,278 62,40 123,80 185,120 -7,31 -15,62 -22,93 -202,-136 -404,-273 -606,-408 14,-35 1,-100 54,-101zm30 71c103,53 196,121 294,182 17,-74 34,-149 51,-224 -115,16 -230,30 -345,42zm7423 156c49,-88 181,-102 253,-34 83,79 104,210 74,317 -20,72 -85,117 -153,136 -6,-27 -12,-54 -17,-81 53,-25 106,-67 104,-132 -2,-63 -10,-142 -67,-182 -38,-28 -104,-17 -121,30 -41,114 -9,245 -71,352 -51,87 -179,105 -256,44 -98,-72 -122,-208 -106,-322 15,-95 94,-164 184,-186 7,27 13,54 20,81 -150,43 -162,254 -62,352 45,46 135,26 153,-37 34,-110 10,-233 65,-338zm-7571 355c48,-158 302,-159 363,-11 39,104 18,217 20,325 93,1 185,3 278,4 0,29 0,58 0,87 -228,4 -456,-7 -684,-8 6,-132 -7,-267 23,-397zm71 50c-14,85 -10,172 -12,258 81,1 163,3 244,3 0,-87 11,-175 -8,-261 -24,-104 -200,-103 -224,0zm7184 163c219,83 437,167 655,251 51,11 20,73 28,109 -229,91 -456,187 -684,278 0,-33 0,-67 3,-100 66,-34 137,-54 205,-82 -1,-96 0,-192 -1,-287 -69,-24 -138,-49 -206,-74 0,-32 0,-63 0,-95zm280 197c0,77 0,154 0,231 107,-42 215,-80 323,-118 -110,-32 -216,-73 -323,-113zm-5529 60c83,0 166,0 249,1 -1,369 -1,737 -1,1105 -102,0 -204,1 -307,-1 2,-240 1,-481 1,-722 -96,71 -203,124 -317,157 -1,-83 -2,-166 2,-250 156,-44 302,-139 373,-290zm4053 1c82,-1 165,-1 248,-1 0,369 -1,737 0,1106 -101,1 -203,0 -305,0 0,-241 0,-482 -1,-723 -94,73 -204,121 -316,158 -1,-83 -1,-167 0,-250 156,-45 303,-140 374,-290zm-3366 110c87,-89 219,-115 340,-110 114,3 241,23 326,108 77,74 100,200 49,296 -23,48 -67,81 -108,114 59,39 121,84 147,153 65,147 -8,339 -154,405 -118,51 -250,53 -376,42 -109,-8 -224,-53 -284,-150 -62,-102 -71,-243 -5,-345 32,-48 83,-77 133,-103 -39,-27 -80,-53 -106,-93 -63,-97 -48,-238 38,-317zm274 86c-98,42 -85,216 26,231 80,28 171,-45 153,-130 0,-89 -105,-137 -179,-101zm17 421c-133,44 -134,263 -3,312 95,41 190,-56 186,-150 10,-95 -84,-196 -183,-162zm885 -592c154,-40 340,-42 467,67 114,99 134,258 145,399 6,166 -1,345 -92,489 -91,132 -269,151 -416,140 -130,-5 -256,-81 -311,-201 -69,-151 -71,-322 -60,-485 11,-104 28,-214 95,-298 44,-54 105,-93 172,-111zm129 182c-62,23 -82,94 -90,153 -16,114 -15,229 -6,343 8,68 17,145 72,193 54,43 140,15 169,-46 40,-81 37,-175 40,-263 -1,-102 3,-209 -34,-305 -20,-62 -91,-97 -151,-75zm921 -192c145,-27 316,-25 432,78 116,104 135,271 145,417 3,159 -6,331 -93,469 -99,143 -294,156 -451,137 -144,-14 -265,-125 -303,-263 -53,-187 -50,-388 -7,-577 30,-133 143,-239 277,-261zm79 198c-51,27 -67,89 -76,142 -17,121 -16,245 -5,367 8,63 20,135 74,175 55,42 140,12 167,-49 41,-87 36,-187 39,-281 -3,-100 2,-205 -41,-298 -25,-59 -101,-86 -158,-56zm-5016 -23c141,-17 281,-41 422,-57 78,-7 169,-5 226,56 78,81 92,208 69,314 -20,91 -111,138 -196,154 -148,28 -299,43 -448,66 -4,-30 -8,-60 -12,-89 132,-19 264,-37 396,-56 56,-12 120,-19 158,-67 50,-66 34,-161 -2,-230 -33,-60 -110,-64 -171,-59 -145,15 -288,41 -433,58 -3,-30 -6,-60 -9,-90zm7217 352c6,-30 11,-60 17,-89 223,46 445,96 668,140 -29,151 -64,300 -93,451 -27,-5 -54,-9 -81,-14 25,-121 52,-243 77,-364 -69,-14 -138,-29 -206,-44 -23,101 -42,204 -66,305 -26,9 -54,-5 -80,-4 21,-106 45,-212 66,-318 -100,-22 -201,-42 -302,-63zm-6646 257c65,4 133,9 189,47 153,101 189,359 37,478 -98,81 -229,130 -356,110 -172,-25 -288,-219 -246,-383 17,-63 63,-112 111,-152 17,25 33,51 49,76 -31,34 -73,65 -84,113 -25,112 53,244 172,258 107,11 216,-27 301,-92 106,-80 87,-262 -22,-331 -44,-26 -96,-27 -146,-31 -2,-31 -3,-62 -5,-93zm6319 688c72,-153 130,-314 211,-462 209,87 413,183 620,273 -66,151 -135,300 -200,451 -25,-11 -50,-21 -75,-31 55,-123 109,-246 165,-369 -64,-28 -127,-58 -191,-85 -52,114 -103,228 -153,342 -25,-9 -49,-19 -74,-28 48,-117 102,-231 154,-347 -69,-30 -136,-64 -207,-90l-10 8c-59,121 -111,246 -165,369 -26,-10 -51,-21 -75,-31zm-6067 12c85,-21 181,-27 256,27 86,61 147,164 147,271 -1,94 -60,175 -126,236 -79,71 -184,122 -292,113 -155,-11 -285,-158 -285,-312 -1,-64 33,-120 68,-171 22,21 44,42 66,62 -24,45 -60,92 -50,147 15,96 96,187 198,189 91,1 175,-45 241,-103 47,-43 91,-97 95,-162 3,-90 -50,-187 -139,-215 -51,-17 -104,-3 -154,7 -8,-30 -16,-60 -25,-89zm4195 150c67,-41 129,-94 202,-123 29,26 51,60 74,91 -164,122 -312,264 -450,415 -398,433 -750,909 -1030,1427 -34,61 -53,135 -117,173 -108,72 -216,144 -314,228 -59,-185 -137,-364 -220,-540 -74,-153 -168,-319 -340,-376 98,-89 200,-193 338,-209 64,-10 120,32 159,78 101,118 162,264 223,406 308,-508 712,-956 1166,-1340 95,-86 204,-156 309,-230zm1652 161c15,-26 31,-52 47,-78 168,110 331,227 501,334 46,-60 85,-125 130,-186 19,17 41,32 60,50 -95,151 -200,295 -297,445 -24,-14 -47,-28 -70,-42 42,-63 84,-125 127,-188 -166,-113 -331,-225 -498,-335zm-5380 299c195,-74 418,99 420,301 2,189 -167,352 -350,374 -189,18 -367,-165 -345,-354 18,-149 137,-272 275,-321zm41 81c-100,36 -184,117 -222,216 -44,125 50,268 176,290 109,23 206,-51 275,-126 64,-69 89,-178 43,-263 -46,-98 -168,-155 -272,-117zm4949 75c22,-21 43,-41 65,-62 56,54 113,107 170,161 19,17 39,38 66,40 147,25 294,46 441,72 -26,26 -51,53 -75,79 -126,-20 -251,-43 -375,-69 36,122 64,246 95,370 -24,25 -49,51 -73,77 -36,-155 -62,-313 -105,-466 -65,-72 -142,-132 -209,-202z"/>
 </g>
</svg>
