<?xml version="1.0" encoding="UTF-8"?>
<!DOCTYPE svg PUBLIC "-//W3C//DTD SVG 1.1//EN" "http://www.w3.org/Graphics/SVG/1.1/DTD/svg11.dtd">
<!-- Creator: CorelDRAW X7 -->
<svg xmlns="http://www.w3.org/2000/svg" xml:space="preserve" width="42.6353mm" height="6.0686mm" version="1.1" style="shape-rendering:geometricPrecision; text-rendering:geometricPrecision; image-rendering:optimizeQuality; fill-rule:evenodd; clip-rule:evenodd"
viewBox="0 0 421 60"
 xmlns:xlink="http://www.w3.org/1999/xlink">
 <defs>
  <style type="text/css">
   <![CDATA[
    .fil0 {fill:white}
   ]]>
  </style>
 </defs>
 <g id="Capa_x0020_1">
  <metadata id="CorelCorpID_0Corel-Layer"/>
  <path class="fil0" d="M343 30c0,-8 -3,-14 -8,-20 -18,4 -32,21 -32,40 0,3 0,6 1,8 3,1 6,1 9,1 16,0 30,-13 30,-29zm-11 -23c-1,-1 -2,-1 -3,-2 0,0 0,0 0,0 -21,0 -38,13 -45,31 1,5 3,10 7,14 1,-23 19,-41 41,-43zm-11 -5c2,0 3,0 4,1 -4,-2 -8,-3 -12,-3 -13,0 -24,8 -28,19 9,-10 22,-17 36,-17zm88 56l0 -5c-2,3 -5,4 -8,5 -3,1 -6,2 -10,2 -8,0 -14,-3 -19,-8 -5,-5 -7,-13 -7,-22 0,-9 3,-17 8,-22 5,-5 12,-8 22,-8 7,0 13,2 17,6 5,3 8,9 9,15l-18 0c0,-2 -2,-4 -3,-5 -2,-1 -4,-2 -6,-2 -3,0 -6,2 -8,5 -2,2 -3,6 -3,12 0,5 1,9 3,11 2,3 5,4 8,4 3,0 5,0 7,-2 2,-1 3,-2 4,-5l-9 0 0 -12 25 0 0 31 -12 0zm-191 2l0 -57 18 0 0 42 25 0 0 15 -43 0zm-76 0l0 -57 27 0c9,0 15,1 18,4 4,2 6,7 6,12 0,4 -1,7 -3,9 -1,2 -3,4 -6,5 3,1 5,2 6,4 2,2 3,5 3,9l0 8c0,0 0,0 0,0 0,2 1,3 2,4l0 2 -19 0c0,-2 0,-3 0,-4 0,-1 -1,-2 -1,-2l0 -6c0,-3 0,-5 -1,-6 -1,-1 -3,-2 -6,-2l-8 0 0 20 -18 0zm18 -33l8 0c3,0 5,0 6,-1 1,-1 2,-2 2,-4 0,-2 -1,-3 -2,-4 -1,-1 -3,-1 -6,-1l-8 0 0 10zm-87 33l0 -57 45 0 0 14 -27 0 0 7 23 0 0 13 -23 0 0 9 28 0 0 14 -46 0zm-73 -19l18 0c0,2 1,3 2,4 2,1 4,2 6,2 2,0 4,-1 5,-2 1,0 2,-1 2,-3 0,-2 -3,-3 -8,-5 -1,0 -2,0 -2,0 -4,-1 -8,-2 -10,-3 -3,-1 -4,-2 -5,-3 -3,-1 -4,-3 -5,-5 -1,-2 -2,-5 -2,-8 0,-5 2,-10 6,-13 5,-3 10,-5 18,-5 7,0 13,2 17,5 4,3 6,7 7,13l-17 0c-1,-2 -1,-3 -2,-4 -2,0 -3,-1 -6,-1 -1,0 -3,0 -4,1 -1,1 -1,2 -1,3 0,2 2,3 7,5 1,0 1,0 1,0 1,0 2,0 3,1 7,1 11,3 13,4 3,2 5,4 6,6 1,2 2,5 2,8 0,6 -3,11 -7,14 -4,3 -11,5 -19,5 -7,0 -13,-2 -18,-5 -4,-3 -6,-8 -7,-14z"/>
 </g>
</svg>
