<?xml version="1.0" encoding="UTF-8"?>
<!DOCTYPE svg PUBLIC "-//W3C//DTD SVG 1.1//EN" "http://www.w3.org/Graphics/SVG/1.1/DTD/svg11.dtd">
<!-- Creator: CorelDRAW X7 -->
<svg xmlns="http://www.w3.org/2000/svg" xml:space="preserve" width="101.1mm" height="101.247mm" version="1.1" style="shape-rendering:geometricPrecision; text-rendering:geometricPrecision; image-rendering:optimizeQuality; fill-rule:evenodd; clip-rule:evenodd"
viewBox="0 0 5941 5949"
 xmlns:xlink="http://www.w3.org/1999/xlink">
 <defs>
  <style type="text/css">
   <![CDATA[
    .fil0 {fill:#1F5CA9;fill-rule:nonzero}
   ]]>
  </style>
 </defs>
 <g id="Capa_x0020_1">
  <metadata id="CorelCorpID_0Corel-Layer"/>
  <g id="_2775519233120">
   <g>
    <g>
     <g>
      <g>
       <path class="fil0" d="M5288 2614c-45,-119 -137,-225 -250,-301 -326,-206 -822,-221 -1157,-34 -183,93 -303,278 -341,468 -67,312 -50,683 191,917 280,246 688,301 1051,200 18,-4 72,-17 110,-38l11 -4c112,-47 220,-123 300,-227 186,-270 198,-676 85,-981zm-591 701l0 0c-12,59 -52,120 -115,143 -100,44 -235,31 -328,-20 -78,-54 -88,-145 -98,-231 -7,-170 -19,-350 28,-505 37,-96 140,-121 233,-128 98,0 193,15 253,94 37,56 35,130 42,196 -2,141 10,308 -15,451z"/>
       <path class="fil0" d="M1730 3468c-83,-5 -176,2 -256,-8l3 -864 5 -7 248 -3c2,-140 5,-290 -3,-418l-944 -3 -155 3c-3,130 -3,283 0,416 85,2 165,0 247,7l0 837 -2 35 -248 5c-5,137 -5,270 0,406l1105 0 0 -406z"/>
       <path class="fil0" d="M4509 4058c-105,150 -237,295 -382,408 -6,8 -21,5 -26,-2 -62,-39 -130,-71 -190,-111 80,-95 158,-191 218,-298l-78 0c-62,92 -127,188 -210,269 -110,-44 -211,-84 -323,-114l-13 -9c18,-50 50,-96 60,-146l-67 0 -68 133c-148,-32 -310,-49 -461,-59 -7,-22 3,-54 -7,-74l-65 0c-5,30 7,52 -8,77 -155,7 -305,24 -451,54l-67 -131c-25,0 -53,-4 -70,3l62 145 -7 7c-113,33 -223,72 -331,116l-10 -5c-70,-76 -138,-159 -193,-243 -12,-42 -62,-18 -90,-23 60,109 140,205 220,303 -67,40 -135,84 -205,116 -150,-113 -290,-261 -396,-416 -30,-5 -49,-3 -80,0 181,281 461,527 754,672 0,0 0,-2 3,-2 2,0 7,4 2,7 198,96 408,165 631,194 769,101 1503,-226 1929,-871 -23,-3 -56,-3 -81,0zm-1044 222l0 0 8 -5c108,24 210,59 305,105 -80,91 -183,170 -278,236 -57,35 -115,72 -175,101l-108 -46 8 -17c90,-121 170,-244 240,-374zm-493 -74l0 0c143,2 285,17 418,49l3 7c-70,133 -158,261 -253,382 -43,5 -83,-12 -126,-15l-42 -5c-5,-145 -8,-273 0,-418zm-483 44l0 0c130,-25 265,-44 405,-44l3 416c-53,12 -111,12 -161,25 -102,-121 -187,-252 -260,-387l13 -10zm-404 133l0 0c98,-47 201,-82 306,-108l10 2c72,136 163,263 253,391 -35,20 -78,32 -113,52 -165,-81 -323,-194 -456,-330l0 -7zm323 421l0 0c-210,-55 -405,-148 -586,-276l0 -8c60,-36 121,-76 186,-103 142,141 290,247 450,347 -12,15 -32,30 -50,40zm929 32l0 0c-265,56 -561,59 -826,-5 -5,-12 12,-15 20,-22 233,-150 596,-150 824,12 7,15 -13,10 -18,15zm241 -69l0 0 -118 37c-20,-10 -37,-25 -55,-40l5 -7c160,-93 305,-207 443,-342 68,27 133,64 193,105 -140,112 -303,185 -468,247z"/>
       <path class="fil0" d="M1346 1978c61,-83 128,-164 203,-243 65,-62 125,-121 196,-165 65,42 137,76 200,116 -78,95 -158,192 -215,295 17,7 50,5 75,0 62,-91 130,-182 210,-263 108,39 213,81 323,110l10 10 -62 143c27,5 45,2 72,0 23,-42 40,-89 65,-131 146,33 298,50 454,54 20,18 5,55 12,77l68 0c7,-24 -3,-52 7,-74 146,-7 298,-22 439,-57l12 3 68 128c22,0 52,5 70,-5l-63 -143 5 -5c115,-29 223,-74 333,-118 78,81 150,177 216,271 27,0 55,2 75,-5 -30,-54 -68,-108 -108,-155 -33,-47 -67,-89 -110,-133l0 -13 175 -100 25 -10c153,116 288,256 396,411 30,0 55,10 80,-2 -336,-502 -889,-825 -1487,-872l-3 5 -5 -5c-68,-7 -150,-10 -223,-2 -27,-3 -60,0 -93,2 -601,47 -1154,355 -1500,879 25,-3 55,7 80,-3zm1040 -216l0 0 -10 2c-103,-27 -203,-59 -298,-101l5 -14c137,-131 283,-239 443,-323 38,15 75,27 113,45l-8 19c-95,118 -170,246 -245,372zm498 66l0 0c-70,10 -132,-2 -203,-7 -67,-10 -153,-17 -220,-40 72,-135 158,-265 260,-385l161 21c7,128 2,276 2,411zm78 3l0 0c-5,-131 -3,-276 0,-411 50,-7 105,-15 155,-22 98,122 193,248 258,383 -135,33 -273,50 -413,50zm799 -173l0 0c-98,42 -198,82 -306,104 -77,-130 -162,-261 -258,-387 35,-19 78,-34 115,-53 163,81 321,196 454,329l-5 7zm-321 -420l0 0c211,54 408,147 589,275l-5 10 -173 96 -13 0c-132,-133 -288,-248 -445,-339 5,-18 30,-30 47,-42zm-100 -25l0 0 0 5c-218,157 -571,172 -801,27 -13,-10 -38,-15 -41,-32 266,-61 579,-66 842,0zm-1528 305l0 0c158,-115 333,-201 519,-261 7,-7 12,-14 22,-14l0 5c20,4 35,-18 53,-3 15,12 32,22 45,35 -155,95 -308,209 -448,346 -68,-24 -131,-61 -191,-103l0 -5z"/>
       <path class="fil0" d="M2887 3487c-236,64 -491,15 -662,-162 -19,-25 -32,-54 -52,-79l-338 2c-5,200 -8,429 0,626l375 -3 5 -118c43,20 86,44 128,66 261,109 596,133 854,0 188,-103 288,-302 261,-517 -28,-209 -228,-398 -431,-450l-606 -175 -45 -22c-20,-17 -33,-39 -28,-66 48,-81 158,-57 241,-54 175,24 355,83 458,243 110,0 238,3 358,-2 5,-202 -2,-379 -5,-583 -113,-3 -251,-3 -363,2 -5,30 5,71 -8,101l-115 -62c-275,-115 -661,-127 -911,52 -163,118 -213,330 -171,517 33,177 203,307 366,369 223,79 456,136 681,212 23,10 53,32 48,59 0,22 -23,34 -40,44z"/>
      </g>
      <g>
       <path class="fil0" d="M519 4054l12 28c3,5 0,11 -6,14l-361 155c-5,3 -11,1 -14,-5l-12 -28c-2,-5 0,-11 6,-13l361 -156c5,-2 12,-1 14,5z"/>
       <path class="fil0" d="M412 3762l9 25c2,6 -1,13 -7,15l-175 58c-53,19 -63,42 -50,83 8,22 25,44 45,64l224 -75c5,-2 12,1 14,7l9 26c1,5 -2,11 -8,13l-270 91c-6,2 -12,0 -14,-6l-9 -27c-2,-5 2,-11 8,-13l10 -4c-27,-23 -43,-44 -53,-76 -22,-63 8,-105 79,-129l174 -59c6,-2 12,1 14,7z"/>
       <path class="fil0" d="M363 3554c4,10 9,24 11,34 12,50 5,77 -55,91l-190 46 7 54c1,6 -2,11 -8,12l-14 4c-6,1 -11,-2 -13,-8l-12 -53 -53 13c-6,1 -11,-2 -14,-7l-11 -28c0,0 0,-1 0,-1 -1,-4 2,-9 7,-11l59 -14 -14 -58c-1,-6 3,-12 9,-14l18 -4c6,-2 12,2 14,8l14 59 189 -45c30,-7 33,-16 28,-38l-8 -30c-1,-8 0,-12 5,-14l19 -4c5,-1 9,1 12,8z"/>
       <path class="fil0" d="M184 3302l26 186 7 -1c66,-10 87,-39 80,-90 -4,-32 -12,-73 -20,-97 0,-2 0,-2 0,-3 -1,-5 1,-10 6,-10l19 -3c7,-1 12,1 14,9 11,31 19,61 24,98 8,64 -13,130 -116,144l-50 7c-79,11 -135,-26 -146,-105 -11,-81 34,-129 112,-140l30 -4c8,0 13,3 14,9zm-37 45l0 0c-62,9 -83,36 -77,84 7,48 38,71 97,63l5 -1 -20 -147 -5 1z"/>
       <path class="fil0" d="M43 3110c1,25 9,48 27,75l233 -12c6,0 12,5 12,11l1 27c1,6 -4,11 -10,11l-284 15c-6,0 -12,-4 -12,-10l-1 -26c-1,-6 4,-11 10,-11l12 -1c-21,-27 -30,-52 -31,-77 0,-8 3,-12 10,-12l22 -2c6,0 10,4 11,12z"/>
       <path class="fil0" d="M317 2819l-1 27c0,6 -5,10 -12,10l-183 -7c-56,-2 -74,16 -76,58 -1,24 7,50 19,76l235 10c5,0 11,5 11,11l-1 27c-1,6 -6,11 -12,11l-284 -12c-6,0 -11,-5 -11,-11l1 -28c1,-6 6,-10 12,-10l10 1c-16,-32 -23,-57 -22,-90 3,-67 46,-95 120,-92l183 7c6,0 11,6 11,12z"/>
       <path class="fil0" d="M353 2545l-3 26c-1,6 -7,10 -13,9l-12 -1c11,28 19,58 14,89 -7,46 -33,86 -102,76l-7 -1c-60,-8 -84,-48 -70,-146l6 -41 -22 -3c-46,-7 -65,7 -71,50 -5,36 -7,62 -8,85 0,1 0,1 0,2 -1,5 -4,10 -11,9l-19 -3c-6,-1 -9,-5 -9,-13 0,-23 0,-49 6,-86 11,-77 54,-102 119,-93l193 29c6,1 10,6 9,12zm-152 16l0 0 -6 41c-10,67 2,87 42,93l6 0c40,6 53,-11 58,-43 4,-25 -1,-49 -11,-78l-89 -13z"/>
       <path class="fil0" d="M403 2339c-1,12 -4,26 -6,36 -12,50 -31,71 -91,57l-189 -45 -19 51c-2,6 -6,9 -12,8l-15 -3c-6,-2 -8,-7 -7,-13l13 -53 -54 -13c-5,-1 -9,-6 -8,-12l2 -29c0,-1 0,-1 0,-2 2,-4 6,-7 12,-6l59 14 14 -58c1,-6 8,-10 13,-9l19 5c6,1 10,7 8,13l-14 59 190 45c30,7 36,1 41,-21l7 -31c2,-7 5,-10 11,-9l19 4c5,2 7,5 7,12z"/>
       <path class="fil0" d="M90 2143l-9 27c-2,6 -8,9 -14,8l-42 -13c-6,-2 -9,-8 -8,-14l9 -28c2,-6 8,-9 14,-7l42 13c6,2 9,8 8,14zm339 106l0 0 -7 25c-2,6 -9,9 -14,7l-272 -83c-6,-2 -10,-8 -8,-14l8 -26c2,-5 8,-9 14,-7l272 84c6,1 9,8 7,14z"/>
       <path class="fil0" d="M498 2067c-30,76 -96,95 -172,64l-39 -15c-77,-30 -111,-89 -81,-165 30,-76 96,-96 172,-66l40 16c76,30 110,90 80,166zm-138 -136l0 0c-53,-21 -95,-13 -114,35 -19,49 5,83 59,104l39 16c53,21 95,14 114,-35 19,-48 -5,-83 -59,-104l-39 -16z"/>
       <path class="fil0" d="M669 1705l-13 24c-3,5 -10,7 -15,4l-162 -86c-50,-27 -74,-18 -94,19 -11,21 -16,48 -16,77l207 111c5,3 8,10 5,15l-13 24c-3,5 -10,7 -15,4l-251 -134c-5,-3 -8,-9 -5,-15l13 -25c3,-5 10,-7 15,-3l10 5c-1,-36 3,-62 19,-91 32,-59 83,-66 148,-31l162 87c6,3 8,10 5,15z"/>
       <path class="fil0" d="M819 1478l-14 21c-4,5 -11,7 -16,3l-10 -7c-2,31 -8,61 -26,87 -26,39 -68,63 -126,23l-5 -3c-50,-34 -55,-80 1,-162l24 -34 -19 -13c-38,-26 -61,-22 -85,14 -21,30 -34,53 -45,73 -1,1 -1,1 -1,2 -3,4 -8,7 -14,3l-16 -11c-5,-3 -5,-8 -2,-15 10,-22 22,-45 43,-76 44,-64 94,-68 148,-30l161 110c5,3 6,10 2,15zm-143 -52l0 0 -24 34c-38,55 -36,79 -3,101l6 4c33,22 52,13 70,-14 15,-21 22,-44 25,-75l-74 -50z"/>
       <path class="fil0" d="M894 1385l-19 23c-3,4 -10,4 -14,0l-311 -249c-5,-3 -6,-9 -2,-14l18 -23c3,-4 9,-5 14,-1l311 249c5,4 7,10 3,15z"/>
       <path class="fil0" d="M1137 1129c-64,60 -145,66 -230,-24l-49 -53c-85,-90 -73,-171 -10,-231 65,-60 146,-66 230,25l50 52c84,91 73,171 9,231zm-96 -248l0 0c-64,-69 -116,-69 -161,-27 -45,42 -49,95 16,163l49 53c64,68 116,68 161,26 44,-42 48,-94 -16,-163l-49 -52z"/>
       <path class="fil0" d="M1229 699c-21,16 -35,35 -47,66l142 185c3,5 3,12 -2,16l-22 17c-4,3 -11,2 -15,-3l-173 -226c-4,-5 -3,-11 2,-15l21 -16c5,-4 11,-3 15,2l7 10c10,-33 26,-54 46,-69 6,-5 12,-5 15,1l14 18c4,4 3,10 -3,14z"/>
       <path class="fil0" d="M1482 531l-15 14c14,4 31,13 47,39l3 3c32,52 19,101 -54,147 -25,16 -43,22 -60,25 -6,9 -6,17 -2,24 5,8 12,10 24,6l82 -27c53,-18 106,-33 134,12l3 3c28,46 16,92 -61,141 -74,48 -127,41 -156,-5l-3 -5c-16,-26 -16,-57 -8,-78l-4 1c-20,3 -36,-9 -45,-23l0 -1c-9,-12 -11,-30 -3,-46 -23,-4 -41,-17 -56,-41l-3 -3c-26,-42 -29,-99 52,-150l103 -66c5,-3 13,-2 17,4l8 12c4,6 2,10 -3,14zm-9 78l0 0c-18,-28 -45,-42 -95,-9 -53,33 -49,64 -32,91l3 3c13,21 40,42 94,8 50,-33 51,-60 33,-89l-3 -4zm127 191l0 0c-12,-19 -32,-16 -81,0l-62 20c-6,21 -8,38 8,63l2 4c17,26 43,33 96,0 53,-35 56,-58 39,-83l-2 -4z"/>
       <path class="fil0" d="M1854 644l-23 12c-5,2 -12,0 -15,-6l-5 -10c-17,25 -37,48 -65,62 -43,21 -91,22 -122,-41l-3 -6c-26,-54 -8,-97 81,-140l37 -19 -10 -20c-21,-42 -42,-49 -81,-30 -33,16 -56,30 -75,42 -1,0 -2,1 -3,1 -4,2 -9,3 -12,-3l-9 -18c-3,-6 -1,-10 6,-15 18,-13 40,-28 74,-45 70,-34 115,-13 144,46l86 175c3,6 1,13 -5,15zm-100 -116l0 0 -37 18c-60,30 -69,51 -52,87l3 6c18,36 40,37 69,23 23,-12 40,-29 57,-54l-40 -80z"/>
       <path class="fil0" d="M2131 538l-25 9c-6,2 -12,-1 -14,-7l-63 -172c-19,-53 -43,-63 -83,-49 -22,9 -43,26 -63,47l80 221c2,5 -1,12 -6,14l-26 10c-5,2 -12,-1 -14,-7l-97 -268c-2,-5 0,-12 6,-14l26 -9c6,-2 12,1 14,6l4 10c23,-26 43,-43 74,-54 63,-23 106,6 131,76l63 173c2,5 -1,12 -7,14z"/>
       <path class="fil0" d="M2154 163l-27 8c-6,1 -12,-2 -14,-8l-12 -43c-1,-6 2,-12 8,-14l28 -8c6,-1 12,2 13,8l12 43c2,6 -2,12 -8,14zm93 344l0 0 -26 7c-6,2 -12,-2 -14,-8l-74 -275c-2,-6 1,-12 7,-13l26 -7c6,-2 12,2 14,8l74 274c2,6 -1,12 -7,14z"/>
       <path class="fil0" d="M2513 449l-165 32c-24,5 -37,-8 -40,-24l-2 -10c-3,-15 -1,-24 6,-38l107 -204c1,-2 2,-4 1,-5 0,-3 -2,-4 -6,-3l-133 26c-6,1 -12,-3 -14,-9l-3 -19c-1,-5 3,-11 9,-13l161 -31c23,-5 33,4 36,21l3 13c2,11 0,20 -7,32l-109 209c-2,3 -2,5 -2,7 1,2 2,4 6,3l144 -28c6,-1 12,3 13,9l4 18c1,6 -3,12 -9,14z"/>
       <path class="fil0" d="M2775 421l-26 2c-6,1 -12,-4 -12,-10l-1 -12c-25,18 -52,32 -83,35 -48,4 -93,-12 -99,-81l-1 -7c-5,-60 27,-93 126,-102l41 -4 -2 -22c-4,-47 -22,-62 -65,-58 -36,4 -63,8 -85,12 -1,1 -2,1 -3,1 -5,0 -10,-1 -10,-8l-2 -20c-1,-6 3,-9 11,-11 22,-6 47,-12 85,-15 77,-7 112,29 118,94l18 194c0,6 -4,11 -10,12zm-52 -144l0 0 -41 4c-67,6 -84,22 -80,62l1 7c4,39 23,48 55,45 26,-2 48,-12 73,-29l-8 -89z"/>
       <path class="fil0" d="M2989 419c-12,1 -26,3 -37,3 -51,1 -76,-12 -77,-74l-3 -195 -54 -5c-6,-1 -11,-4 -11,-10l0 -15c0,-6 4,-10 10,-10l54 -1 0 -55c0,-5 3,-10 9,-11l29 -5c1,0 2,0 2,0 5,0 9,4 9,9l1 61 60 -1c6,0 11,5 11,11l1 19c0,6 -5,12 -11,12l-61 1 3 195c1,30 9,35 31,34l31 0c8,0 12,2 12,7l0 20c0,5 -2,8 -9,10z"/>
       <path class="fil0" d="M3086 424l-27 -2c-6,0 -11,-5 -11,-12l17 -284c1,-6 6,-10 12,-10l27 1c6,1 10,6 10,12l-16 284c-1,7 -6,11 -12,11zm22 -356l0 0 -29 -1c-6,0 -11,-6 -10,-12l2 -44c1,-7 6,-11 12,-11l29 2c6,0 10,5 10,11l-3 45c0,6 -5,11 -11,10z"/>
       <path class="fil0" d="M3278 447c-81,-12 -116,-71 -105,-152l6 -42c11,-82 60,-130 141,-119 82,11 116,71 105,152l-5 42c-11,82 -61,130 -142,119zm99 -167l0 0c7,-57 -10,-96 -62,-103 -52,-7 -79,25 -87,82l-6 42c-8,57 10,96 62,103 51,7 79,-25 87,-82l6 -42z"/>
       <path class="fil0" d="M3670 525l-26 -6c-6,-2 -10,-8 -8,-14l45 -178c14,-55 0,-76 -41,-87 -23,-6 -51,-3 -79,3l-58 228c-1,6 -8,10 -14,8l-26 -6c-6,-2 -9,-8 -8,-14l71 -276c1,-6 7,-10 13,-8l27 7c6,1 9,7 7,13l-2 10c34,-9 60,-11 92,-3 65,17 84,65 66,137l-46 178c-1,6 -7,10 -13,8z"/>
       <path class="fil0" d="M4143 291l-25 -10c-24,-10 -34,-6 -46,22l-15 37 54 23c5,2 8,8 6,13l-9 20c-2,5 -7,7 -13,5l-54 -22 -97 235c-2,5 -9,8 -14,6l-26 -10c-5,-2 -8,-10 -6,-15l97 -235 -47 -27c-6,-2 -8,-8 -6,-13l5 -14c3,-5 8,-7 14,-5l50 21 15 -37c23,-56 57,-61 102,-42 14,5 22,10 28,15 5,3 8,7 6,12l-7 17c-2,6 -6,6 -12,4z"/>
       <path class="fil0" d="M4129 719c-72,-38 -84,-106 -46,-178l19 -38c38,-73 101,-101 173,-63 73,38 85,106 47,178l-20 38c-38,73 -100,101 -173,63zm150 -123l0 0c26,-51 23,-94 -24,-118 -46,-24 -82,-3 -109,48l-20 37c-26,51 -23,93 23,118 46,24 83,3 110,-48l20 -37z"/>
       <path class="fil0" d="M4536 645c-21,-14 -44,-21 -77,-22l-126 196c-3,5 -10,7 -15,4l-24 -15c-4,-3 -6,-10 -2,-15l153 -239c4,-5 10,-7 15,-4l22 14c6,4 6,10 3,15l-6 10c34,-1 59,7 80,20 7,4 8,9 5,15l-13 19c-3,5 -8,6 -15,2z"/>
       <path class="fil0" d="M4612 1045c-29,-25 -49,-47 -65,-66 -6,-8 -5,-10 -1,-15l14 -17c5,-4 10,-3 13,0 1,0 1,1 2,1 18,18 48,46 67,63 51,43 82,35 107,5 19,-21 17,-43 -1,-100l-20 -60c-18,-58 -19,-96 10,-130 44,-51 101,-43 166,13 24,21 55,52 69,68 3,5 4,9 1,14l-16 18c-4,4 -9,4 -13,0 0,0 0,0 -1,-1 -18,-17 -46,-44 -70,-65 -44,-37 -70,-44 -97,-13 -17,20 -14,44 2,91l19 57c23,71 21,109 -8,143 -35,40 -94,66 -178,-6z"/>
       <path class="fil0" d="M4847 1266c-9,-7 -19,-16 -27,-24 -36,-37 -43,-63 1,-106l139 -137 -34 -43c-4,-4 -4,-10 0,-14l11 -11c4,-4 10,-3 14,1l38 39 39 -39c4,-4 10,-4 15,0l24 17c0,1 0,1 1,1 3,4 3,9 -1,13l-44 43 43 43c4,4 4,11 -1,16l-13 13c-4,4 -12,4 -16,0l-42 -44 -139 137c-22,21 -20,30 -4,46l22 22c5,6 6,10 2,14l-14 14c-3,3 -8,3 -14,-1z"/>
       <path class="fil0" d="M5009 1458l-16 -20c-4,-5 -3,-12 2,-15l9 -8c-29,-11 -55,-25 -75,-50 -30,-36 -42,-83 12,-127l6 -4c46,-38 92,-30 155,47l26 32 17 -14c36,-30 39,-53 11,-86 -23,-29 -41,-48 -57,-64 -1,-1 -1,-1 -2,-2 -3,-4 -5,-9 1,-13l15 -13c5,-4 10,-3 15,3 18,15 37,33 61,62 49,60 38,109 -13,151l-151 123c-5,4 -12,3 -16,-2zm92 -123l0 0 -27 -32c-42,-52 -65,-57 -96,-32l-5 5c-31,25 -28,46 -7,72 16,19 37,32 65,44l70 -57z"/>
       <path class="fil0" d="M5172 1702l-14 -23c-3,-5 -2,-12 3,-15l155 -100c47,-31 51,-56 28,-92 -13,-19 -35,-36 -59,-51l-198 128c-5,3 -12,2 -15,-3l-15 -23c-3,-5 -2,-12 3,-15l239 -155c5,-3 12,-2 15,3l15 23c4,6 2,12 -3,15l-9 6c31,16 52,33 70,61 36,56 17,104 -45,144l-154 100c-5,3 -12,2 -16,-3z"/>
       <path class="fil0" d="M5309 1954c-21,-28 -39,-57 -54,-88 -37,-74 -6,-133 69,-170l36 -18c79,-39 140,-25 177,48 7,15 18,40 24,61l93 -47c5,-2 11,0 14,5l13 26c2,5 0,11 -5,13l-350 175c-6,3 -10,3 -17,-5zm215 -149l0 0c-5,-18 -18,-44 -26,-60 -24,-49 -63,-50 -116,-23l-36 18c-54,27 -77,58 -52,107 8,17 22,41 32,57l198 -99z"/>
       <path class="fil0" d="M5405 2214l-9 -24c-2,-6 1,-12 6,-14l12 -5c-24,-19 -45,-41 -56,-71 -16,-44 -12,-92 54,-116l6 -3c56,-21 97,2 131,95l15 39 21 -8c44,-17 53,-37 38,-78 -13,-34 -24,-58 -34,-79 0,-1 0,-1 -1,-2 -2,-5 -2,-10 5,-13l18 -6c6,-3 11,0 14,7 12,20 24,43 37,78 27,73 1,116 -60,139l-183 68c-5,2 -12,-1 -14,-7zm126 -87l0 0 -14 -39c-24,-63 -44,-75 -82,-61l-6 2c-37,15 -41,36 -30,66 9,24 25,43 48,63l84 -31z"/>
       <path class="fil0" d="M5717 2333c-7,-25 -19,-45 -43,-68l-225 62c-6,2 -12,-2 -14,-8l-7 -26c-2,-5 2,-12 8,-13l274 -76c6,-1 12,2 14,7l7 26c1,6 -2,11 -8,13l-12 3c27,22 41,45 47,69 2,7 0,12 -6,14l-22 6c-6,2 -11,-1 -13,-9z"/>
       <path class="fil0" d="M5513 2650c-13,-33 -22,-66 -28,-99 -15,-82 31,-130 113,-145l40 -7c86,-16 142,14 156,94 4,17 7,43 7,65l102 -19c5,-1 11,3 12,9l5 28c1,5 -2,10 -8,12l-384 71c-7,1 -11,1 -15,-9zm247 -84l0 0c0,-19 -5,-48 -8,-65 -10,-54 -47,-65 -105,-54l-40 7c-60,11 -90,35 -80,89 4,19 10,45 15,64l218 -41z"/>
       <path class="fil0" d="M5520 2768l-3 -27c-1,-6 4,-12 10,-12l283 -30c6,0 12,4 12,10l3 27c1,6 -4,11 -10,12l-283 29c-6,1 -12,-3 -12,-9zm354 -36l0 0 -3 -29c-1,-6 4,-11 10,-12l45 -4c6,-1 11,3 12,9l3 29c0,6 -4,11 -10,12l-45 5c-6,0 -11,-4 -12,-10z"/>
       <path class="fil0" d="M5534 3041l-5 -168c-1,-24 14,-35 30,-35l10 -1c16,0 24,3 37,12l184 139c2,1 3,2 5,2 2,0 4,-1 4,-6l-5 -136c0,-6 5,-11 11,-11l19 -1c6,0 12,5 12,11l5 164c0,23 -10,32 -27,32l-13 1c-12,0 -20,-3 -31,-12l-188 -141c-3,-3 -5,-3 -7,-3 -2,0 -4,1 -4,5l4 147c1,6 -4,12 -10,12l-19 0c-7,0 -12,-4 -12,-11z"/>
       <path class="fil0" d="M5519 3308l2 -26c1,-6 6,-11 12,-10l12 0c-13,-27 -23,-56 -21,-87 3,-48 27,-90 97,-85l7 1c60,4 87,41 80,140l-3 41 23 2c47,3 64,-12 67,-55 2,-36 2,-63 1,-86 1,-1 1,-1 1,-2 0,-6 2,-10 9,-10l20 1c6,1 9,5 9,13 3,23 4,49 2,87 -6,77 -47,106 -113,101l-194 -13c-6,-1 -11,-6 -11,-12zm151 -28l0 0 3 -41c5,-68 -9,-86 -48,-89l-7 -1c-40,-3 -52,16 -54,48 -2,26 4,49 17,77l89 6z"/>
       <path class="fil0" d="M5487 3518c0,-11 1,-26 3,-36 8,-51 25,-73 86,-64l192 30 15 -52c1,-6 5,-10 11,-9l15 2c6,1 10,6 8,12l-8 54 54 8c6,1 10,6 10,12l0 29c-1,1 -1,2 -1,2 0,5 -5,8 -10,7l-60 -9 -10 59c-1,6 -7,10 -13,9l-18 -3c-7,0 -11,-6 -10,-12l10 -60 -193 -30c-30,-5 -36,2 -39,24l-5 31c-2,8 -4,11 -10,10l-19 -3c-5,-1 -8,-4 -8,-11z"/>
       <path class="fil0" d="M5468 3612l5 -26c1,-6 8,-10 13,-8l278 61c7,2 10,8 9,14l-6 26c-1,6 -7,10 -13,8l-278 -61c-6,-2 -10,-8 -8,-14zm347 79l0 0 6 -28c1,-6 7,-10 13,-9l44 10c6,1 10,7 9,13l-7 28c-1,6 -7,10 -13,9l-43 -10c-7,-1 -10,-7 -9,-13z"/>
       <path class="fil0" d="M5414 3797c24,-78 88,-102 167,-78l40 12c79,24 118,80 94,158 -24,79 -88,103 -167,79l-40 -12c-78,-24 -118,-81 -94,-159zm149 124l0 0c54,17 96,6 111,-44 15,-50 -12,-82 -67,-99l-41 -13c-54,-16 -95,-5 -111,44 -15,50 12,83 67,100l41 12z"/>
       <path class="fil0" d="M5274 4169l11 -25c2,-6 9,-8 14,-6l169 74c51,22 74,12 92,-27 9,-21 11,-49 10,-78l-216 -94c-5,-2 -8,-9 -6,-14l11 -26c2,-5 9,-7 15,-5l260 114c6,2 9,9 6,14l-11 26c-2,5 -9,8 -14,5l-10 -4c4,35 1,61 -12,91 -27,62 -77,73 -145,43l-168 -74c-6,-2 -9,-9 -6,-14z"/>
      </g>
      <g>
       <g>
        <path class="fil0" d="M2293 5949c-64,0 -111,-7 -140,-14 -11,-3 -16,-7 -16,-15l0 -62c0,-11 5,-15 13,-15 1,0 2,0 4,0 34,5 87,10 129,10 63,0 89,-25 89,-104l0 -5c-18,3 -54,8 -84,8 -96,0 -176,-41 -176,-159l0 -5c0,-108 66,-180 188,-180 115,0 191,67 191,209l0 109c0,161 -77,223 -198,223zm79 -332l0 0c0,-97 -30,-117 -72,-117 -39,0 -69,19 -69,88l0 5c0,59 35,74 77,74 18,0 48,-4 64,-7l0 -43z"/>
        <path class="fil0" d="M2753 5949c-121,0 -191,-69 -191,-239l0 -62c0,-171 70,-240 191,-240 121,0 192,69 192,240l0 62c0,170 -71,239 -192,239zm71 -301l0 0c0,-112 -31,-139 -71,-139 -40,0 -69,27 -69,139l0 62c0,112 29,138 69,138 40,0 71,-26 71,-138l0 -62z"/>
        <path class="fil0" d="M3205 5949c-121,0 -191,-69 -191,-239l0 -62c0,-171 70,-240 191,-240 122,0 193,69 193,240l0 62c0,170 -71,239 -193,239zm71 -301l0 0c0,-112 -31,-139 -71,-139 -39,0 -69,27 -69,139l0 62c0,112 30,138 69,138 40,0 71,-26 71,-138l0 -62z"/>
        <path class="fil0" d="M3609 5842l0 -306 -93 40c-3,1 -6,2 -8,2 -5,0 -8,-4 -8,-10l0 -81c0,-5 2,-8 7,-10l129 -60c5,-2 9,-3 17,-3l64 0c7,0 13,6 13,13l0 415 95 0c8,0 14,5 14,13l0 74c0,7 -6,14 -14,14l-311 0c-7,0 -14,-7 -14,-14l0 -74c0,-8 7,-13 14,-13l95 0z"/>
       </g>
      </g>
     </g>
    </g>
   </g>
  </g>
 </g>
</svg>
