<?xml version="1.0" encoding="UTF-8"?>
<!DOCTYPE svg PUBLIC "-//W3C//DTD SVG 1.1//EN" "http://www.w3.org/Graphics/SVG/1.1/DTD/svg11.dtd">
<!-- Creator: CorelDRAW X7 -->
<svg xmlns="http://www.w3.org/2000/svg" xml:space="preserve" width="130.633mm" height="196.34mm" version="1.1" style="shape-rendering:geometricPrecision; text-rendering:geometricPrecision; image-rendering:optimizeQuality; fill-rule:evenodd; clip-rule:evenodd"
viewBox="0 0 11724 17621"
 xmlns:xlink="http://www.w3.org/1999/xlink">
 <defs>
  <style type="text/css">
   <![CDATA[
    .fil0 {fill:#B3B3B3;fill-opacity:0.129412}
   ]]>
  </style>
 </defs>
 <g id="Capa_x0020_1">
  <metadata id="CorelCorpID_0Corel-Layer"/>
  <path class="fil0" d="M5239 0l205 0c20,0 36,16 36,36l0 205c0,19 -16,36 -36,36l-205 0c-20,0 -36,-17 -36,-36l0 -205c0,-20 16,-36 36,-36zm347 0l205 0c20,0 36,16 36,36l0 205c0,19 -16,36 -36,36l-205 0c-20,0 -36,-17 -36,-36l0 -205c0,-20 16,-36 36,-36zm347 0l205 0c19,0 36,16 36,36l0 205c0,19 -17,36 -36,36l-205 0c-20,0 -36,-17 -36,-36l0 -205c0,-20 16,-36 36,-36zm-347 347l205 0c20,0 36,16 36,36l0 205c0,19 -16,36 -36,36l-205 0c-20,0 -36,-17 -36,-36l0 -205c0,-20 16,-36 36,-36zm347 0l205 0c19,0 36,16 36,36l0 205c0,19 -17,36 -36,36l-205 0c-20,0 -36,-17 -36,-36l0 -205c0,-20 16,-36 36,-36zm347 0l205 0c19,0 36,16 36,36l0 205c0,19 -17,36 -36,36l-205 0c-20,0 -36,-17 -36,-36l0 -205c0,-20 16,-36 36,-36zm-694 347l205 0c20,0 36,16 36,36l0 204c0,20 -16,36 -36,36l-205 0c-20,0 -36,-16 -36,-36l0 -204c0,-20 16,-36 36,-36zm347 0l205 0c19,0 36,16 36,36l0 204c0,20 -17,36 -36,36l-205 0c-20,0 -36,-16 -36,-36l0 -204c0,-20 16,-36 36,-36zm347 0l205 0c19,0 36,16 36,36l0 204c0,20 -17,36 -36,36l-205 0c-20,0 -36,-16 -36,-36l0 -204c0,-20 16,-36 36,-36zm347 0l204 0c20,0 36,16 36,36l0 204c0,20 -16,36 -36,36l-204 0c-20,0 -36,-16 -36,-36l0 -204c0,-20 16,-36 36,-36zm-1388 347l205 0c20,0 36,16 36,36l0 204c0,20 -16,36 -36,36l-205 0c-20,0 -36,-16 -36,-36l0 -204c0,-20 16,-36 36,-36zm347 0l205 0c20,0 36,16 36,36l0 204c0,20 -16,36 -36,36l-205 0c-20,0 -36,-16 -36,-36l0 -204c0,-20 16,-36 36,-36zm347 0l205 0c19,0 36,16 36,36l0 204c0,20 -17,36 -36,36l-205 0c-20,0 -36,-16 -36,-36l0 -204c0,-20 16,-36 36,-36zm347 0l205 0c19,0 36,16 36,36l0 204c0,20 -17,36 -36,36l-205 0c-20,0 -36,-16 -36,-36l0 -204c0,-20 16,-36 36,-36zm347 0l204 0c20,0 36,16 36,36l0 204c0,20 -16,36 -36,36l-204 0c-20,0 -36,-16 -36,-36l0 -204c0,-20 16,-36 36,-36zm347 0l204 0c20,0 36,16 36,36l0 204c0,20 -16,36 -36,36l-204 0c-20,0 -36,-16 -36,-36l0 -204c0,-20 16,-36 36,-36zm-1735 347l205 0c20,0 36,16 36,36l0 204c0,20 -16,36 -36,36l-205 0c-20,0 -36,-16 -36,-36l0 -204c0,-20 16,-36 36,-36zm347 0l205 0c20,0 36,16 36,36l0 204c0,20 -16,36 -36,36l-205 0c-20,0 -36,-16 -36,-36l0 -204c0,-20 16,-36 36,-36zm347 0l205 0c19,0 36,16 36,36l0 204c0,20 -17,36 -36,36l-205 0c-20,0 -36,-16 -36,-36l0 -204c0,-20 16,-36 36,-36zm347 0l205 0c19,0 36,16 36,36l0 204c0,20 -17,36 -36,36l-205 0c-20,0 -36,-16 -36,-36l0 -204c0,-20 16,-36 36,-36zm347 0l204 0c20,0 36,16 36,36l0 204c0,20 -16,36 -36,36l-204 0c-20,0 -36,-16 -36,-36l0 -204c0,-20 16,-36 36,-36zm347 0l204 0c20,0 36,16 36,36l0 204c0,20 -16,36 -36,36l-204 0c-20,0 -36,-16 -36,-36l0 -204c0,-20 16,-36 36,-36zm347 0l204 0c20,0 36,16 36,36l0 204c0,20 -16,36 -36,36l-204 0c-20,0 -36,-16 -36,-36l0 -204c0,-20 16,-36 36,-36zm-2429 346l205 0c20,0 36,17 36,36l0 205c0,20 -16,36 -36,36l-205 0c-19,0 -36,-16 -36,-36l0 -205c0,-19 17,-36 36,-36zm347 0l205 0c20,0 36,17 36,36l0 205c0,20 -16,36 -36,36l-205 0c-20,0 -36,-16 -36,-36l0 -205c0,-19 16,-36 36,-36zm347 0l205 0c20,0 36,17 36,36l0 205c0,20 -16,36 -36,36l-205 0c-20,0 -36,-16 -36,-36l0 -205c0,-19 16,-36 36,-36zm347 0l205 0c19,0 36,17 36,36l0 205c0,20 -17,36 -36,36l-205 0c-20,0 -36,-16 -36,-36l0 -205c0,-19 16,-36 36,-36zm347 0l205 0c19,0 36,17 36,36l0 205c0,20 -17,36 -36,36l-205 0c-20,0 -36,-16 -36,-36l0 -205c0,-19 16,-36 36,-36zm347 0l204 0c20,0 36,17 36,36l0 205c0,20 -16,36 -36,36l-204 0c-20,0 -36,-16 -36,-36l0 -205c0,-19 16,-36 36,-36zm347 0l204 0c20,0 36,17 36,36l0 205c0,20 -16,36 -36,36l-204 0c-20,0 -36,-16 -36,-36l0 -205c0,-19 16,-36 36,-36zm347 0l204 0c20,0 36,17 36,36l0 205c0,20 -16,36 -36,36l-204 0c-20,0 -36,-16 -36,-36l0 -205c0,-19 16,-36 36,-36zm346 0l205 0c20,0 36,17 36,36l0 205c0,20 -16,36 -36,36l-205 0c-19,0 -36,-16 -36,-36l0 -205c0,-19 17,-36 36,-36zm-3468 347l204 0c20,0 36,17 36,36l0 205c0,20 -16,36 -36,36l-204 0c-20,0 -36,-16 -36,-36l0 -205c0,-19 16,-36 36,-36zm347 0l204 0c20,0 36,17 36,36l0 205c0,20 -16,36 -36,36l-204 0c-20,0 -37,-16 -37,-36l0 -205c0,-19 17,-36 37,-36zm346 0l205 0c20,0 36,17 36,36l0 205c0,20 -16,36 -36,36l-205 0c-19,0 -36,-16 -36,-36l0 -205c0,-19 17,-36 36,-36zm347 0l205 0c20,0 36,17 36,36l0 205c0,20 -16,36 -36,36l-205 0c-20,0 -36,-16 -36,-36l0 -205c0,-19 16,-36 36,-36zm347 0l205 0c20,0 36,17 36,36l0 205c0,20 -16,36 -36,36l-205 0c-20,0 -36,-16 -36,-36l0 -205c0,-19 16,-36 36,-36zm347 0l205 0c19,0 36,17 36,36l0 205c0,20 -17,36 -36,36l-205 0c-20,0 -36,-16 -36,-36l0 -205c0,-19 16,-36 36,-36zm347 0l205 0c19,0 36,17 36,36l0 205c0,20 -17,36 -36,36l-205 0c-20,0 -36,-16 -36,-36l0 -205c0,-19 16,-36 36,-36zm347 0l204 0c20,0 36,17 36,36l0 205c0,20 -16,36 -36,36l-204 0c-20,0 -36,-16 -36,-36l0 -205c0,-19 16,-36 36,-36zm347 0l204 0c20,0 36,17 36,36l0 205c0,20 -16,36 -36,36l-204 0c-20,0 -36,-16 -36,-36l0 -205c0,-19 16,-36 36,-36zm347 0l204 0c20,0 36,17 36,36l0 205c0,20 -16,36 -36,36l-204 0c-20,0 -36,-16 -36,-36l0 -205c0,-19 16,-36 36,-36zm346 0l205 0c20,0 36,17 36,36l0 205c0,20 -16,36 -36,36l-205 0c-19,0 -36,-16 -36,-36l0 -205c0,-19 17,-36 36,-36zm347 0l205 0c20,0 36,17 36,36l0 205c0,20 -16,36 -36,36l-205 0c-19,0 -36,-16 -36,-36l0 -205c0,-19 17,-36 36,-36zm347 0l205 0c20,0 36,17 36,36l0 205c0,20 -16,36 -36,36l-205 0c-20,0 -36,-16 -36,-36l0 -205c0,-19 16,-36 36,-36zm347 0l205 0c20,0 36,17 36,36l0 205c0,20 -16,36 -36,36l-205 0c-20,0 -36,-16 -36,-36l0 -205c0,-19 16,-36 36,-36zm347 0l205 0c19,0 36,17 36,36l0 205c0,20 -17,36 -36,36l-205 0c-20,0 -36,-16 -36,-36l0 -205c0,-19 16,-36 36,-36zm347 0l205 0c19,0 36,17 36,36l0 205c0,20 -17,36 -36,36l-205 0c-20,0 -36,-16 -36,-36l0 -205c0,-19 16,-36 36,-36zm347 0l204 0c20,0 36,17 36,36l0 205c0,20 -16,36 -36,36l-204 0c-20,0 -36,-16 -36,-36l0 -205c0,-19 16,-36 36,-36zm347 0l204 0c20,0 36,17 36,36l0 205c0,20 -16,36 -36,36l-204 0c-20,0 -36,-16 -36,-36l0 -205c0,-19 16,-36 36,-36zm-6591 347l204 0c20,0 36,16 36,36l0 205c0,20 -16,36 -36,36l-204 0c-20,0 -36,-16 -36,-36l0 -205c0,-20 16,-36 36,-36zm347 0l204 0c20,0 36,16 36,36l0 205c0,20 -16,36 -36,36l-204 0c-20,0 -36,-16 -36,-36l0 -205c0,-20 16,-36 36,-36zm347 0l204 0c20,0 36,16 36,36l0 205c0,20 -16,36 -36,36l-204 0c-20,0 -36,-16 -36,-36l0 -205c0,-20 16,-36 36,-36zm347 0l204 0c20,0 36,16 36,36l0 205c0,20 -16,36 -36,36l-204 0c-20,0 -37,-16 -37,-36l0 -205c0,-20 17,-36 37,-36zm346 0l205 0c20,0 36,16 36,36l0 205c0,20 -16,36 -36,36l-205 0c-19,0 -36,-16 -36,-36l0 -205c0,-20 17,-36 36,-36zm347 0l205 0c20,0 36,16 36,36l0 205c0,20 -16,36 -36,36l-205 0c-20,0 -36,-16 -36,-36l0 -205c0,-20 16,-36 36,-36zm347 0l205 0c20,0 36,16 36,36l0 205c0,20 -16,36 -36,36l-205 0c-20,0 -36,-16 -36,-36l0 -205c0,-20 16,-36 36,-36zm347 0l205 0c19,0 36,16 36,36l0 205c0,20 -17,36 -36,36l-205 0c-20,0 -36,-16 -36,-36l0 -205c0,-20 16,-36 36,-36zm347 0l205 0c19,0 36,16 36,36l0 205c0,20 -17,36 -36,36l-205 0c-20,0 -36,-16 -36,-36l0 -205c0,-20 16,-36 36,-36zm347 0l204 0c20,0 36,16 36,36l0 205c0,20 -16,36 -36,36l-204 0c-20,0 -36,-16 -36,-36l0 -205c0,-20 16,-36 36,-36zm347 0l204 0c20,0 36,16 36,36l0 205c0,20 -16,36 -36,36l-204 0c-20,0 -36,-16 -36,-36l0 -205c0,-20 16,-36 36,-36zm347 0l204 0c20,0 36,16 36,36l0 205c0,20 -16,36 -36,36l-204 0c-20,0 -36,-16 -36,-36l0 -205c0,-20 16,-36 36,-36zm346 0l205 0c20,0 36,16 36,36l0 205c0,20 -16,36 -36,36l-205 0c-19,0 -36,-16 -36,-36l0 -205c0,-20 17,-36 36,-36zm347 0l205 0c20,0 36,16 36,36l0 205c0,20 -16,36 -36,36l-205 0c-19,0 -36,-16 -36,-36l0 -205c0,-20 17,-36 36,-36zm347 0l205 0c20,0 36,16 36,36l0 205c0,20 -16,36 -36,36l-205 0c-20,0 -36,-16 -36,-36l0 -205c0,-20 16,-36 36,-36zm347 0l205 0c20,0 36,16 36,36l0 205c0,20 -16,36 -36,36l-205 0c-20,0 -36,-16 -36,-36l0 -205c0,-20 16,-36 36,-36zm347 0l205 0c19,0 36,16 36,36l0 205c0,20 -17,36 -36,36l-205 0c-20,0 -36,-16 -36,-36l0 -205c0,-20 16,-36 36,-36zm347 0l205 0c19,0 36,16 36,36l0 205c0,20 -17,36 -36,36l-205 0c-20,0 -36,-16 -36,-36l0 -205c0,-20 16,-36 36,-36zm347 0l204 0c20,0 36,16 36,36l0 205c0,20 -16,36 -36,36l-204 0c-20,0 -36,-16 -36,-36l0 -205c0,-20 16,-36 36,-36zm347 0l204 0c20,0 36,16 36,36l0 205c0,20 -16,36 -36,36l-204 0c-20,0 -36,-16 -36,-36l0 -205c0,-20 16,-36 36,-36zm-7285 347l205 0c20,0 36,16 36,36l0 205c0,20 -16,36 -36,36l-205 0c-20,0 -36,-16 -36,-36l0 -205c0,-20 16,-36 36,-36zm347 0l205 0c19,0 36,16 36,36l0 205c0,20 -17,36 -36,36l-205 0c-20,0 -36,-16 -36,-36l0 -205c0,-20 16,-36 36,-36zm347 0l204 0c20,0 36,16 36,36l0 205c0,20 -16,36 -36,36l-204 0c-20,0 -36,-16 -36,-36l0 -205c0,-20 16,-36 36,-36zm347 0l204 0c20,0 36,16 36,36l0 205c0,20 -16,36 -36,36l-204 0c-20,0 -36,-16 -36,-36l0 -205c0,-20 16,-36 36,-36zm347 0l204 0c20,0 36,16 36,36l0 205c0,20 -16,36 -36,36l-204 0c-20,0 -36,-16 -36,-36l0 -205c0,-20 16,-36 36,-36zm347 0l204 0c20,0 36,16 36,36l0 205c0,20 -16,36 -36,36l-204 0c-20,0 -37,-16 -37,-36l0 -205c0,-20 17,-36 37,-36zm346 0l205 0c20,0 36,16 36,36l0 205c0,20 -16,36 -36,36l-205 0c-19,0 -36,-16 -36,-36l0 -205c0,-20 17,-36 36,-36zm347 0l205 0c20,0 36,16 36,36l0 205c0,20 -16,36 -36,36l-205 0c-20,0 -36,-16 -36,-36l0 -205c0,-20 16,-36 36,-36zm347 0l205 0c20,0 36,16 36,36l0 205c0,20 -16,36 -36,36l-205 0c-20,0 -36,-16 -36,-36l0 -205c0,-20 16,-36 36,-36zm347 0l205 0c19,0 36,16 36,36l0 205c0,20 -17,36 -36,36l-205 0c-20,0 -36,-16 -36,-36l0 -205c0,-20 16,-36 36,-36zm347 0l205 0c19,0 36,16 36,36l0 205c0,20 -17,36 -36,36l-205 0c-20,0 -36,-16 -36,-36l0 -205c0,-20 16,-36 36,-36zm347 0l204 0c20,0 36,16 36,36l0 205c0,20 -16,36 -36,36l-204 0c-20,0 -36,-16 -36,-36l0 -205c0,-20 16,-36 36,-36zm347 0l204 0c20,0 36,16 36,36l0 205c0,20 -16,36 -36,36l-204 0c-20,0 -36,-16 -36,-36l0 -205c0,-20 16,-36 36,-36zm347 0l204 0c20,0 36,16 36,36l0 205c0,20 -16,36 -36,36l-204 0c-20,0 -36,-16 -36,-36l0 -205c0,-20 16,-36 36,-36zm346 0l205 0c20,0 36,16 36,36l0 205c0,20 -16,36 -36,36l-205 0c-19,0 -36,-16 -36,-36l0 -205c0,-20 17,-36 36,-36zm347 0l205 0c20,0 36,16 36,36l0 205c0,20 -16,36 -36,36l-205 0c-19,0 -36,-16 -36,-36l0 -205c0,-20 17,-36 36,-36zm347 0l205 0c20,0 36,16 36,36l0 205c0,20 -16,36 -36,36l-205 0c-20,0 -36,-16 -36,-36l0 -205c0,-20 16,-36 36,-36zm347 0l205 0c20,0 36,16 36,36l0 205c0,20 -16,36 -36,36l-205 0c-20,0 -36,-16 -36,-36l0 -205c0,-20 16,-36 36,-36zm347 0l205 0c19,0 36,16 36,36l0 205c0,20 -17,36 -36,36l-205 0c-20,0 -36,-16 -36,-36l0 -205c0,-20 16,-36 36,-36zm347 0l205 0c19,0 36,16 36,36l0 205c0,20 -17,36 -36,36l-205 0c-20,0 -36,-16 -36,-36l0 -205c0,-20 16,-36 36,-36zm347 0l204 0c20,0 36,16 36,36l0 205c0,20 -16,36 -36,36l-204 0c-20,0 -36,-16 -36,-36l0 -205c0,-20 16,-36 36,-36zm347 0l204 0c20,0 36,16 36,36l0 205c0,20 -16,36 -36,36l-204 0c-20,0 -36,-16 -36,-36l0 -205c0,-20 16,-36 36,-36zm-9713 347l205 0c19,0 36,16 36,36l0 205c0,19 -17,36 -36,36l-205 0c-20,0 -36,-17 -36,-36l0 -205c0,-20 16,-36 36,-36zm347 0l204 0c20,0 36,16 36,36l0 205c0,19 -16,36 -36,36l-204 0c-20,0 -36,-17 -36,-36l0 -205c0,-20 16,-36 36,-36zm2081 0l205 0c20,0 36,16 36,36l0 205c0,19 -16,36 -36,36l-205 0c-20,0 -36,-17 -36,-36l0 -205c0,-20 16,-36 36,-36zm347 0l205 0c19,0 36,16 36,36l0 205c0,19 -17,36 -36,36l-205 0c-20,0 -36,-17 -36,-36l0 -205c0,-20 16,-36 36,-36zm347 0l204 0c20,0 36,16 36,36l0 205c0,19 -16,36 -36,36l-204 0c-20,0 -36,-17 -36,-36l0 -205c0,-20 16,-36 36,-36zm347 0l204 0c20,0 36,16 36,36l0 205c0,19 -16,36 -36,36l-204 0c-20,0 -36,-17 -36,-36l0 -205c0,-20 16,-36 36,-36zm347 0l204 0c20,0 36,16 36,36l0 205c0,19 -16,36 -36,36l-204 0c-20,0 -36,-17 -36,-36l0 -205c0,-20 16,-36 36,-36zm347 0l204 0c20,0 36,16 36,36l0 205c0,19 -16,36 -36,36l-204 0c-20,0 -37,-17 -37,-36l0 -205c0,-20 17,-36 37,-36zm346 0l205 0c20,0 36,16 36,36l0 205c0,19 -16,36 -36,36l-205 0c-19,0 -36,-17 -36,-36l0 -205c0,-20 17,-36 36,-36zm347 0l205 0c20,0 36,16 36,36l0 205c0,19 -16,36 -36,36l-205 0c-20,0 -36,-17 -36,-36l0 -205c0,-20 16,-36 36,-36zm347 0l205 0c20,0 36,16 36,36l0 205c0,19 -16,36 -36,36l-205 0c-20,0 -36,-17 -36,-36l0 -205c0,-20 16,-36 36,-36zm347 0l205 0c19,0 36,16 36,36l0 205c0,19 -17,36 -36,36l-205 0c-20,0 -36,-17 -36,-36l0 -205c0,-20 16,-36 36,-36zm347 0l205 0c19,0 36,16 36,36l0 205c0,19 -17,36 -36,36l-205 0c-20,0 -36,-17 -36,-36l0 -205c0,-20 16,-36 36,-36zm347 0l204 0c20,0 36,16 36,36l0 205c0,19 -16,36 -36,36l-204 0c-20,0 -36,-17 -36,-36l0 -205c0,-20 16,-36 36,-36zm347 0l204 0c20,0 36,16 36,36l0 205c0,19 -16,36 -36,36l-204 0c-20,0 -36,-17 -36,-36l0 -205c0,-20 16,-36 36,-36zm347 0l204 0c20,0 36,16 36,36l0 205c0,19 -16,36 -36,36l-204 0c-20,0 -36,-17 -36,-36l0 -205c0,-20 16,-36 36,-36zm346 0l205 0c20,0 36,16 36,36l0 205c0,19 -16,36 -36,36l-205 0c-19,0 -36,-17 -36,-36l0 -205c0,-20 17,-36 36,-36zm347 0l205 0c20,0 36,16 36,36l0 205c0,19 -16,36 -36,36l-205 0c-19,0 -36,-17 -36,-36l0 -205c0,-20 17,-36 36,-36zm347 0l205 0c20,0 36,16 36,36l0 205c0,19 -16,36 -36,36l-205 0c-20,0 -36,-17 -36,-36l0 -205c0,-20 16,-36 36,-36zm347 0l205 0c20,0 36,16 36,36l0 205c0,19 -16,36 -36,36l-205 0c-20,0 -36,-17 -36,-36l0 -205c0,-20 16,-36 36,-36zm347 0l205 0c19,0 36,16 36,36l0 205c0,19 -17,36 -36,36l-205 0c-20,0 -36,-17 -36,-36l0 -205c0,-20 16,-36 36,-36zm347 0l205 0c19,0 36,16 36,36l0 205c0,19 -17,36 -36,36l-205 0c-20,0 -36,-17 -36,-36l0 -205c0,-20 16,-36 36,-36zm347 0l204 0c20,0 36,16 36,36l0 205c0,19 -16,36 -36,36l-204 0c-20,0 -36,-17 -36,-36l0 -205c0,-20 16,-36 36,-36zm-9366 347l205 0c19,0 36,16 36,36l0 204c0,20 -17,36 -36,36l-205 0c-20,0 -36,-16 -36,-36l0 -204c0,-20 16,-36 36,-36zm347 0l204 0c20,0 36,16 36,36l0 204c0,20 -16,36 -36,36l-204 0c-20,0 -36,-16 -36,-36l0 -204c0,-20 16,-36 36,-36zm1734 0l205 0c20,0 36,16 36,36l0 204c0,20 -16,36 -36,36l-205 0c-20,0 -36,-16 -36,-36l0 -204c0,-20 16,-36 36,-36zm347 0l205 0c20,0 36,16 36,36l0 204c0,20 -16,36 -36,36l-205 0c-20,0 -36,-16 -36,-36l0 -204c0,-20 16,-36 36,-36zm347 0l205 0c19,0 36,16 36,36l0 204c0,20 -17,36 -36,36l-205 0c-20,0 -36,-16 -36,-36l0 -204c0,-20 16,-36 36,-36zm347 0l204 0c20,0 36,16 36,36l0 204c0,20 -16,36 -36,36l-204 0c-20,0 -36,-16 -36,-36l0 -204c0,-20 16,-36 36,-36zm347 0l204 0c20,0 36,16 36,36l0 204c0,20 -16,36 -36,36l-204 0c-20,0 -36,-16 -36,-36l0 -204c0,-20 16,-36 36,-36zm347 0l204 0c20,0 36,16 36,36l0 204c0,20 -16,36 -36,36l-204 0c-20,0 -36,-16 -36,-36l0 -204c0,-20 16,-36 36,-36zm347 0l204 0c20,0 36,16 36,36l0 204c0,20 -16,36 -36,36l-204 0c-20,0 -37,-16 -37,-36l0 -204c0,-20 17,-36 37,-36zm346 0l205 0c20,0 36,16 36,36l0 204c0,20 -16,36 -36,36l-205 0c-19,0 -36,-16 -36,-36l0 -204c0,-20 17,-36 36,-36zm347 0l205 0c20,0 36,16 36,36l0 204c0,20 -16,36 -36,36l-205 0c-20,0 -36,-16 -36,-36l0 -204c0,-20 16,-36 36,-36zm347 0l205 0c20,0 36,16 36,36l0 204c0,20 -16,36 -36,36l-205 0c-20,0 -36,-16 -36,-36l0 -204c0,-20 16,-36 36,-36zm347 0l205 0c19,0 36,16 36,36l0 204c0,20 -17,36 -36,36l-205 0c-20,0 -36,-16 -36,-36l0 -204c0,-20 16,-36 36,-36zm347 0l205 0c19,0 36,16 36,36l0 204c0,20 -17,36 -36,36l-205 0c-20,0 -36,-16 -36,-36l0 -204c0,-20 16,-36 36,-36zm347 0l204 0c20,0 36,16 36,36l0 204c0,20 -16,36 -36,36l-204 0c-20,0 -36,-16 -36,-36l0 -204c0,-20 16,-36 36,-36zm347 0l204 0c20,0 36,16 36,36l0 204c0,20 -16,36 -36,36l-204 0c-20,0 -36,-16 -36,-36l0 -204c0,-20 16,-36 36,-36zm347 0l204 0c20,0 36,16 36,36l0 204c0,20 -16,36 -36,36l-204 0c-20,0 -36,-16 -36,-36l0 -204c0,-20 16,-36 36,-36zm346 0l205 0c20,0 36,16 36,36l0 204c0,20 -16,36 -36,36l-205 0c-19,0 -36,-16 -36,-36l0 -204c0,-20 17,-36 36,-36zm347 0l205 0c20,0 36,16 36,36l0 204c0,20 -16,36 -36,36l-205 0c-19,0 -36,-16 -36,-36l0 -204c0,-20 17,-36 36,-36zm347 0l205 0c20,0 36,16 36,36l0 204c0,20 -16,36 -36,36l-205 0c-20,0 -36,-16 -36,-36l0 -204c0,-20 16,-36 36,-36zm347 0l205 0c20,0 36,16 36,36l0 204c0,20 -16,36 -36,36l-205 0c-20,0 -36,-16 -36,-36l0 -204c0,-20 16,-36 36,-36zm347 0l205 0c19,0 36,16 36,36l0 204c0,20 -17,36 -36,36l-205 0c-20,0 -36,-16 -36,-36l0 -204c0,-20 16,-36 36,-36zm347 0l205 0c19,0 36,16 36,36l0 204c0,20 -17,36 -36,36l-205 0c-20,0 -36,-16 -36,-36l0 -204c0,-20 16,-36 36,-36zm347 0l204 0c20,0 36,16 36,36l0 204c0,20 -16,36 -36,36l-204 0c-20,0 -36,-16 -36,-36l0 -204c0,-20 16,-36 36,-36zm347 0l204 0c20,0 36,16 36,36l0 204c0,20 -16,36 -36,36l-204 0c-20,0 -36,-16 -36,-36l0 -204c0,-20 16,-36 36,-36zm347 0l204 0c20,0 36,16 36,36l0 204c0,20 -16,36 -36,36l-204 0c-20,0 -36,-16 -36,-36l0 -204c0,-20 16,-36 36,-36zm-10407 347l205 0c19,0 36,16 36,36l0 204c0,20 -17,36 -36,36l-205 0c-20,0 -36,-16 -36,-36l0 -204c0,-20 16,-36 36,-36zm347 0l205 0c19,0 36,16 36,36l0 204c0,20 -17,36 -36,36l-205 0c-20,0 -36,-16 -36,-36l0 -204c0,-20 16,-36 36,-36zm347 0l204 0c20,0 36,16 36,36l0 204c0,20 -16,36 -36,36l-204 0c-20,0 -36,-16 -36,-36l0 -204c0,-20 16,-36 36,-36zm347 0l204 0c20,0 36,16 36,36l0 204c0,20 -16,36 -36,36l-204 0c-20,0 -36,-16 -36,-36l0 -204c0,-20 16,-36 36,-36zm1387 0l205 0c20,0 36,16 36,36l0 204c0,20 -16,36 -36,36l-205 0c-20,0 -36,-16 -36,-36l0 -204c0,-20 16,-36 36,-36zm347 0l205 0c20,0 36,16 36,36l0 204c0,20 -16,36 -36,36l-205 0c-20,0 -36,-16 -36,-36l0 -204c0,-20 16,-36 36,-36zm347 0l205 0c19,0 36,16 36,36l0 204c0,20 -17,36 -36,36l-205 0c-20,0 -36,-16 -36,-36l0 -204c0,-20 16,-36 36,-36zm347 0l204 0c20,0 36,16 36,36l0 204c0,20 -16,36 -36,36l-204 0c-20,0 -36,-16 -36,-36l0 -204c0,-20 16,-36 36,-36zm347 0l204 0c20,0 36,16 36,36l0 204c0,20 -16,36 -36,36l-204 0c-20,0 -36,-16 -36,-36l0 -204c0,-20 16,-36 36,-36zm347 0l204 0c20,0 36,16 36,36l0 204c0,20 -16,36 -36,36l-204 0c-20,0 -36,-16 -36,-36l0 -204c0,-20 16,-36 36,-36zm347 0l204 0c20,0 36,16 36,36l0 204c0,20 -16,36 -36,36l-204 0c-20,0 -37,-16 -37,-36l0 -204c0,-20 17,-36 37,-36zm346 0l205 0c20,0 36,16 36,36l0 204c0,20 -16,36 -36,36l-205 0c-19,0 -36,-16 -36,-36l0 -204c0,-20 17,-36 36,-36zm347 0l205 0c20,0 36,16 36,36l0 204c0,20 -16,36 -36,36l-205 0c-20,0 -36,-16 -36,-36l0 -204c0,-20 16,-36 36,-36zm347 0l205 0c20,0 36,16 36,36l0 204c0,20 -16,36 -36,36l-205 0c-20,0 -36,-16 -36,-36l0 -204c0,-20 16,-36 36,-36zm347 0l205 0c19,0 36,16 36,36l0 204c0,20 -17,36 -36,36l-205 0c-20,0 -36,-16 -36,-36l0 -204c0,-20 16,-36 36,-36zm347 0l205 0c19,0 36,16 36,36l0 204c0,20 -17,36 -36,36l-205 0c-20,0 -36,-16 -36,-36l0 -204c0,-20 16,-36 36,-36zm347 0l204 0c20,0 36,16 36,36l0 204c0,20 -16,36 -36,36l-204 0c-20,0 -36,-16 -36,-36l0 -204c0,-20 16,-36 36,-36zm347 0l204 0c20,0 36,16 36,36l0 204c0,20 -16,36 -36,36l-204 0c-20,0 -36,-16 -36,-36l0 -204c0,-20 16,-36 36,-36zm347 0l204 0c20,0 36,16 36,36l0 204c0,20 -16,36 -36,36l-204 0c-20,0 -36,-16 -36,-36l0 -204c0,-20 16,-36 36,-36zm346 0l205 0c20,0 36,16 36,36l0 204c0,20 -16,36 -36,36l-205 0c-19,0 -36,-16 -36,-36l0 -204c0,-20 17,-36 36,-36zm347 0l205 0c20,0 36,16 36,36l0 204c0,20 -16,36 -36,36l-205 0c-19,0 -36,-16 -36,-36l0 -204c0,-20 17,-36 36,-36zm347 0l205 0c20,0 36,16 36,36l0 204c0,20 -16,36 -36,36l-205 0c-20,0 -36,-16 -36,-36l0 -204c0,-20 16,-36 36,-36zm347 0l205 0c20,0 36,16 36,36l0 204c0,20 -16,36 -36,36l-205 0c-20,0 -36,-16 -36,-36l0 -204c0,-20 16,-36 36,-36zm347 0l205 0c19,0 36,16 36,36l0 204c0,20 -17,36 -36,36l-205 0c-20,0 -36,-16 -36,-36l0 -204c0,-20 16,-36 36,-36zm347 0l205 0c19,0 36,16 36,36l0 204c0,20 -17,36 -36,36l-205 0c-20,0 -36,-16 -36,-36l0 -204c0,-20 16,-36 36,-36zm-9366 347l205 0c19,0 36,16 36,36l0 204c0,20 -17,36 -36,36l-205 0c-20,0 -36,-16 -36,-36l0 -204c0,-20 16,-36 36,-36zm347 0l205 0c19,0 36,16 36,36l0 204c0,20 -17,36 -36,36l-205 0c-20,0 -36,-16 -36,-36l0 -204c0,-20 16,-36 36,-36zm347 0l204 0c20,0 36,16 36,36l0 204c0,20 -16,36 -36,36l-204 0c-20,0 -36,-16 -36,-36l0 -204c0,-20 16,-36 36,-36zm347 0l204 0c20,0 36,16 36,36l0 204c0,20 -16,36 -36,36l-204 0c-20,0 -36,-16 -36,-36l0 -204c0,-20 16,-36 36,-36zm347 0l204 0c20,0 36,16 36,36l0 204c0,20 -16,36 -36,36l-204 0c-20,0 -36,-16 -36,-36l0 -204c0,-20 16,-36 36,-36zm693 0l205 0c20,0 36,16 36,36l0 204c0,20 -16,36 -36,36l-205 0c-19,0 -36,-16 -36,-36l0 -204c0,-20 17,-36 36,-36zm347 0l205 0c20,0 36,16 36,36l0 204c0,20 -16,36 -36,36l-205 0c-20,0 -36,-16 -36,-36l0 -204c0,-20 16,-36 36,-36zm347 0l205 0c20,0 36,16 36,36l0 204c0,20 -16,36 -36,36l-205 0c-20,0 -36,-16 -36,-36l0 -204c0,-20 16,-36 36,-36zm347 0l205 0c19,0 36,16 36,36l0 204c0,20 -17,36 -36,36l-205 0c-20,0 -36,-16 -36,-36l0 -204c0,-20 16,-36 36,-36zm347 0l204 0c20,0 36,16 36,36l0 204c0,20 -16,36 -36,36l-204 0c-20,0 -36,-16 -36,-36l0 -204c0,-20 16,-36 36,-36zm347 0l204 0c20,0 36,16 36,36l0 204c0,20 -16,36 -36,36l-204 0c-20,0 -36,-16 -36,-36l0 -204c0,-20 16,-36 36,-36zm347 0l204 0c20,0 36,16 36,36l0 204c0,20 -16,36 -36,36l-204 0c-20,0 -36,-16 -36,-36l0 -204c0,-20 16,-36 36,-36zm347 0l204 0c20,0 36,16 36,36l0 204c0,20 -16,36 -36,36l-204 0c-20,0 -37,-16 -37,-36l0 -204c0,-20 17,-36 37,-36zm346 0l205 0c20,0 36,16 36,36l0 204c0,20 -16,36 -36,36l-205 0c-19,0 -36,-16 -36,-36l0 -204c0,-20 17,-36 36,-36zm347 0l205 0c20,0 36,16 36,36l0 204c0,20 -16,36 -36,36l-205 0c-20,0 -36,-16 -36,-36l0 -204c0,-20 16,-36 36,-36zm347 0l205 0c20,0 36,16 36,36l0 204c0,20 -16,36 -36,36l-205 0c-20,0 -36,-16 -36,-36l0 -204c0,-20 16,-36 36,-36zm347 0l205 0c19,0 36,16 36,36l0 204c0,20 -17,36 -36,36l-205 0c-20,0 -36,-16 -36,-36l0 -204c0,-20 16,-36 36,-36zm347 0l205 0c19,0 36,16 36,36l0 204c0,20 -17,36 -36,36l-205 0c-20,0 -36,-16 -36,-36l0 -204c0,-20 16,-36 36,-36zm347 0l204 0c20,0 36,16 36,36l0 204c0,20 -16,36 -36,36l-204 0c-20,0 -36,-16 -36,-36l0 -204c0,-20 16,-36 36,-36zm347 0l204 0c20,0 36,16 36,36l0 204c0,20 -16,36 -36,36l-204 0c-20,0 -36,-16 -36,-36l0 -204c0,-20 16,-36 36,-36zm347 0l204 0c20,0 36,16 36,36l0 204c0,20 -16,36 -36,36l-204 0c-20,0 -36,-16 -36,-36l0 -204c0,-20 16,-36 36,-36zm346 0l205 0c20,0 36,16 36,36l0 204c0,20 -16,36 -36,36l-205 0c-19,0 -36,-16 -36,-36l0 -204c0,-20 17,-36 36,-36zm347 0l205 0c20,0 36,16 36,36l0 204c0,20 -16,36 -36,36l-205 0c-19,0 -36,-16 -36,-36l0 -204c0,-20 17,-36 36,-36zm347 0l205 0c20,0 36,16 36,36l0 204c0,20 -16,36 -36,36l-205 0c-20,0 -36,-16 -36,-36l0 -204c0,-20 16,-36 36,-36zm-8325 346l205 0c19,0 36,17 36,37l0 204c0,20 -17,36 -36,36l-205 0c-20,0 -36,-16 -36,-36l0 -204c0,-20 16,-37 36,-37zm347 0l205 0c19,0 36,17 36,37l0 204c0,20 -17,36 -36,36l-205 0c-20,0 -36,-16 -36,-36l0 -204c0,-20 16,-37 36,-37zm347 0l204 0c20,0 36,17 36,37l0 204c0,20 -16,36 -36,36l-204 0c-20,0 -36,-16 -36,-36l0 -204c0,-20 16,-37 36,-37zm347 0l204 0c20,0 36,17 36,37l0 204c0,20 -16,36 -36,36l-204 0c-20,0 -36,-16 -36,-36l0 -204c0,-20 16,-37 36,-37zm347 0l204 0c20,0 36,17 36,37l0 204c0,20 -16,36 -36,36l-204 0c-20,0 -36,-16 -36,-36l0 -204c0,-20 16,-37 36,-37zm346 0l205 0c20,0 36,17 36,37l0 204c0,20 -16,36 -36,36l-205 0c-19,0 -36,-16 -36,-36l0 -204c0,-20 17,-37 36,-37zm347 0l205 0c20,0 36,17 36,37l0 204c0,20 -16,36 -36,36l-205 0c-19,0 -36,-16 -36,-36l0 -204c0,-20 17,-37 36,-37zm347 0l205 0c20,0 36,17 36,37l0 204c0,20 -16,36 -36,36l-205 0c-20,0 -36,-16 -36,-36l0 -204c0,-20 16,-37 36,-37zm347 0l205 0c20,0 36,17 36,37l0 204c0,20 -16,36 -36,36l-205 0c-20,0 -36,-16 -36,-36l0 -204c0,-20 16,-37 36,-37zm347 0l205 0c19,0 36,17 36,37l0 204c0,20 -17,36 -36,36l-205 0c-20,0 -36,-16 -36,-36l0 -204c0,-20 16,-37 36,-37zm347 0l204 0c20,0 36,17 36,37l0 204c0,20 -16,36 -36,36l-204 0c-20,0 -36,-16 -36,-36l0 -204c0,-20 16,-37 36,-37zm347 0l204 0c20,0 36,17 36,37l0 204c0,20 -16,36 -36,36l-204 0c-20,0 -36,-16 -36,-36l0 -204c0,-20 16,-37 36,-37zm347 0l204 0c20,0 36,17 36,37l0 204c0,20 -16,36 -36,36l-204 0c-20,0 -36,-16 -36,-36l0 -204c0,-20 16,-37 36,-37zm347 0l204 0c20,0 36,17 36,37l0 204c0,20 -16,36 -36,36l-204 0c-20,0 -37,-16 -37,-36l0 -204c0,-20 17,-37 37,-37zm346 0l205 0c20,0 36,17 36,37l0 204c0,20 -16,36 -36,36l-205 0c-19,0 -36,-16 -36,-36l0 -204c0,-20 17,-37 36,-37zm347 0l205 0c20,0 36,17 36,37l0 204c0,20 -16,36 -36,36l-205 0c-20,0 -36,-16 -36,-36l0 -204c0,-20 16,-37 36,-37zm347 0l205 0c20,0 36,17 36,37l0 204c0,20 -16,36 -36,36l-205 0c-20,0 -36,-16 -36,-36l0 -204c0,-20 16,-37 36,-37zm347 0l205 0c19,0 36,17 36,37l0 204c0,20 -17,36 -36,36l-205 0c-20,0 -36,-16 -36,-36l0 -204c0,-20 16,-37 36,-37zm347 0l205 0c19,0 36,17 36,37l0 204c0,20 -17,36 -36,36l-205 0c-20,0 -36,-16 -36,-36l0 -204c0,-20 16,-37 36,-37zm347 0l204 0c20,0 36,17 36,37l0 204c0,20 -16,36 -36,36l-204 0c-20,0 -36,-16 -36,-36l0 -204c0,-20 16,-37 36,-37zm347 0l204 0c20,0 36,17 36,37l0 204c0,20 -16,36 -36,36l-204 0c-20,0 -36,-16 -36,-36l0 -204c0,-20 16,-37 36,-37zm347 0l204 0c20,0 36,17 36,37l0 204c0,20 -16,36 -36,36l-204 0c-20,0 -36,-16 -36,-36l0 -204c0,-20 16,-37 36,-37zm346 0l205 0c20,0 36,17 36,37l0 204c0,20 -16,36 -36,36l-205 0c-19,0 -36,-16 -36,-36l0 -204c0,-20 17,-37 36,-37zm347 0l205 0c20,0 36,17 36,37l0 204c0,20 -16,36 -36,36l-205 0c-19,0 -36,-16 -36,-36l0 -204c0,-20 17,-37 36,-37zm-7978 347l205 0c19,0 36,17 36,36l0 205c0,20 -17,36 -36,36l-205 0c-20,0 -36,-16 -36,-36l0 -205c0,-19 16,-36 36,-36zm347 0l205 0c19,0 36,17 36,36l0 205c0,20 -17,36 -36,36l-205 0c-20,0 -36,-16 -36,-36l0 -205c0,-19 16,-36 36,-36zm347 0l204 0c20,0 36,17 36,36l0 205c0,20 -16,36 -36,36l-204 0c-20,0 -36,-16 -36,-36l0 -205c0,-19 16,-36 36,-36zm347 0l204 0c20,0 36,17 36,36l0 205c0,20 -16,36 -36,36l-204 0c-20,0 -36,-16 -36,-36l0 -205c0,-19 16,-36 36,-36zm347 0l204 0c20,0 36,17 36,36l0 205c0,20 -16,36 -36,36l-204 0c-20,0 -36,-16 -36,-36l0 -205c0,-19 16,-36 36,-36zm346 0l205 0c20,0 36,17 36,36l0 205c0,20 -16,36 -36,36l-205 0c-19,0 -36,-16 -36,-36l0 -205c0,-19 17,-36 36,-36zm347 0l205 0c20,0 36,17 36,36l0 205c0,20 -16,36 -36,36l-205 0c-19,0 -36,-16 -36,-36l0 -205c0,-19 17,-36 36,-36zm347 0l205 0c20,0 36,17 36,36l0 205c0,20 -16,36 -36,36l-205 0c-20,0 -36,-16 -36,-36l0 -205c0,-19 16,-36 36,-36zm347 0l205 0c20,0 36,17 36,36l0 205c0,20 -16,36 -36,36l-205 0c-20,0 -36,-16 -36,-36l0 -205c0,-19 16,-36 36,-36zm347 0l205 0c19,0 36,17 36,36l0 205c0,20 -17,36 -36,36l-205 0c-20,0 -36,-16 -36,-36l0 -205c0,-19 16,-36 36,-36zm347 0l204 0c20,0 36,17 36,36l0 205c0,20 -16,36 -36,36l-204 0c-20,0 -36,-16 -36,-36l0 -205c0,-19 16,-36 36,-36zm347 0l204 0c20,0 36,17 36,36l0 205c0,20 -16,36 -36,36l-204 0c-20,0 -36,-16 -36,-36l0 -205c0,-19 16,-36 36,-36zm347 0l204 0c20,0 36,17 36,36l0 205c0,20 -16,36 -36,36l-204 0c-20,0 -36,-16 -36,-36l0 -205c0,-19 16,-36 36,-36zm347 0l204 0c20,0 36,17 36,36l0 205c0,20 -16,36 -36,36l-204 0c-20,0 -37,-16 -37,-36l0 -205c0,-19 17,-36 37,-36zm346 0l205 0c20,0 36,17 36,36l0 205c0,20 -16,36 -36,36l-205 0c-19,0 -36,-16 -36,-36l0 -205c0,-19 17,-36 36,-36zm347 0l205 0c20,0 36,17 36,36l0 205c0,20 -16,36 -36,36l-205 0c-20,0 -36,-16 -36,-36l0 -205c0,-19 16,-36 36,-36zm347 0l205 0c20,0 36,17 36,36l0 205c0,20 -16,36 -36,36l-205 0c-20,0 -36,-16 -36,-36l0 -205c0,-19 16,-36 36,-36zm347 0l205 0c19,0 36,17 36,36l0 205c0,20 -17,36 -36,36l-205 0c-20,0 -36,-16 -36,-36l0 -205c0,-19 16,-36 36,-36zm347 0l205 0c19,0 36,17 36,36l0 205c0,20 -17,36 -36,36l-205 0c-20,0 -36,-16 -36,-36l0 -205c0,-19 16,-36 36,-36zm347 0l204 0c20,0 36,17 36,36l0 205c0,20 -16,36 -36,36l-204 0c-20,0 -36,-16 -36,-36l0 -205c0,-19 16,-36 36,-36zm347 0l204 0c20,0 36,17 36,36l0 205c0,20 -16,36 -36,36l-204 0c-20,0 -36,-16 -36,-36l0 -205c0,-19 16,-36 36,-36zm347 0l204 0c20,0 36,17 36,36l0 205c0,20 -16,36 -36,36l-204 0c-20,0 -36,-16 -36,-36l0 -205c0,-19 16,-36 36,-36zm346 0l205 0c20,0 36,17 36,36l0 205c0,20 -16,36 -36,36l-205 0c-19,0 -36,-16 -36,-36l0 -205c0,-19 17,-36 36,-36zm-7631 347l205 0c19,0 36,16 36,36l0 205c0,20 -17,36 -36,36l-205 0c-20,0 -36,-16 -36,-36l0 -205c0,-20 16,-36 36,-36zm347 0l205 0c19,0 36,16 36,36l0 205c0,20 -17,36 -36,36l-205 0c-20,0 -36,-16 -36,-36l0 -205c0,-20 16,-36 36,-36zm347 0l204 0c20,0 36,16 36,36l0 205c0,20 -16,36 -36,36l-204 0c-20,0 -36,-16 -36,-36l0 -205c0,-20 16,-36 36,-36zm347 0l204 0c20,0 36,16 36,36l0 205c0,20 -16,36 -36,36l-204 0c-20,0 -36,-16 -36,-36l0 -205c0,-20 16,-36 36,-36zm347 0l204 0c20,0 36,16 36,36l0 205c0,20 -16,36 -36,36l-204 0c-20,0 -36,-16 -36,-36l0 -205c0,-20 16,-36 36,-36zm346 0l205 0c20,0 36,16 36,36l0 205c0,20 -16,36 -36,36l-205 0c-19,0 -36,-16 -36,-36l0 -205c0,-20 17,-36 36,-36zm347 0l205 0c20,0 36,16 36,36l0 205c0,20 -16,36 -36,36l-205 0c-19,0 -36,-16 -36,-36l0 -205c0,-20 17,-36 36,-36zm347 0l205 0c20,0 36,16 36,36l0 205c0,20 -16,36 -36,36l-205 0c-20,0 -36,-16 -36,-36l0 -205c0,-20 16,-36 36,-36zm347 0l205 0c20,0 36,16 36,36l0 205c0,20 -16,36 -36,36l-205 0c-20,0 -36,-16 -36,-36l0 -205c0,-20 16,-36 36,-36zm347 0l205 0c19,0 36,16 36,36l0 205c0,20 -17,36 -36,36l-205 0c-20,0 -36,-16 -36,-36l0 -205c0,-20 16,-36 36,-36zm347 0l204 0c20,0 36,16 36,36l0 205c0,20 -16,36 -36,36l-204 0c-20,0 -36,-16 -36,-36l0 -205c0,-20 16,-36 36,-36zm347 0l204 0c20,0 36,16 36,36l0 205c0,20 -16,36 -36,36l-204 0c-20,0 -36,-16 -36,-36l0 -205c0,-20 16,-36 36,-36zm347 0l204 0c20,0 36,16 36,36l0 205c0,20 -16,36 -36,36l-204 0c-20,0 -36,-16 -36,-36l0 -205c0,-20 16,-36 36,-36zm347 0l204 0c20,0 36,16 36,36l0 205c0,20 -16,36 -36,36l-204 0c-20,0 -37,-16 -37,-36l0 -205c0,-20 17,-36 37,-36zm346 0l205 0c20,0 36,16 36,36l0 205c0,20 -16,36 -36,36l-205 0c-19,0 -36,-16 -36,-36l0 -205c0,-20 17,-36 36,-36zm347 0l205 0c20,0 36,16 36,36l0 205c0,20 -16,36 -36,36l-205 0c-20,0 -36,-16 -36,-36l0 -205c0,-20 16,-36 36,-36zm347 0l205 0c20,0 36,16 36,36l0 205c0,20 -16,36 -36,36l-205 0c-20,0 -36,-16 -36,-36l0 -205c0,-20 16,-36 36,-36zm347 0l205 0c19,0 36,16 36,36l0 205c0,20 -17,36 -36,36l-205 0c-20,0 -36,-16 -36,-36l0 -205c0,-20 16,-36 36,-36zm347 0l205 0c19,0 36,16 36,36l0 205c0,20 -17,36 -36,36l-205 0c-20,0 -36,-16 -36,-36l0 -205c0,-20 16,-36 36,-36zm347 0l204 0c20,0 36,16 36,36l0 205c0,20 -16,36 -36,36l-204 0c-20,0 -36,-16 -36,-36l0 -205c0,-20 16,-36 36,-36zm347 0l204 0c20,0 36,16 36,36l0 205c0,20 -16,36 -36,36l-204 0c-20,0 -36,-16 -36,-36l0 -205c0,-20 16,-36 36,-36zm347 0l204 0c20,0 36,16 36,36l0 205c0,20 -16,36 -36,36l-204 0c-20,0 -36,-16 -36,-36l0 -205c0,-20 16,-36 36,-36zm-7285 347l205 0c19,0 36,16 36,36l0 205c0,20 -17,36 -36,36l-205 0c-20,0 -36,-16 -36,-36l0 -205c0,-20 16,-36 36,-36zm347 0l205 0c19,0 36,16 36,36l0 205c0,20 -17,36 -36,36l-205 0c-20,0 -36,-16 -36,-36l0 -205c0,-20 16,-36 36,-36zm347 0l204 0c20,0 36,16 36,36l0 205c0,20 -16,36 -36,36l-204 0c-20,0 -36,-16 -36,-36l0 -205c0,-20 16,-36 36,-36zm347 0l204 0c20,0 36,16 36,36l0 205c0,20 -16,36 -36,36l-204 0c-20,0 -36,-16 -36,-36l0 -205c0,-20 16,-36 36,-36zm347 0l204 0c20,0 36,16 36,36l0 205c0,20 -16,36 -36,36l-204 0c-20,0 -36,-16 -36,-36l0 -205c0,-20 16,-36 36,-36zm346 0l205 0c20,0 36,16 36,36l0 205c0,20 -16,36 -36,36l-205 0c-19,0 -36,-16 -36,-36l0 -205c0,-20 17,-36 36,-36zm347 0l205 0c20,0 36,16 36,36l0 205c0,20 -16,36 -36,36l-205 0c-19,0 -36,-16 -36,-36l0 -205c0,-20 17,-36 36,-36zm347 0l205 0c20,0 36,16 36,36l0 205c0,20 -16,36 -36,36l-205 0c-20,0 -36,-16 -36,-36l0 -205c0,-20 16,-36 36,-36zm347 0l205 0c20,0 36,16 36,36l0 205c0,20 -16,36 -36,36l-205 0c-20,0 -36,-16 -36,-36l0 -205c0,-20 16,-36 36,-36zm347 0l205 0c19,0 36,16 36,36l0 205c0,20 -17,36 -36,36l-205 0c-20,0 -36,-16 -36,-36l0 -205c0,-20 16,-36 36,-36zm347 0l204 0c20,0 36,16 36,36l0 205c0,20 -16,36 -36,36l-204 0c-20,0 -36,-16 -36,-36l0 -205c0,-20 16,-36 36,-36zm347 0l204 0c20,0 36,16 36,36l0 205c0,20 -16,36 -36,36l-204 0c-20,0 -36,-16 -36,-36l0 -205c0,-20 16,-36 36,-36zm347 0l204 0c20,0 36,16 36,36l0 205c0,20 -16,36 -36,36l-204 0c-20,0 -36,-16 -36,-36l0 -205c0,-20 16,-36 36,-36zm347 0l204 0c20,0 36,16 36,36l0 205c0,20 -16,36 -36,36l-204 0c-20,0 -37,-16 -37,-36l0 -205c0,-20 17,-36 37,-36zm346 0l205 0c20,0 36,16 36,36l0 205c0,20 -16,36 -36,36l-205 0c-19,0 -36,-16 -36,-36l0 -205c0,-20 17,-36 36,-36zm347 0l205 0c20,0 36,16 36,36l0 205c0,20 -16,36 -36,36l-205 0c-20,0 -36,-16 -36,-36l0 -205c0,-20 16,-36 36,-36zm347 0l205 0c20,0 36,16 36,36l0 205c0,20 -16,36 -36,36l-205 0c-20,0 -36,-16 -36,-36l0 -205c0,-20 16,-36 36,-36zm347 0l205 0c19,0 36,16 36,36l0 205c0,20 -17,36 -36,36l-205 0c-20,0 -36,-16 -36,-36l0 -205c0,-20 16,-36 36,-36zm347 0l205 0c19,0 36,16 36,36l0 205c0,20 -17,36 -36,36l-205 0c-20,0 -36,-16 -36,-36l0 -205c0,-20 16,-36 36,-36zm347 0l204 0c20,0 36,16 36,36l0 205c0,20 -16,36 -36,36l-204 0c-20,0 -36,-16 -36,-36l0 -205c0,-20 16,-36 36,-36zm347 0l204 0c20,0 36,16 36,36l0 205c0,20 -16,36 -36,36l-204 0c-20,0 -36,-16 -36,-36l0 -205c0,-20 16,-36 36,-36zm347 0l204 0c20,0 36,16 36,36l0 205c0,20 -16,36 -36,36l-204 0c-20,0 -36,-16 -36,-36l0 -205c0,-20 16,-36 36,-36zm-6591 347l204 0c20,0 36,16 36,36l0 205c0,19 -16,36 -36,36l-204 0c-20,0 -36,-17 -36,-36l0 -205c0,-20 16,-36 36,-36zm347 0l204 0c20,0 36,16 36,36l0 205c0,19 -16,36 -36,36l-204 0c-20,0 -36,-17 -36,-36l0 -205c0,-20 16,-36 36,-36zm347 0l204 0c20,0 36,16 36,36l0 205c0,19 -16,36 -36,36l-204 0c-20,0 -36,-17 -36,-36l0 -205c0,-20 16,-36 36,-36zm346 0l205 0c20,0 36,16 36,36l0 205c0,19 -16,36 -36,36l-205 0c-19,0 -36,-17 -36,-36l0 -205c0,-20 17,-36 36,-36zm347 0l205 0c20,0 36,16 36,36l0 205c0,19 -16,36 -36,36l-205 0c-19,0 -36,-17 -36,-36l0 -205c0,-20 17,-36 36,-36zm347 0l205 0c20,0 36,16 36,36l0 205c0,19 -16,36 -36,36l-205 0c-20,0 -36,-17 -36,-36l0 -205c0,-20 16,-36 36,-36zm347 0l205 0c20,0 36,16 36,36l0 205c0,19 -16,36 -36,36l-205 0c-20,0 -36,-17 -36,-36l0 -205c0,-20 16,-36 36,-36zm347 0l205 0c19,0 36,16 36,36l0 205c0,19 -17,36 -36,36l-205 0c-20,0 -36,-17 -36,-36l0 -205c0,-20 16,-36 36,-36zm347 0l204 0c20,0 36,16 36,36l0 205c0,19 -16,36 -36,36l-204 0c-20,0 -36,-17 -36,-36l0 -205c0,-20 16,-36 36,-36zm347 0l204 0c20,0 36,16 36,36l0 205c0,19 -16,36 -36,36l-204 0c-20,0 -36,-17 -36,-36l0 -205c0,-20 16,-36 36,-36zm347 0l204 0c20,0 36,16 36,36l0 205c0,19 -16,36 -36,36l-204 0c-20,0 -36,-17 -36,-36l0 -205c0,-20 16,-36 36,-36zm347 0l204 0c20,0 36,16 36,36l0 205c0,19 -16,36 -36,36l-204 0c-20,0 -37,-17 -37,-36l0 -205c0,-20 17,-36 37,-36zm346 0l205 0c20,0 36,16 36,36l0 205c0,19 -16,36 -36,36l-205 0c-19,0 -36,-17 -36,-36l0 -205c0,-20 17,-36 36,-36zm347 0l205 0c20,0 36,16 36,36l0 205c0,19 -16,36 -36,36l-205 0c-20,0 -36,-17 -36,-36l0 -205c0,-20 16,-36 36,-36zm347 0l205 0c20,0 36,16 36,36l0 205c0,19 -16,36 -36,36l-205 0c-20,0 -36,-17 -36,-36l0 -205c0,-20 16,-36 36,-36zm347 0l205 0c19,0 36,16 36,36l0 205c0,19 -17,36 -36,36l-205 0c-20,0 -36,-17 -36,-36l0 -205c0,-20 16,-36 36,-36zm347 0l205 0c19,0 36,16 36,36l0 205c0,19 -17,36 -36,36l-205 0c-20,0 -36,-17 -36,-36l0 -205c0,-20 16,-36 36,-36zm347 0l204 0c20,0 36,16 36,36l0 205c0,19 -16,36 -36,36l-204 0c-20,0 -36,-17 -36,-36l0 -205c0,-20 16,-36 36,-36zm347 0l204 0c20,0 36,16 36,36l0 205c0,19 -16,36 -36,36l-204 0c-20,0 -36,-17 -36,-36l0 -205c0,-20 16,-36 36,-36zm347 0l204 0c20,0 36,16 36,36l0 205c0,19 -16,36 -36,36l-204 0c-20,0 -36,-17 -36,-36l0 -205c0,-20 16,-36 36,-36zm-6244 347l204 0c20,0 36,16 36,36l0 205c0,19 -16,36 -36,36l-204 0c-20,0 -36,-17 -36,-36l0 -205c0,-20 16,-36 36,-36zm347 0l204 0c20,0 36,16 36,36l0 205c0,19 -16,36 -36,36l-204 0c-20,0 -36,-17 -36,-36l0 -205c0,-20 16,-36 36,-36zm346 0l205 0c20,0 36,16 36,36l0 205c0,19 -16,36 -36,36l-205 0c-19,0 -36,-17 -36,-36l0 -205c0,-20 17,-36 36,-36zm347 0l205 0c20,0 36,16 36,36l0 205c0,19 -16,36 -36,36l-205 0c-19,0 -36,-17 -36,-36l0 -205c0,-20 17,-36 36,-36zm347 0l205 0c20,0 36,16 36,36l0 205c0,19 -16,36 -36,36l-205 0c-20,0 -36,-17 -36,-36l0 -205c0,-20 16,-36 36,-36zm347 0l205 0c20,0 36,16 36,36l0 205c0,19 -16,36 -36,36l-205 0c-20,0 -36,-17 -36,-36l0 -205c0,-20 16,-36 36,-36zm347 0l205 0c19,0 36,16 36,36l0 205c0,19 -17,36 -36,36l-205 0c-20,0 -36,-17 -36,-36l0 -205c0,-20 16,-36 36,-36zm347 0l204 0c20,0 36,16 36,36l0 205c0,19 -16,36 -36,36l-204 0c-20,0 -36,-17 -36,-36l0 -205c0,-20 16,-36 36,-36zm347 0l204 0c20,0 36,16 36,36l0 205c0,19 -16,36 -36,36l-204 0c-20,0 -36,-17 -36,-36l0 -205c0,-20 16,-36 36,-36zm347 0l204 0c20,0 36,16 36,36l0 205c0,19 -16,36 -36,36l-204 0c-20,0 -36,-17 -36,-36l0 -205c0,-20 16,-36 36,-36zm347 0l204 0c20,0 36,16 36,36l0 205c0,19 -16,36 -36,36l-204 0c-20,0 -37,-17 -37,-36l0 -205c0,-20 17,-36 37,-36zm346 0l205 0c20,0 36,16 36,36l0 205c0,19 -16,36 -36,36l-205 0c-19,0 -36,-17 -36,-36l0 -205c0,-20 17,-36 36,-36zm347 0l205 0c20,0 36,16 36,36l0 205c0,19 -16,36 -36,36l-205 0c-20,0 -36,-17 -36,-36l0 -205c0,-20 16,-36 36,-36zm347 0l205 0c20,0 36,16 36,36l0 205c0,19 -16,36 -36,36l-205 0c-20,0 -36,-17 -36,-36l0 -205c0,-20 16,-36 36,-36zm347 0l205 0c19,0 36,16 36,36l0 205c0,19 -17,36 -36,36l-205 0c-20,0 -36,-17 -36,-36l0 -205c0,-20 16,-36 36,-36zm347 0l205 0c19,0 36,16 36,36l0 205c0,19 -17,36 -36,36l-205 0c-20,0 -36,-17 -36,-36l0 -205c0,-20 16,-36 36,-36zm347 0l204 0c20,0 36,16 36,36l0 205c0,19 -16,36 -36,36l-204 0c-20,0 -36,-17 -36,-36l0 -205c0,-20 16,-36 36,-36zm347 0l204 0c20,0 36,16 36,36l0 205c0,19 -16,36 -36,36l-204 0c-20,0 -36,-17 -36,-36l0 -205c0,-20 16,-36 36,-36zm-5550 347l204 0c20,0 36,16 36,36l0 204c0,20 -16,36 -36,36l-204 0c-20,0 -36,-16 -36,-36l0 -204c0,-20 16,-36 36,-36zm346 0l205 0c20,0 36,16 36,36l0 204c0,20 -16,36 -36,36l-205 0c-19,0 -36,-16 -36,-36l0 -204c0,-20 17,-36 36,-36zm347 0l205 0c20,0 36,16 36,36l0 204c0,20 -16,36 -36,36l-205 0c-19,0 -36,-16 -36,-36l0 -204c0,-20 17,-36 36,-36zm347 0l205 0c20,0 36,16 36,36l0 204c0,20 -16,36 -36,36l-205 0c-20,0 -36,-16 -36,-36l0 -204c0,-20 16,-36 36,-36zm347 0l205 0c20,0 36,16 36,36l0 204c0,20 -16,36 -36,36l-205 0c-20,0 -36,-16 -36,-36l0 -204c0,-20 16,-36 36,-36zm347 0l205 0c19,0 36,16 36,36l0 204c0,20 -17,36 -36,36l-205 0c-20,0 -36,-16 -36,-36l0 -204c0,-20 16,-36 36,-36zm347 0l204 0c20,0 36,16 36,36l0 204c0,20 -16,36 -36,36l-204 0c-20,0 -36,-16 -36,-36l0 -204c0,-20 16,-36 36,-36zm347 0l204 0c20,0 36,16 36,36l0 204c0,20 -16,36 -36,36l-204 0c-20,0 -36,-16 -36,-36l0 -204c0,-20 16,-36 36,-36zm347 0l204 0c20,0 36,16 36,36l0 204c0,20 -16,36 -36,36l-204 0c-20,0 -36,-16 -36,-36l0 -204c0,-20 16,-36 36,-36zm347 0l204 0c20,0 36,16 36,36l0 204c0,20 -16,36 -36,36l-204 0c-20,0 -37,-16 -37,-36l0 -204c0,-20 17,-36 37,-36zm346 0l205 0c20,0 36,16 36,36l0 204c0,20 -16,36 -36,36l-205 0c-19,0 -36,-16 -36,-36l0 -204c0,-20 17,-36 36,-36zm347 0l205 0c20,0 36,16 36,36l0 204c0,20 -16,36 -36,36l-205 0c-20,0 -36,-16 -36,-36l0 -204c0,-20 16,-36 36,-36zm347 0l205 0c20,0 36,16 36,36l0 204c0,20 -16,36 -36,36l-205 0c-20,0 -36,-16 -36,-36l0 -204c0,-20 16,-36 36,-36zm347 0l205 0c19,0 36,16 36,36l0 204c0,20 -17,36 -36,36l-205 0c-20,0 -36,-16 -36,-36l0 -204c0,-20 16,-36 36,-36zm347 0l205 0c19,0 36,16 36,36l0 204c0,20 -17,36 -36,36l-205 0c-20,0 -36,-16 -36,-36l0 -204c0,-20 16,-36 36,-36zm347 0l204 0c20,0 36,16 36,36l0 204c0,20 -16,36 -36,36l-204 0c-20,0 -36,-16 -36,-36l0 -204c0,-20 16,-36 36,-36zm347 0l204 0c20,0 36,16 36,36l0 204c0,20 -16,36 -36,36l-204 0c-20,0 -36,-16 -36,-36l0 -204c0,-20 16,-36 36,-36zm-5550 347l204 0c20,0 36,16 36,36l0 204c0,20 -16,36 -36,36l-204 0c-20,0 -36,-16 -36,-36l0 -204c0,-20 16,-36 36,-36zm346 0l205 0c20,0 36,16 36,36l0 204c0,20 -16,36 -36,36l-205 0c-19,0 -36,-16 -36,-36l0 -204c0,-20 17,-36 36,-36zm347 0l205 0c20,0 36,16 36,36l0 204c0,20 -16,36 -36,36l-205 0c-19,0 -36,-16 -36,-36l0 -204c0,-20 17,-36 36,-36zm347 0l205 0c20,0 36,16 36,36l0 204c0,20 -16,36 -36,36l-205 0c-20,0 -36,-16 -36,-36l0 -204c0,-20 16,-36 36,-36zm347 0l205 0c20,0 36,16 36,36l0 204c0,20 -16,36 -36,36l-205 0c-20,0 -36,-16 -36,-36l0 -204c0,-20 16,-36 36,-36zm347 0l205 0c19,0 36,16 36,36l0 204c0,20 -17,36 -36,36l-205 0c-20,0 -36,-16 -36,-36l0 -204c0,-20 16,-36 36,-36zm347 0l204 0c20,0 36,16 36,36l0 204c0,20 -16,36 -36,36l-204 0c-20,0 -36,-16 -36,-36l0 -204c0,-20 16,-36 36,-36zm347 0l204 0c20,0 36,16 36,36l0 204c0,20 -16,36 -36,36l-204 0c-20,0 -36,-16 -36,-36l0 -204c0,-20 16,-36 36,-36zm347 0l204 0c20,0 36,16 36,36l0 204c0,20 -16,36 -36,36l-204 0c-20,0 -36,-16 -36,-36l0 -204c0,-20 16,-36 36,-36zm347 0l204 0c20,0 36,16 36,36l0 204c0,20 -16,36 -36,36l-204 0c-20,0 -37,-16 -37,-36l0 -204c0,-20 17,-36 37,-36zm346 0l205 0c20,0 36,16 36,36l0 204c0,20 -16,36 -36,36l-205 0c-19,0 -36,-16 -36,-36l0 -204c0,-20 17,-36 36,-36zm347 0l205 0c20,0 36,16 36,36l0 204c0,20 -16,36 -36,36l-205 0c-20,0 -36,-16 -36,-36l0 -204c0,-20 16,-36 36,-36zm347 0l205 0c20,0 36,16 36,36l0 204c0,20 -16,36 -36,36l-205 0c-20,0 -36,-16 -36,-36l0 -204c0,-20 16,-36 36,-36zm347 0l205 0c19,0 36,16 36,36l0 204c0,20 -17,36 -36,36l-205 0c-20,0 -36,-16 -36,-36l0 -204c0,-20 16,-36 36,-36zm347 0l205 0c19,0 36,16 36,36l0 204c0,20 -17,36 -36,36l-205 0c-20,0 -36,-16 -36,-36l0 -204c0,-20 16,-36 36,-36zm347 0l204 0c20,0 36,16 36,36l0 204c0,20 -16,36 -36,36l-204 0c-20,0 -36,-16 -36,-36l0 -204c0,-20 16,-36 36,-36zm-4857 347l205 0c20,0 36,16 36,36l0 204c0,20 -16,36 -36,36l-205 0c-19,0 -36,-16 -36,-36l0 -204c0,-20 17,-36 36,-36zm347 0l205 0c20,0 36,16 36,36l0 204c0,20 -16,36 -36,36l-205 0c-19,0 -36,-16 -36,-36l0 -204c0,-20 17,-36 36,-36zm347 0l205 0c20,0 36,16 36,36l0 204c0,20 -16,36 -36,36l-205 0c-20,0 -36,-16 -36,-36l0 -204c0,-20 16,-36 36,-36zm347 0l205 0c20,0 36,16 36,36l0 204c0,20 -16,36 -36,36l-205 0c-20,0 -36,-16 -36,-36l0 -204c0,-20 16,-36 36,-36zm347 0l205 0c19,0 36,16 36,36l0 204c0,20 -17,36 -36,36l-205 0c-20,0 -36,-16 -36,-36l0 -204c0,-20 16,-36 36,-36zm347 0l204 0c20,0 36,16 36,36l0 204c0,20 -16,36 -36,36l-204 0c-20,0 -36,-16 -36,-36l0 -204c0,-20 16,-36 36,-36zm347 0l204 0c20,0 36,16 36,36l0 204c0,20 -16,36 -36,36l-204 0c-20,0 -36,-16 -36,-36l0 -204c0,-20 16,-36 36,-36zm347 0l204 0c20,0 36,16 36,36l0 204c0,20 -16,36 -36,36l-204 0c-20,0 -36,-16 -36,-36l0 -204c0,-20 16,-36 36,-36zm347 0l204 0c20,0 36,16 36,36l0 204c0,20 -16,36 -36,36l-204 0c-20,0 -37,-16 -37,-36l0 -204c0,-20 17,-36 37,-36zm346 0l205 0c20,0 36,16 36,36l0 204c0,20 -16,36 -36,36l-205 0c-19,0 -36,-16 -36,-36l0 -204c0,-20 17,-36 36,-36zm347 0l205 0c20,0 36,16 36,36l0 204c0,20 -16,36 -36,36l-205 0c-20,0 -36,-16 -36,-36l0 -204c0,-20 16,-36 36,-36zm347 0l205 0c20,0 36,16 36,36l0 204c0,20 -16,36 -36,36l-205 0c-20,0 -36,-16 -36,-36l0 -204c0,-20 16,-36 36,-36zm347 0l205 0c19,0 36,16 36,36l0 204c0,20 -17,36 -36,36l-205 0c-20,0 -36,-16 -36,-36l0 -204c0,-20 16,-36 36,-36zm347 0l205 0c19,0 36,16 36,36l0 204c0,20 -17,36 -36,36l-205 0c-20,0 -36,-16 -36,-36l0 -204c0,-20 16,-36 36,-36zm347 0l204 0c20,0 36,16 36,36l0 204c0,20 -16,36 -36,36l-204 0c-20,0 -36,-16 -36,-36l0 -204c0,-20 16,-36 36,-36zm347 0l204 0c20,0 36,16 36,36l0 204c0,20 -16,36 -36,36l-204 0c-20,0 -36,-16 -36,-36l0 -204c0,-20 16,-36 36,-36zm-4857 346l205 0c20,0 36,17 36,36l0 205c0,20 -16,36 -36,36l-205 0c-19,0 -36,-16 -36,-36l0 -205c0,-19 17,-36 36,-36zm347 0l205 0c20,0 36,17 36,36l0 205c0,20 -16,36 -36,36l-205 0c-20,0 -36,-16 -36,-36l0 -205c0,-19 16,-36 36,-36zm347 0l205 0c20,0 36,17 36,36l0 205c0,20 -16,36 -36,36l-205 0c-20,0 -36,-16 -36,-36l0 -205c0,-19 16,-36 36,-36zm347 0l205 0c19,0 36,17 36,36l0 205c0,20 -17,36 -36,36l-205 0c-20,0 -36,-16 -36,-36l0 -205c0,-19 16,-36 36,-36zm347 0l204 0c20,0 36,17 36,36l0 205c0,20 -16,36 -36,36l-204 0c-20,0 -36,-16 -36,-36l0 -205c0,-19 16,-36 36,-36zm347 0l204 0c20,0 36,17 36,36l0 205c0,20 -16,36 -36,36l-204 0c-20,0 -36,-16 -36,-36l0 -205c0,-19 16,-36 36,-36zm347 0l204 0c20,0 36,17 36,36l0 205c0,20 -16,36 -36,36l-204 0c-20,0 -36,-16 -36,-36l0 -205c0,-19 16,-36 36,-36zm347 0l204 0c20,0 36,17 36,36l0 205c0,20 -16,36 -36,36l-204 0c-20,0 -37,-16 -37,-36l0 -205c0,-19 17,-36 37,-36zm346 0l205 0c20,0 36,17 36,36l0 205c0,20 -16,36 -36,36l-205 0c-19,0 -36,-16 -36,-36l0 -205c0,-19 17,-36 36,-36zm347 0l205 0c20,0 36,17 36,36l0 205c0,20 -16,36 -36,36l-205 0c-20,0 -36,-16 -36,-36l0 -205c0,-19 16,-36 36,-36zm347 0l205 0c20,0 36,17 36,36l0 205c0,20 -16,36 -36,36l-205 0c-20,0 -36,-16 -36,-36l0 -205c0,-19 16,-36 36,-36zm347 0l205 0c19,0 36,17 36,36l0 205c0,20 -17,36 -36,36l-205 0c-20,0 -36,-16 -36,-36l0 -205c0,-19 16,-36 36,-36zm347 0l205 0c19,0 36,17 36,36l0 205c0,20 -17,36 -36,36l-205 0c-20,0 -36,-16 -36,-36l0 -205c0,-19 16,-36 36,-36zm347 0l204 0c20,0 36,17 36,36l0 205c0,20 -16,36 -36,36l-204 0c-20,0 -36,-16 -36,-36l0 -205c0,-19 16,-36 36,-36zm347 0l204 0c20,0 36,17 36,36l0 205c0,20 -16,36 -36,36l-204 0c-20,0 -36,-16 -36,-36l0 -205c0,-19 16,-36 36,-36zm347 0l204 0c20,0 36,17 36,36l0 205c0,20 -16,36 -36,36l-204 0c-20,0 -36,-16 -36,-36l0 -205c0,-19 16,-36 36,-36zm-5204 347l205 0c20,0 36,17 36,36l0 205c0,20 -16,36 -36,36l-205 0c-19,0 -36,-16 -36,-36l0 -205c0,-19 17,-36 36,-36zm347 0l205 0c20,0 36,17 36,36l0 205c0,20 -16,36 -36,36l-205 0c-20,0 -36,-16 -36,-36l0 -205c0,-19 16,-36 36,-36zm347 0l205 0c20,0 36,17 36,36l0 205c0,20 -16,36 -36,36l-205 0c-20,0 -36,-16 -36,-36l0 -205c0,-19 16,-36 36,-36zm347 0l205 0c19,0 36,17 36,36l0 205c0,20 -17,36 -36,36l-205 0c-20,0 -36,-16 -36,-36l0 -205c0,-19 16,-36 36,-36zm347 0l204 0c20,0 36,17 36,36l0 205c0,20 -16,36 -36,36l-204 0c-20,0 -36,-16 -36,-36l0 -205c0,-19 16,-36 36,-36zm347 0l204 0c20,0 36,17 36,36l0 205c0,20 -16,36 -36,36l-204 0c-20,0 -36,-16 -36,-36l0 -205c0,-19 16,-36 36,-36zm347 0l204 0c20,0 36,17 36,36l0 205c0,20 -16,36 -36,36l-204 0c-20,0 -36,-16 -36,-36l0 -205c0,-19 16,-36 36,-36zm347 0l204 0c20,0 36,17 36,36l0 205c0,20 -16,36 -36,36l-204 0c-20,0 -37,-16 -37,-36l0 -205c0,-19 17,-36 37,-36zm346 0l205 0c20,0 36,17 36,36l0 205c0,20 -16,36 -36,36l-205 0c-19,0 -36,-16 -36,-36l0 -205c0,-19 17,-36 36,-36zm347 0l205 0c20,0 36,17 36,36l0 205c0,20 -16,36 -36,36l-205 0c-20,0 -36,-16 -36,-36l0 -205c0,-19 16,-36 36,-36zm347 0l205 0c20,0 36,17 36,36l0 205c0,20 -16,36 -36,36l-205 0c-20,0 -36,-16 -36,-36l0 -205c0,-19 16,-36 36,-36zm347 0l205 0c19,0 36,17 36,36l0 205c0,20 -17,36 -36,36l-205 0c-20,0 -36,-16 -36,-36l0 -205c0,-19 16,-36 36,-36zm347 0l205 0c19,0 36,17 36,36l0 205c0,20 -17,36 -36,36l-205 0c-20,0 -36,-16 -36,-36l0 -205c0,-19 16,-36 36,-36zm347 0l204 0c20,0 36,17 36,36l0 205c0,20 -16,36 -36,36l-204 0c-20,0 -36,-16 -36,-36l0 -205c0,-19 16,-36 36,-36zm347 0l204 0c20,0 36,17 36,36l0 205c0,20 -16,36 -36,36l-204 0c-20,0 -36,-16 -36,-36l0 -205c0,-19 16,-36 36,-36zm347 0l204 0c20,0 36,17 36,36l0 205c0,20 -16,36 -36,36l-204 0c-20,0 -36,-16 -36,-36l0 -205c0,-19 16,-36 36,-36zm-4857 347l205 0c20,0 36,16 36,36l0 205c0,20 -16,36 -36,36l-205 0c-20,0 -36,-16 -36,-36l0 -205c0,-20 16,-36 36,-36zm347 0l205 0c20,0 36,16 36,36l0 205c0,20 -16,36 -36,36l-205 0c-20,0 -36,-16 -36,-36l0 -205c0,-20 16,-36 36,-36zm347 0l205 0c19,0 36,16 36,36l0 205c0,20 -17,36 -36,36l-205 0c-20,0 -36,-16 -36,-36l0 -205c0,-20 16,-36 36,-36zm347 0l204 0c20,0 36,16 36,36l0 205c0,20 -16,36 -36,36l-204 0c-20,0 -36,-16 -36,-36l0 -205c0,-20 16,-36 36,-36zm347 0l204 0c20,0 36,16 36,36l0 205c0,20 -16,36 -36,36l-204 0c-20,0 -36,-16 -36,-36l0 -205c0,-20 16,-36 36,-36zm347 0l204 0c20,0 36,16 36,36l0 205c0,20 -16,36 -36,36l-204 0c-20,0 -36,-16 -36,-36l0 -205c0,-20 16,-36 36,-36zm347 0l204 0c20,0 36,16 36,36l0 205c0,20 -16,36 -36,36l-204 0c-20,0 -37,-16 -37,-36l0 -205c0,-20 17,-36 37,-36zm346 0l205 0c20,0 36,16 36,36l0 205c0,20 -16,36 -36,36l-205 0c-19,0 -36,-16 -36,-36l0 -205c0,-20 17,-36 36,-36zm347 0l205 0c20,0 36,16 36,36l0 205c0,20 -16,36 -36,36l-205 0c-20,0 -36,-16 -36,-36l0 -205c0,-20 16,-36 36,-36zm347 0l205 0c20,0 36,16 36,36l0 205c0,20 -16,36 -36,36l-205 0c-20,0 -36,-16 -36,-36l0 -205c0,-20 16,-36 36,-36zm347 0l205 0c19,0 36,16 36,36l0 205c0,20 -17,36 -36,36l-205 0c-20,0 -36,-16 -36,-36l0 -205c0,-20 16,-36 36,-36zm347 0l205 0c19,0 36,16 36,36l0 205c0,20 -17,36 -36,36l-205 0c-20,0 -36,-16 -36,-36l0 -205c0,-20 16,-36 36,-36zm347 0l204 0c20,0 36,16 36,36l0 205c0,20 -16,36 -36,36l-204 0c-20,0 -36,-16 -36,-36l0 -205c0,-20 16,-36 36,-36zm347 0l204 0c20,0 36,16 36,36l0 205c0,20 -16,36 -36,36l-204 0c-20,0 -36,-16 -36,-36l0 -205c0,-20 16,-36 36,-36zm347 0l204 0c20,0 36,16 36,36l0 205c0,20 -16,36 -36,36l-204 0c-20,0 -36,-16 -36,-36l0 -205c0,-20 16,-36 36,-36zm346 0l205 0c20,0 36,16 36,36l0 205c0,20 -16,36 -36,36l-205 0c-19,0 -36,-16 -36,-36l0 -205c0,-20 17,-36 36,-36zm-5203 347l205 0c20,0 36,16 36,36l0 205c0,20 -16,36 -36,36l-205 0c-20,0 -36,-16 -36,-36l0 -205c0,-20 16,-36 36,-36zm347 0l205 0c20,0 36,16 36,36l0 205c0,20 -16,36 -36,36l-205 0c-20,0 -36,-16 -36,-36l0 -205c0,-20 16,-36 36,-36zm347 0l205 0c19,0 36,16 36,36l0 205c0,20 -17,36 -36,36l-205 0c-20,0 -36,-16 -36,-36l0 -205c0,-20 16,-36 36,-36zm347 0l204 0c20,0 36,16 36,36l0 205c0,20 -16,36 -36,36l-204 0c-20,0 -36,-16 -36,-36l0 -205c0,-20 16,-36 36,-36zm347 0l204 0c20,0 36,16 36,36l0 205c0,20 -16,36 -36,36l-204 0c-20,0 -36,-16 -36,-36l0 -205c0,-20 16,-36 36,-36zm347 0l204 0c20,0 36,16 36,36l0 205c0,20 -16,36 -36,36l-204 0c-20,0 -36,-16 -36,-36l0 -205c0,-20 16,-36 36,-36zm347 0l204 0c20,0 36,16 36,36l0 205c0,20 -16,36 -36,36l-204 0c-20,0 -37,-16 -37,-36l0 -205c0,-20 17,-36 37,-36zm346 0l205 0c20,0 36,16 36,36l0 205c0,20 -16,36 -36,36l-205 0c-19,0 -36,-16 -36,-36l0 -205c0,-20 17,-36 36,-36zm347 0l205 0c20,0 36,16 36,36l0 205c0,20 -16,36 -36,36l-205 0c-20,0 -36,-16 -36,-36l0 -205c0,-20 16,-36 36,-36zm347 0l205 0c20,0 36,16 36,36l0 205c0,20 -16,36 -36,36l-205 0c-20,0 -36,-16 -36,-36l0 -205c0,-20 16,-36 36,-36zm347 0l205 0c19,0 36,16 36,36l0 205c0,20 -17,36 -36,36l-205 0c-20,0 -36,-16 -36,-36l0 -205c0,-20 16,-36 36,-36zm347 0l205 0c19,0 36,16 36,36l0 205c0,20 -17,36 -36,36l-205 0c-20,0 -36,-16 -36,-36l0 -205c0,-20 16,-36 36,-36zm347 0l204 0c20,0 36,16 36,36l0 205c0,20 -16,36 -36,36l-204 0c-20,0 -36,-16 -36,-36l0 -205c0,-20 16,-36 36,-36zm347 0l204 0c20,0 36,16 36,36l0 205c0,20 -16,36 -36,36l-204 0c-20,0 -36,-16 -36,-36l0 -205c0,-20 16,-36 36,-36zm347 0l204 0c20,0 36,16 36,36l0 205c0,20 -16,36 -36,36l-204 0c-20,0 -36,-16 -36,-36l0 -205c0,-20 16,-36 36,-36zm346 0l205 0c20,0 36,16 36,36l0 205c0,20 -16,36 -36,36l-205 0c-19,0 -36,-16 -36,-36l0 -205c0,-20 17,-36 36,-36zm347 0l205 0c20,0 36,16 36,36l0 205c0,20 -16,36 -36,36l-205 0c-19,0 -36,-16 -36,-36l0 -205c0,-20 17,-36 36,-36zm-5203 347l205 0c20,0 36,16 36,36l0 205c0,19 -16,36 -36,36l-205 0c-20,0 -36,-17 -36,-36l0 -205c0,-20 16,-36 36,-36zm347 0l205 0c19,0 36,16 36,36l0 205c0,19 -17,36 -36,36l-205 0c-20,0 -36,-17 -36,-36l0 -205c0,-20 16,-36 36,-36zm347 0l204 0c20,0 36,16 36,36l0 205c0,19 -16,36 -36,36l-204 0c-20,0 -36,-17 -36,-36l0 -205c0,-20 16,-36 36,-36zm347 0l204 0c20,0 36,16 36,36l0 205c0,19 -16,36 -36,36l-204 0c-20,0 -36,-17 -36,-36l0 -205c0,-20 16,-36 36,-36zm347 0l204 0c20,0 36,16 36,36l0 205c0,19 -16,36 -36,36l-204 0c-20,0 -36,-17 -36,-36l0 -205c0,-20 16,-36 36,-36zm347 0l204 0c20,0 36,16 36,36l0 205c0,19 -16,36 -36,36l-204 0c-20,0 -37,-17 -37,-36l0 -205c0,-20 17,-36 37,-36zm346 0l205 0c20,0 36,16 36,36l0 205c0,19 -16,36 -36,36l-205 0c-19,0 -36,-17 -36,-36l0 -205c0,-20 17,-36 36,-36zm347 0l205 0c20,0 36,16 36,36l0 205c0,19 -16,36 -36,36l-205 0c-20,0 -36,-17 -36,-36l0 -205c0,-20 16,-36 36,-36zm347 0l205 0c20,0 36,16 36,36l0 205c0,19 -16,36 -36,36l-205 0c-20,0 -36,-17 -36,-36l0 -205c0,-20 16,-36 36,-36zm347 0l205 0c19,0 36,16 36,36l0 205c0,19 -17,36 -36,36l-205 0c-20,0 -36,-17 -36,-36l0 -205c0,-20 16,-36 36,-36zm347 0l205 0c19,0 36,16 36,36l0 205c0,19 -17,36 -36,36l-205 0c-20,0 -36,-17 -36,-36l0 -205c0,-20 16,-36 36,-36zm347 0l204 0c20,0 36,16 36,36l0 205c0,19 -16,36 -36,36l-204 0c-20,0 -36,-17 -36,-36l0 -205c0,-20 16,-36 36,-36zm347 0l204 0c20,0 36,16 36,36l0 205c0,19 -16,36 -36,36l-204 0c-20,0 -36,-17 -36,-36l0 -205c0,-20 16,-36 36,-36zm347 0l204 0c20,0 36,16 36,36l0 205c0,19 -16,36 -36,36l-204 0c-20,0 -36,-17 -36,-36l0 -205c0,-20 16,-36 36,-36zm346 0l205 0c20,0 36,16 36,36l0 205c0,19 -16,36 -36,36l-205 0c-19,0 -36,-17 -36,-36l0 -205c0,-20 17,-36 36,-36zm347 0l205 0c20,0 36,16 36,36l0 205c0,19 -16,36 -36,36l-205 0c-19,0 -36,-17 -36,-36l0 -205c0,-20 17,-36 36,-36zm347 0l205 0c20,0 36,16 36,36l0 205c0,19 -16,36 -36,36l-205 0c-20,0 -36,-17 -36,-36l0 -205c0,-20 16,-36 36,-36zm1041 0l205 0c19,0 36,16 36,36l0 205c0,19 -17,36 -36,36l-205 0c-20,0 -36,-17 -36,-36l0 -205c0,-20 16,-36 36,-36zm347 0l204 0c20,0 36,16 36,36l0 205c0,19 -16,36 -36,36l-204 0c-20,0 -36,-17 -36,-36l0 -205c0,-20 16,-36 36,-36zm-6938 347l205 0c20,0 36,16 36,36l0 205c0,19 -16,36 -36,36l-205 0c-20,0 -36,-17 -36,-36l0 -205c0,-20 16,-36 36,-36zm347 0l205 0c19,0 36,16 36,36l0 205c0,19 -17,36 -36,36l-205 0c-20,0 -36,-17 -36,-36l0 -205c0,-20 16,-36 36,-36zm347 0l204 0c20,0 36,16 36,36l0 205c0,19 -16,36 -36,36l-204 0c-20,0 -36,-17 -36,-36l0 -205c0,-20 16,-36 36,-36zm347 0l204 0c20,0 36,16 36,36l0 205c0,19 -16,36 -36,36l-204 0c-20,0 -36,-17 -36,-36l0 -205c0,-20 16,-36 36,-36zm347 0l204 0c20,0 36,16 36,36l0 205c0,19 -16,36 -36,36l-204 0c-20,0 -36,-17 -36,-36l0 -205c0,-20 16,-36 36,-36zm347 0l204 0c20,0 36,16 36,36l0 205c0,19 -16,36 -36,36l-204 0c-20,0 -37,-17 -37,-36l0 -205c0,-20 17,-36 37,-36zm346 0l205 0c20,0 36,16 36,36l0 205c0,19 -16,36 -36,36l-205 0c-19,0 -36,-17 -36,-36l0 -205c0,-20 17,-36 36,-36zm347 0l205 0c20,0 36,16 36,36l0 205c0,19 -16,36 -36,36l-205 0c-20,0 -36,-17 -36,-36l0 -205c0,-20 16,-36 36,-36zm347 0l205 0c20,0 36,16 36,36l0 205c0,19 -16,36 -36,36l-205 0c-20,0 -36,-17 -36,-36l0 -205c0,-20 16,-36 36,-36zm347 0l205 0c19,0 36,16 36,36l0 205c0,19 -17,36 -36,36l-205 0c-20,0 -36,-17 -36,-36l0 -205c0,-20 16,-36 36,-36zm347 0l205 0c19,0 36,16 36,36l0 205c0,19 -17,36 -36,36l-205 0c-20,0 -36,-17 -36,-36l0 -205c0,-20 16,-36 36,-36zm347 0l204 0c20,0 36,16 36,36l0 205c0,19 -16,36 -36,36l-204 0c-20,0 -36,-17 -36,-36l0 -205c0,-20 16,-36 36,-36zm347 0l204 0c20,0 36,16 36,36l0 205c0,19 -16,36 -36,36l-204 0c-20,0 -36,-17 -36,-36l0 -205c0,-20 16,-36 36,-36zm347 0l204 0c20,0 36,16 36,36l0 205c0,19 -16,36 -36,36l-204 0c-20,0 -36,-17 -36,-36l0 -205c0,-20 16,-36 36,-36zm346 0l205 0c20,0 36,16 36,36l0 205c0,19 -16,36 -36,36l-205 0c-19,0 -36,-17 -36,-36l0 -205c0,-20 17,-36 36,-36zm347 0l205 0c20,0 36,16 36,36l0 205c0,19 -16,36 -36,36l-205 0c-19,0 -36,-17 -36,-36l0 -205c0,-20 17,-36 36,-36zm347 0l205 0c20,0 36,16 36,36l0 205c0,19 -16,36 -36,36l-205 0c-20,0 -36,-17 -36,-36l0 -205c0,-20 16,-36 36,-36zm347 0l205 0c20,0 36,16 36,36l0 205c0,19 -16,36 -36,36l-205 0c-20,0 -36,-17 -36,-36l0 -205c0,-20 16,-36 36,-36zm347 0l205 0c19,0 36,16 36,36l0 205c0,19 -17,36 -36,36l-205 0c-20,0 -36,-17 -36,-36l0 -205c0,-20 16,-36 36,-36zm347 0l205 0c19,0 36,16 36,36l0 205c0,19 -17,36 -36,36l-205 0c-20,0 -36,-17 -36,-36l0 -205c0,-20 16,-36 36,-36zm347 0l204 0c20,0 36,16 36,36l0 205c0,19 -16,36 -36,36l-204 0c-20,0 -36,-17 -36,-36l0 -205c0,-20 16,-36 36,-36zm-6591 347l205 0c19,0 36,16 36,36l0 204c0,20 -17,36 -36,36l-205 0c-20,0 -36,-16 -36,-36l0 -204c0,-20 16,-36 36,-36zm347 0l204 0c20,0 36,16 36,36l0 204c0,20 -16,36 -36,36l-204 0c-20,0 -36,-16 -36,-36l0 -204c0,-20 16,-36 36,-36zm347 0l204 0c20,0 36,16 36,36l0 204c0,20 -16,36 -36,36l-204 0c-20,0 -36,-16 -36,-36l0 -204c0,-20 16,-36 36,-36zm347 0l204 0c20,0 36,16 36,36l0 204c0,20 -16,36 -36,36l-204 0c-20,0 -36,-16 -36,-36l0 -204c0,-20 16,-36 36,-36zm347 0l204 0c20,0 36,16 36,36l0 204c0,20 -16,36 -36,36l-204 0c-20,0 -37,-16 -37,-36l0 -204c0,-20 17,-36 37,-36zm346 0l205 0c20,0 36,16 36,36l0 204c0,20 -16,36 -36,36l-205 0c-19,0 -36,-16 -36,-36l0 -204c0,-20 17,-36 36,-36zm347 0l205 0c20,0 36,16 36,36l0 204c0,20 -16,36 -36,36l-205 0c-20,0 -36,-16 -36,-36l0 -204c0,-20 16,-36 36,-36zm347 0l205 0c20,0 36,16 36,36l0 204c0,20 -16,36 -36,36l-205 0c-20,0 -36,-16 -36,-36l0 -204c0,-20 16,-36 36,-36zm347 0l205 0c19,0 36,16 36,36l0 204c0,20 -17,36 -36,36l-205 0c-20,0 -36,-16 -36,-36l0 -204c0,-20 16,-36 36,-36zm347 0l205 0c19,0 36,16 36,36l0 204c0,20 -17,36 -36,36l-205 0c-20,0 -36,-16 -36,-36l0 -204c0,-20 16,-36 36,-36zm347 0l204 0c20,0 36,16 36,36l0 204c0,20 -16,36 -36,36l-204 0c-20,0 -36,-16 -36,-36l0 -204c0,-20 16,-36 36,-36zm347 0l204 0c20,0 36,16 36,36l0 204c0,20 -16,36 -36,36l-204 0c-20,0 -36,-16 -36,-36l0 -204c0,-20 16,-36 36,-36zm347 0l204 0c20,0 36,16 36,36l0 204c0,20 -16,36 -36,36l-204 0c-20,0 -36,-16 -36,-36l0 -204c0,-20 16,-36 36,-36zm346 0l205 0c20,0 36,16 36,36l0 204c0,20 -16,36 -36,36l-205 0c-19,0 -36,-16 -36,-36l0 -204c0,-20 17,-36 36,-36zm347 0l205 0c20,0 36,16 36,36l0 204c0,20 -16,36 -36,36l-205 0c-19,0 -36,-16 -36,-36l0 -204c0,-20 17,-36 36,-36zm347 0l205 0c20,0 36,16 36,36l0 204c0,20 -16,36 -36,36l-205 0c-20,0 -36,-16 -36,-36l0 -204c0,-20 16,-36 36,-36zm347 0l205 0c20,0 36,16 36,36l0 204c0,20 -16,36 -36,36l-205 0c-20,0 -36,-16 -36,-36l0 -204c0,-20 16,-36 36,-36zm347 0l205 0c19,0 36,16 36,36l0 204c0,20 -17,36 -36,36l-205 0c-20,0 -36,-16 -36,-36l0 -204c0,-20 16,-36 36,-36zm347 0l205 0c19,0 36,16 36,36l0 204c0,20 -17,36 -36,36l-205 0c-20,0 -36,-16 -36,-36l0 -204c0,-20 16,-36 36,-36zm347 0l204 0c20,0 36,16 36,36l0 204c0,20 -16,36 -36,36l-204 0c-20,0 -36,-16 -36,-36l0 -204c0,-20 16,-36 36,-36zm-6591 347l205 0c19,0 36,16 36,36l0 204c0,20 -17,36 -36,36l-205 0c-20,0 -36,-16 -36,-36l0 -204c0,-20 16,-36 36,-36zm347 0l204 0c20,0 36,16 36,36l0 204c0,20 -16,36 -36,36l-204 0c-20,0 -36,-16 -36,-36l0 -204c0,-20 16,-36 36,-36zm347 0l204 0c20,0 36,16 36,36l0 204c0,20 -16,36 -36,36l-204 0c-20,0 -36,-16 -36,-36l0 -204c0,-20 16,-36 36,-36zm347 0l204 0c20,0 36,16 36,36l0 204c0,20 -16,36 -36,36l-204 0c-20,0 -36,-16 -36,-36l0 -204c0,-20 16,-36 36,-36zm347 0l204 0c20,0 36,16 36,36l0 204c0,20 -16,36 -36,36l-204 0c-20,0 -37,-16 -37,-36l0 -204c0,-20 17,-36 37,-36zm346 0l205 0c20,0 36,16 36,36l0 204c0,20 -16,36 -36,36l-205 0c-19,0 -36,-16 -36,-36l0 -204c0,-20 17,-36 36,-36zm347 0l205 0c20,0 36,16 36,36l0 204c0,20 -16,36 -36,36l-205 0c-20,0 -36,-16 -36,-36l0 -204c0,-20 16,-36 36,-36zm347 0l205 0c20,0 36,16 36,36l0 204c0,20 -16,36 -36,36l-205 0c-20,0 -36,-16 -36,-36l0 -204c0,-20 16,-36 36,-36zm347 0l205 0c19,0 36,16 36,36l0 204c0,20 -17,36 -36,36l-205 0c-20,0 -36,-16 -36,-36l0 -204c0,-20 16,-36 36,-36zm347 0l205 0c19,0 36,16 36,36l0 204c0,20 -17,36 -36,36l-205 0c-20,0 -36,-16 -36,-36l0 -204c0,-20 16,-36 36,-36zm347 0l204 0c20,0 36,16 36,36l0 204c0,20 -16,36 -36,36l-204 0c-20,0 -36,-16 -36,-36l0 -204c0,-20 16,-36 36,-36zm347 0l204 0c20,0 36,16 36,36l0 204c0,20 -16,36 -36,36l-204 0c-20,0 -36,-16 -36,-36l0 -204c0,-20 16,-36 36,-36zm347 0l204 0c20,0 36,16 36,36l0 204c0,20 -16,36 -36,36l-204 0c-20,0 -36,-16 -36,-36l0 -204c0,-20 16,-36 36,-36zm346 0l205 0c20,0 36,16 36,36l0 204c0,20 -16,36 -36,36l-205 0c-19,0 -36,-16 -36,-36l0 -204c0,-20 17,-36 36,-36zm347 0l205 0c20,0 36,16 36,36l0 204c0,20 -16,36 -36,36l-205 0c-19,0 -36,-16 -36,-36l0 -204c0,-20 17,-36 36,-36zm347 0l205 0c20,0 36,16 36,36l0 204c0,20 -16,36 -36,36l-205 0c-20,0 -36,-16 -36,-36l0 -204c0,-20 16,-36 36,-36zm347 0l205 0c20,0 36,16 36,36l0 204c0,20 -16,36 -36,36l-205 0c-20,0 -36,-16 -36,-36l0 -204c0,-20 16,-36 36,-36zm347 0l205 0c19,0 36,16 36,36l0 204c0,20 -17,36 -36,36l-205 0c-20,0 -36,-16 -36,-36l0 -204c0,-20 16,-36 36,-36zm347 0l205 0c19,0 36,16 36,36l0 204c0,20 -17,36 -36,36l-205 0c-20,0 -36,-16 -36,-36l0 -204c0,-20 16,-36 36,-36zm347 0l204 0c20,0 36,16 36,36l0 204c0,20 -16,36 -36,36l-204 0c-20,0 -36,-16 -36,-36l0 -204c0,-20 16,-36 36,-36zm347 0l204 0c20,0 36,16 36,36l0 204c0,20 -16,36 -36,36l-204 0c-20,0 -36,-16 -36,-36l0 -204c0,-20 16,-36 36,-36zm693 0l205 0c20,0 36,16 36,36l0 204c0,20 -16,36 -36,36l-205 0c-19,0 -36,-16 -36,-36l0 -204c0,-20 17,-36 36,-36zm-7284 347l204 0c20,0 36,16 36,36l0 204c0,20 -16,36 -36,36l-204 0c-20,0 -36,-16 -36,-36l0 -204c0,-20 16,-36 36,-36zm347 0l204 0c20,0 36,16 36,36l0 204c0,20 -16,36 -36,36l-204 0c-20,0 -36,-16 -36,-36l0 -204c0,-20 16,-36 36,-36zm347 0l204 0c20,0 36,16 36,36l0 204c0,20 -16,36 -36,36l-204 0c-20,0 -36,-16 -36,-36l0 -204c0,-20 16,-36 36,-36zm347 0l204 0c20,0 36,16 36,36l0 204c0,20 -16,36 -36,36l-204 0c-20,0 -37,-16 -37,-36l0 -204c0,-20 17,-36 37,-36zm346 0l205 0c20,0 36,16 36,36l0 204c0,20 -16,36 -36,36l-205 0c-19,0 -36,-16 -36,-36l0 -204c0,-20 17,-36 36,-36zm347 0l205 0c20,0 36,16 36,36l0 204c0,20 -16,36 -36,36l-205 0c-20,0 -36,-16 -36,-36l0 -204c0,-20 16,-36 36,-36zm347 0l205 0c20,0 36,16 36,36l0 204c0,20 -16,36 -36,36l-205 0c-20,0 -36,-16 -36,-36l0 -204c0,-20 16,-36 36,-36zm347 0l205 0c19,0 36,16 36,36l0 204c0,20 -17,36 -36,36l-205 0c-20,0 -36,-16 -36,-36l0 -204c0,-20 16,-36 36,-36zm347 0l205 0c19,0 36,16 36,36l0 204c0,20 -17,36 -36,36l-205 0c-20,0 -36,-16 -36,-36l0 -204c0,-20 16,-36 36,-36zm347 0l204 0c20,0 36,16 36,36l0 204c0,20 -16,36 -36,36l-204 0c-20,0 -36,-16 -36,-36l0 -204c0,-20 16,-36 36,-36zm347 0l204 0c20,0 36,16 36,36l0 204c0,20 -16,36 -36,36l-204 0c-20,0 -36,-16 -36,-36l0 -204c0,-20 16,-36 36,-36zm347 0l204 0c20,0 36,16 36,36l0 204c0,20 -16,36 -36,36l-204 0c-20,0 -36,-16 -36,-36l0 -204c0,-20 16,-36 36,-36zm346 0l205 0c20,0 36,16 36,36l0 204c0,20 -16,36 -36,36l-205 0c-19,0 -36,-16 -36,-36l0 -204c0,-20 17,-36 36,-36zm347 0l205 0c20,0 36,16 36,36l0 204c0,20 -16,36 -36,36l-205 0c-19,0 -36,-16 -36,-36l0 -204c0,-20 17,-36 36,-36zm347 0l205 0c20,0 36,16 36,36l0 204c0,20 -16,36 -36,36l-205 0c-20,0 -36,-16 -36,-36l0 -204c0,-20 16,-36 36,-36zm347 0l205 0c20,0 36,16 36,36l0 204c0,20 -16,36 -36,36l-205 0c-20,0 -36,-16 -36,-36l0 -204c0,-20 16,-36 36,-36zm347 0l205 0c19,0 36,16 36,36l0 204c0,20 -17,36 -36,36l-205 0c-20,0 -36,-16 -36,-36l0 -204c0,-20 16,-36 36,-36zm347 0l205 0c19,0 36,16 36,36l0 204c0,20 -17,36 -36,36l-205 0c-20,0 -36,-16 -36,-36l0 -204c0,-20 16,-36 36,-36zm347 0l204 0c20,0 36,16 36,36l0 204c0,20 -16,36 -36,36l-204 0c-20,0 -36,-16 -36,-36l0 -204c0,-20 16,-36 36,-36zm347 0l204 0c20,0 36,16 36,36l0 204c0,20 -16,36 -36,36l-204 0c-20,0 -36,-16 -36,-36l0 -204c0,-20 16,-36 36,-36zm347 0l204 0c20,0 36,16 36,36l0 204c0,20 -16,36 -36,36l-204 0c-20,0 -36,-16 -36,-36l0 -204c0,-20 16,-36 36,-36zm346 0l205 0c20,0 36,16 36,36l0 204c0,20 -16,36 -36,36l-205 0c-19,0 -36,-16 -36,-36l0 -204c0,-20 17,-36 36,-36zm347 0l205 0c20,0 36,16 36,36l0 204c0,20 -16,36 -36,36l-205 0c-19,0 -36,-16 -36,-36l0 -204c0,-20 17,-36 36,-36zm-7631 346l204 0c20,0 36,17 36,36l0 205c0,20 -16,36 -36,36l-204 0c-20,0 -36,-16 -36,-36l0 -205c0,-19 16,-36 36,-36zm347 0l204 0c20,0 36,17 36,36l0 205c0,20 -16,36 -36,36l-204 0c-20,0 -36,-16 -36,-36l0 -205c0,-19 16,-36 36,-36zm347 0l204 0c20,0 36,17 36,36l0 205c0,20 -16,36 -36,36l-204 0c-20,0 -36,-16 -36,-36l0 -205c0,-19 16,-36 36,-36zm347 0l204 0c20,0 36,17 36,36l0 205c0,20 -16,36 -36,36l-204 0c-20,0 -37,-16 -37,-36l0 -205c0,-19 17,-36 37,-36zm346 0l205 0c20,0 36,17 36,36l0 205c0,20 -16,36 -36,36l-205 0c-19,0 -36,-16 -36,-36l0 -205c0,-19 17,-36 36,-36zm347 0l205 0c20,0 36,17 36,36l0 205c0,20 -16,36 -36,36l-205 0c-20,0 -36,-16 -36,-36l0 -205c0,-19 16,-36 36,-36zm347 0l205 0c20,0 36,17 36,36l0 205c0,20 -16,36 -36,36l-205 0c-20,0 -36,-16 -36,-36l0 -205c0,-19 16,-36 36,-36zm347 0l205 0c19,0 36,17 36,36l0 205c0,20 -17,36 -36,36l-205 0c-20,0 -36,-16 -36,-36l0 -205c0,-19 16,-36 36,-36zm347 0l205 0c19,0 36,17 36,36l0 205c0,20 -17,36 -36,36l-205 0c-20,0 -36,-16 -36,-36l0 -205c0,-19 16,-36 36,-36zm347 0l204 0c20,0 36,17 36,36l0 205c0,20 -16,36 -36,36l-204 0c-20,0 -36,-16 -36,-36l0 -205c0,-19 16,-36 36,-36zm347 0l204 0c20,0 36,17 36,36l0 205c0,20 -16,36 -36,36l-204 0c-20,0 -36,-16 -36,-36l0 -205c0,-19 16,-36 36,-36zm347 0l204 0c20,0 36,17 36,36l0 205c0,20 -16,36 -36,36l-204 0c-20,0 -36,-16 -36,-36l0 -205c0,-19 16,-36 36,-36zm346 0l205 0c20,0 36,17 36,36l0 205c0,20 -16,36 -36,36l-205 0c-19,0 -36,-16 -36,-36l0 -205c0,-19 17,-36 36,-36zm347 0l205 0c20,0 36,17 36,36l0 205c0,20 -16,36 -36,36l-205 0c-19,0 -36,-16 -36,-36l0 -205c0,-19 17,-36 36,-36zm347 0l205 0c20,0 36,17 36,36l0 205c0,20 -16,36 -36,36l-205 0c-20,0 -36,-16 -36,-36l0 -205c0,-19 16,-36 36,-36zm347 0l205 0c20,0 36,17 36,36l0 205c0,20 -16,36 -36,36l-205 0c-20,0 -36,-16 -36,-36l0 -205c0,-19 16,-36 36,-36zm347 0l205 0c19,0 36,17 36,36l0 205c0,20 -17,36 -36,36l-205 0c-20,0 -36,-16 -36,-36l0 -205c0,-19 16,-36 36,-36zm347 0l205 0c19,0 36,17 36,36l0 205c0,20 -17,36 -36,36l-205 0c-20,0 -36,-16 -36,-36l0 -205c0,-19 16,-36 36,-36zm347 0l204 0c20,0 36,17 36,36l0 205c0,20 -16,36 -36,36l-204 0c-20,0 -36,-16 -36,-36l0 -205c0,-19 16,-36 36,-36zm347 0l204 0c20,0 36,17 36,36l0 205c0,20 -16,36 -36,36l-204 0c-20,0 -36,-16 -36,-36l0 -205c0,-19 16,-36 36,-36zm347 0l204 0c20,0 36,17 36,36l0 205c0,20 -16,36 -36,36l-204 0c-20,0 -36,-16 -36,-36l0 -205c0,-19 16,-36 36,-36zm346 0l205 0c20,0 36,17 36,36l0 205c0,20 -16,36 -36,36l-205 0c-19,0 -36,-16 -36,-36l0 -205c0,-19 17,-36 36,-36zm347 0l205 0c20,0 36,17 36,36l0 205c0,20 -16,36 -36,36l-205 0c-19,0 -36,-16 -36,-36l0 -205c0,-19 17,-36 36,-36zm-7284 347l204 0c20,0 36,17 36,36l0 205c0,20 -16,36 -36,36l-204 0c-20,0 -36,-16 -36,-36l0 -205c0,-19 16,-36 36,-36zm347 0l204 0c20,0 36,17 36,36l0 205c0,20 -16,36 -36,36l-204 0c-20,0 -36,-16 -36,-36l0 -205c0,-19 16,-36 36,-36zm347 0l204 0c20,0 36,17 36,36l0 205c0,20 -16,36 -36,36l-204 0c-20,0 -37,-16 -37,-36l0 -205c0,-19 17,-36 37,-36zm346 0l205 0c20,0 36,17 36,36l0 205c0,20 -16,36 -36,36l-205 0c-19,0 -36,-16 -36,-36l0 -205c0,-19 17,-36 36,-36zm347 0l205 0c20,0 36,17 36,36l0 205c0,20 -16,36 -36,36l-205 0c-20,0 -36,-16 -36,-36l0 -205c0,-19 16,-36 36,-36zm347 0l205 0c20,0 36,17 36,36l0 205c0,20 -16,36 -36,36l-205 0c-20,0 -36,-16 -36,-36l0 -205c0,-19 16,-36 36,-36zm347 0l205 0c19,0 36,17 36,36l0 205c0,20 -17,36 -36,36l-205 0c-20,0 -36,-16 -36,-36l0 -205c0,-19 16,-36 36,-36zm347 0l205 0c19,0 36,17 36,36l0 205c0,20 -17,36 -36,36l-205 0c-20,0 -36,-16 -36,-36l0 -205c0,-19 16,-36 36,-36zm347 0l204 0c20,0 36,17 36,36l0 205c0,20 -16,36 -36,36l-204 0c-20,0 -36,-16 -36,-36l0 -205c0,-19 16,-36 36,-36zm347 0l204 0c20,0 36,17 36,36l0 205c0,20 -16,36 -36,36l-204 0c-20,0 -36,-16 -36,-36l0 -205c0,-19 16,-36 36,-36zm347 0l204 0c20,0 36,17 36,36l0 205c0,20 -16,36 -36,36l-204 0c-20,0 -36,-16 -36,-36l0 -205c0,-19 16,-36 36,-36zm346 0l205 0c20,0 36,17 36,36l0 205c0,20 -16,36 -36,36l-205 0c-19,0 -36,-16 -36,-36l0 -205c0,-19 17,-36 36,-36zm347 0l205 0c20,0 36,17 36,36l0 205c0,20 -16,36 -36,36l-205 0c-19,0 -36,-16 -36,-36l0 -205c0,-19 17,-36 36,-36zm347 0l205 0c20,0 36,17 36,36l0 205c0,20 -16,36 -36,36l-205 0c-20,0 -36,-16 -36,-36l0 -205c0,-19 16,-36 36,-36zm347 0l205 0c20,0 36,17 36,36l0 205c0,20 -16,36 -36,36l-205 0c-20,0 -36,-16 -36,-36l0 -205c0,-19 16,-36 36,-36zm347 0l205 0c19,0 36,17 36,36l0 205c0,20 -17,36 -36,36l-205 0c-20,0 -36,-16 -36,-36l0 -205c0,-19 16,-36 36,-36zm347 0l205 0c19,0 36,17 36,36l0 205c0,20 -17,36 -36,36l-205 0c-20,0 -36,-16 -36,-36l0 -205c0,-19 16,-36 36,-36zm347 0l204 0c20,0 36,17 36,36l0 205c0,20 -16,36 -36,36l-204 0c-20,0 -36,-16 -36,-36l0 -205c0,-19 16,-36 36,-36zm347 0l204 0c20,0 36,17 36,36l0 205c0,20 -16,36 -36,36l-204 0c-20,0 -36,-16 -36,-36l0 -205c0,-19 16,-36 36,-36zm347 0l204 0c20,0 36,17 36,36l0 205c0,20 -16,36 -36,36l-204 0c-20,0 -36,-16 -36,-36l0 -205c0,-19 16,-36 36,-36zm346 0l205 0c20,0 36,17 36,36l0 205c0,20 -16,36 -36,36l-205 0c-19,0 -36,-16 -36,-36l0 -205c0,-19 17,-36 36,-36zm347 0l205 0c20,0 36,17 36,36l0 205c0,20 -16,36 -36,36l-205 0c-19,0 -36,-16 -36,-36l0 -205c0,-19 17,-36 36,-36zm347 0l205 0c20,0 36,17 36,36l0 205c0,20 -16,36 -36,36l-205 0c-20,0 -36,-16 -36,-36l0 -205c0,-19 16,-36 36,-36zm-7284 347l204 0c20,0 36,16 36,36l0 205c0,20 -16,36 -36,36l-204 0c-20,0 -36,-16 -36,-36l0 -205c0,-20 16,-36 36,-36zm347 0l204 0c20,0 36,16 36,36l0 205c0,20 -16,36 -36,36l-204 0c-20,0 -37,-16 -37,-36l0 -205c0,-20 17,-36 37,-36zm346 0l205 0c20,0 36,16 36,36l0 205c0,20 -16,36 -36,36l-205 0c-19,0 -36,-16 -36,-36l0 -205c0,-20 17,-36 36,-36zm347 0l205 0c20,0 36,16 36,36l0 205c0,20 -16,36 -36,36l-205 0c-20,0 -36,-16 -36,-36l0 -205c0,-20 16,-36 36,-36zm347 0l205 0c20,0 36,16 36,36l0 205c0,20 -16,36 -36,36l-205 0c-20,0 -36,-16 -36,-36l0 -205c0,-20 16,-36 36,-36zm347 0l205 0c19,0 36,16 36,36l0 205c0,20 -17,36 -36,36l-205 0c-20,0 -36,-16 -36,-36l0 -205c0,-20 16,-36 36,-36zm347 0l205 0c19,0 36,16 36,36l0 205c0,20 -17,36 -36,36l-205 0c-20,0 -36,-16 -36,-36l0 -205c0,-20 16,-36 36,-36zm347 0l204 0c20,0 36,16 36,36l0 205c0,20 -16,36 -36,36l-204 0c-20,0 -36,-16 -36,-36l0 -205c0,-20 16,-36 36,-36zm347 0l204 0c20,0 36,16 36,36l0 205c0,20 -16,36 -36,36l-204 0c-20,0 -36,-16 -36,-36l0 -205c0,-20 16,-36 36,-36zm347 0l204 0c20,0 36,16 36,36l0 205c0,20 -16,36 -36,36l-204 0c-20,0 -36,-16 -36,-36l0 -205c0,-20 16,-36 36,-36zm346 0l205 0c20,0 36,16 36,36l0 205c0,20 -16,36 -36,36l-205 0c-19,0 -36,-16 -36,-36l0 -205c0,-20 17,-36 36,-36zm347 0l205 0c20,0 36,16 36,36l0 205c0,20 -16,36 -36,36l-205 0c-19,0 -36,-16 -36,-36l0 -205c0,-20 17,-36 36,-36zm347 0l205 0c20,0 36,16 36,36l0 205c0,20 -16,36 -36,36l-205 0c-20,0 -36,-16 -36,-36l0 -205c0,-20 16,-36 36,-36zm347 0l205 0c20,0 36,16 36,36l0 205c0,20 -16,36 -36,36l-205 0c-20,0 -36,-16 -36,-36l0 -205c0,-20 16,-36 36,-36zm347 0l205 0c19,0 36,16 36,36l0 205c0,20 -17,36 -36,36l-205 0c-20,0 -36,-16 -36,-36l0 -205c0,-20 16,-36 36,-36zm347 0l205 0c19,0 36,16 36,36l0 205c0,20 -17,36 -36,36l-205 0c-20,0 -36,-16 -36,-36l0 -205c0,-20 16,-36 36,-36zm347 0l204 0c20,0 36,16 36,36l0 205c0,20 -16,36 -36,36l-204 0c-20,0 -36,-16 -36,-36l0 -205c0,-20 16,-36 36,-36zm347 0l204 0c20,0 36,16 36,36l0 205c0,20 -16,36 -36,36l-204 0c-20,0 -36,-16 -36,-36l0 -205c0,-20 16,-36 36,-36zm347 0l204 0c20,0 36,16 36,36l0 205c0,20 -16,36 -36,36l-204 0c-20,0 -36,-16 -36,-36l0 -205c0,-20 16,-36 36,-36zm346 0l205 0c20,0 36,16 36,36l0 205c0,20 -16,36 -36,36l-205 0c-19,0 -36,-16 -36,-36l0 -205c0,-20 17,-36 36,-36zm347 0l205 0c20,0 36,16 36,36l0 205c0,20 -16,36 -36,36l-205 0c-19,0 -36,-16 -36,-36l0 -205c0,-20 17,-36 36,-36zm347 0l205 0c20,0 36,16 36,36l0 205c0,20 -16,36 -36,36l-205 0c-20,0 -36,-16 -36,-36l0 -205c0,-20 16,-36 36,-36zm-7284 347l204 0c20,0 36,16 36,36l0 205c0,20 -16,36 -36,36l-204 0c-20,0 -36,-16 -36,-36l0 -205c0,-20 16,-36 36,-36zm347 0l204 0c20,0 36,16 36,36l0 205c0,20 -16,36 -36,36l-204 0c-20,0 -37,-16 -37,-36l0 -205c0,-20 17,-36 37,-36zm346 0l205 0c20,0 36,16 36,36l0 205c0,20 -16,36 -36,36l-205 0c-19,0 -36,-16 -36,-36l0 -205c0,-20 17,-36 36,-36zm347 0l205 0c20,0 36,16 36,36l0 205c0,20 -16,36 -36,36l-205 0c-20,0 -36,-16 -36,-36l0 -205c0,-20 16,-36 36,-36zm347 0l205 0c20,0 36,16 36,36l0 205c0,20 -16,36 -36,36l-205 0c-20,0 -36,-16 -36,-36l0 -205c0,-20 16,-36 36,-36zm347 0l205 0c19,0 36,16 36,36l0 205c0,20 -17,36 -36,36l-205 0c-20,0 -36,-16 -36,-36l0 -205c0,-20 16,-36 36,-36zm347 0l205 0c19,0 36,16 36,36l0 205c0,20 -17,36 -36,36l-205 0c-20,0 -36,-16 -36,-36l0 -205c0,-20 16,-36 36,-36zm347 0l204 0c20,0 36,16 36,36l0 205c0,20 -16,36 -36,36l-204 0c-20,0 -36,-16 -36,-36l0 -205c0,-20 16,-36 36,-36zm347 0l204 0c20,0 36,16 36,36l0 205c0,20 -16,36 -36,36l-204 0c-20,0 -36,-16 -36,-36l0 -205c0,-20 16,-36 36,-36zm347 0l204 0c20,0 36,16 36,36l0 205c0,20 -16,36 -36,36l-204 0c-20,0 -36,-16 -36,-36l0 -205c0,-20 16,-36 36,-36zm346 0l205 0c20,0 36,16 36,36l0 205c0,20 -16,36 -36,36l-205 0c-19,0 -36,-16 -36,-36l0 -205c0,-20 17,-36 36,-36zm347 0l205 0c20,0 36,16 36,36l0 205c0,20 -16,36 -36,36l-205 0c-19,0 -36,-16 -36,-36l0 -205c0,-20 17,-36 36,-36zm347 0l205 0c20,0 36,16 36,36l0 205c0,20 -16,36 -36,36l-205 0c-20,0 -36,-16 -36,-36l0 -205c0,-20 16,-36 36,-36zm347 0l205 0c20,0 36,16 36,36l0 205c0,20 -16,36 -36,36l-205 0c-20,0 -36,-16 -36,-36l0 -205c0,-20 16,-36 36,-36zm347 0l205 0c19,0 36,16 36,36l0 205c0,20 -17,36 -36,36l-205 0c-20,0 -36,-16 -36,-36l0 -205c0,-20 16,-36 36,-36zm347 0l205 0c19,0 36,16 36,36l0 205c0,20 -17,36 -36,36l-205 0c-20,0 -36,-16 -36,-36l0 -205c0,-20 16,-36 36,-36zm347 0l204 0c20,0 36,16 36,36l0 205c0,20 -16,36 -36,36l-204 0c-20,0 -36,-16 -36,-36l0 -205c0,-20 16,-36 36,-36zm347 0l204 0c20,0 36,16 36,36l0 205c0,20 -16,36 -36,36l-204 0c-20,0 -36,-16 -36,-36l0 -205c0,-20 16,-36 36,-36zm347 0l204 0c20,0 36,16 36,36l0 205c0,20 -16,36 -36,36l-204 0c-20,0 -36,-16 -36,-36l0 -205c0,-20 16,-36 36,-36zm346 0l205 0c20,0 36,16 36,36l0 205c0,20 -16,36 -36,36l-205 0c-19,0 -36,-16 -36,-36l0 -205c0,-20 17,-36 36,-36zm347 0l205 0c20,0 36,16 36,36l0 205c0,20 -16,36 -36,36l-205 0c-19,0 -36,-16 -36,-36l0 -205c0,-20 17,-36 36,-36zm347 0l205 0c20,0 36,16 36,36l0 205c0,20 -16,36 -36,36l-205 0c-20,0 -36,-16 -36,-36l0 -205c0,-20 16,-36 36,-36zm-6937 347l204 0c20,0 36,16 36,36l0 205c0,19 -16,36 -36,36l-204 0c-20,0 -37,-17 -37,-36l0 -205c0,-20 17,-36 37,-36zm346 0l205 0c20,0 36,16 36,36l0 205c0,19 -16,36 -36,36l-205 0c-19,0 -36,-17 -36,-36l0 -205c0,-20 17,-36 36,-36zm347 0l205 0c20,0 36,16 36,36l0 205c0,19 -16,36 -36,36l-205 0c-20,0 -36,-17 -36,-36l0 -205c0,-20 16,-36 36,-36zm347 0l205 0c20,0 36,16 36,36l0 205c0,19 -16,36 -36,36l-205 0c-20,0 -36,-17 -36,-36l0 -205c0,-20 16,-36 36,-36zm347 0l205 0c19,0 36,16 36,36l0 205c0,19 -17,36 -36,36l-205 0c-20,0 -36,-17 -36,-36l0 -205c0,-20 16,-36 36,-36zm347 0l205 0c19,0 36,16 36,36l0 205c0,19 -17,36 -36,36l-205 0c-20,0 -36,-17 -36,-36l0 -205c0,-20 16,-36 36,-36zm347 0l204 0c20,0 36,16 36,36l0 205c0,19 -16,36 -36,36l-204 0c-20,0 -36,-17 -36,-36l0 -205c0,-20 16,-36 36,-36zm347 0l204 0c20,0 36,16 36,36l0 205c0,19 -16,36 -36,36l-204 0c-20,0 -36,-17 -36,-36l0 -205c0,-20 16,-36 36,-36zm347 0l204 0c20,0 36,16 36,36l0 205c0,19 -16,36 -36,36l-204 0c-20,0 -36,-17 -36,-36l0 -205c0,-20 16,-36 36,-36zm346 0l205 0c20,0 36,16 36,36l0 205c0,19 -16,36 -36,36l-205 0c-19,0 -36,-17 -36,-36l0 -205c0,-20 17,-36 36,-36zm347 0l205 0c20,0 36,16 36,36l0 205c0,19 -16,36 -36,36l-205 0c-19,0 -36,-17 -36,-36l0 -205c0,-20 17,-36 36,-36zm347 0l205 0c20,0 36,16 36,36l0 205c0,19 -16,36 -36,36l-205 0c-20,0 -36,-17 -36,-36l0 -205c0,-20 16,-36 36,-36zm347 0l205 0c20,0 36,16 36,36l0 205c0,19 -16,36 -36,36l-205 0c-20,0 -36,-17 -36,-36l0 -205c0,-20 16,-36 36,-36zm347 0l205 0c19,0 36,16 36,36l0 205c0,19 -17,36 -36,36l-205 0c-20,0 -36,-17 -36,-36l0 -205c0,-20 16,-36 36,-36zm347 0l205 0c19,0 36,16 36,36l0 205c0,19 -17,36 -36,36l-205 0c-20,0 -36,-17 -36,-36l0 -205c0,-20 16,-36 36,-36zm347 0l204 0c20,0 36,16 36,36l0 205c0,19 -16,36 -36,36l-204 0c-20,0 -36,-17 -36,-36l0 -205c0,-20 16,-36 36,-36zm347 0l204 0c20,0 36,16 36,36l0 205c0,19 -16,36 -36,36l-204 0c-20,0 -36,-17 -36,-36l0 -205c0,-20 16,-36 36,-36zm347 0l204 0c20,0 36,16 36,36l0 205c0,19 -16,36 -36,36l-204 0c-20,0 -36,-17 -36,-36l0 -205c0,-20 16,-36 36,-36zm346 0l205 0c20,0 36,16 36,36l0 205c0,19 -16,36 -36,36l-205 0c-19,0 -36,-17 -36,-36l0 -205c0,-20 17,-36 36,-36zm347 0l205 0c20,0 36,16 36,36l0 205c0,19 -16,36 -36,36l-205 0c-19,0 -36,-17 -36,-36l0 -205c0,-20 17,-36 36,-36zm347 0l205 0c20,0 36,16 36,36l0 205c0,19 -16,36 -36,36l-205 0c-20,0 -36,-17 -36,-36l0 -205c0,-20 16,-36 36,-36zm-6937 347l204 0c20,0 36,16 36,36l0 204c0,20 -16,37 -36,37l-204 0c-20,0 -37,-17 -37,-37l0 -204c0,-20 17,-36 37,-36zm346 0l205 0c20,0 36,16 36,36l0 204c0,20 -16,37 -36,37l-205 0c-19,0 -36,-17 -36,-37l0 -204c0,-20 17,-36 36,-36zm347 0l205 0c20,0 36,16 36,36l0 204c0,20 -16,37 -36,37l-205 0c-20,0 -36,-17 -36,-37l0 -204c0,-20 16,-36 36,-36zm347 0l205 0c20,0 36,16 36,36l0 204c0,20 -16,37 -36,37l-205 0c-20,0 -36,-17 -36,-37l0 -204c0,-20 16,-36 36,-36zm347 0l205 0c19,0 36,16 36,36l0 204c0,20 -17,37 -36,37l-205 0c-20,0 -36,-17 -36,-37l0 -204c0,-20 16,-36 36,-36zm347 0l205 0c19,0 36,16 36,36l0 204c0,20 -17,37 -36,37l-205 0c-20,0 -36,-17 -36,-37l0 -204c0,-20 16,-36 36,-36zm347 0l204 0c20,0 36,16 36,36l0 204c0,20 -16,37 -36,37l-204 0c-20,0 -36,-17 -36,-37l0 -204c0,-20 16,-36 36,-36zm347 0l204 0c20,0 36,16 36,36l0 204c0,20 -16,37 -36,37l-204 0c-20,0 -36,-17 -36,-37l0 -204c0,-20 16,-36 36,-36zm347 0l204 0c20,0 36,16 36,36l0 204c0,20 -16,37 -36,37l-204 0c-20,0 -36,-17 -36,-37l0 -204c0,-20 16,-36 36,-36zm346 0l205 0c20,0 36,16 36,36l0 204c0,20 -16,37 -36,37l-205 0c-19,0 -36,-17 -36,-37l0 -204c0,-20 17,-36 36,-36zm347 0l205 0c20,0 36,16 36,36l0 204c0,20 -16,37 -36,37l-205 0c-19,0 -36,-17 -36,-37l0 -204c0,-20 17,-36 36,-36zm347 0l205 0c20,0 36,16 36,36l0 204c0,20 -16,37 -36,37l-205 0c-20,0 -36,-17 -36,-37l0 -204c0,-20 16,-36 36,-36zm347 0l205 0c20,0 36,16 36,36l0 204c0,20 -16,37 -36,37l-205 0c-20,0 -36,-17 -36,-37l0 -204c0,-20 16,-36 36,-36zm347 0l205 0c19,0 36,16 36,36l0 204c0,20 -17,37 -36,37l-205 0c-20,0 -36,-17 -36,-37l0 -204c0,-20 16,-36 36,-36zm347 0l205 0c19,0 36,16 36,36l0 204c0,20 -17,37 -36,37l-205 0c-20,0 -36,-17 -36,-37l0 -204c0,-20 16,-36 36,-36zm347 0l204 0c20,0 36,16 36,36l0 204c0,20 -16,37 -36,37l-204 0c-20,0 -36,-17 -36,-37l0 -204c0,-20 16,-36 36,-36zm347 0l204 0c20,0 36,16 36,36l0 204c0,20 -16,37 -36,37l-204 0c-20,0 -36,-17 -36,-37l0 -204c0,-20 16,-36 36,-36zm347 0l204 0c20,0 36,16 36,36l0 204c0,20 -16,37 -36,37l-204 0c-20,0 -36,-17 -36,-37l0 -204c0,-20 16,-36 36,-36zm346 0l205 0c20,0 36,16 36,36l0 204c0,20 -16,37 -36,37l-205 0c-19,0 -36,-17 -36,-37l0 -204c0,-20 17,-36 36,-36zm347 0l205 0c20,0 36,16 36,36l0 204c0,20 -16,37 -36,37l-205 0c-19,0 -36,-17 -36,-37l0 -204c0,-20 17,-36 36,-36zm347 0l205 0c20,0 36,16 36,36l0 204c0,20 -16,37 -36,37l-205 0c-20,0 -36,-17 -36,-37l0 -204c0,-20 16,-36 36,-36zm-6937 347l204 0c20,0 36,16 36,36l0 204c0,20 -16,36 -36,36l-204 0c-20,0 -37,-16 -37,-36l0 -204c0,-20 17,-36 37,-36zm346 0l205 0c20,0 36,16 36,36l0 204c0,20 -16,36 -36,36l-205 0c-19,0 -36,-16 -36,-36l0 -204c0,-20 17,-36 36,-36zm347 0l205 0c20,0 36,16 36,36l0 204c0,20 -16,36 -36,36l-205 0c-20,0 -36,-16 -36,-36l0 -204c0,-20 16,-36 36,-36zm347 0l205 0c20,0 36,16 36,36l0 204c0,20 -16,36 -36,36l-205 0c-20,0 -36,-16 -36,-36l0 -204c0,-20 16,-36 36,-36zm347 0l205 0c19,0 36,16 36,36l0 204c0,20 -17,36 -36,36l-205 0c-20,0 -36,-16 -36,-36l0 -204c0,-20 16,-36 36,-36zm347 0l205 0c19,0 36,16 36,36l0 204c0,20 -17,36 -36,36l-205 0c-20,0 -36,-16 -36,-36l0 -204c0,-20 16,-36 36,-36zm347 0l204 0c20,0 36,16 36,36l0 204c0,20 -16,36 -36,36l-204 0c-20,0 -36,-16 -36,-36l0 -204c0,-20 16,-36 36,-36zm347 0l204 0c20,0 36,16 36,36l0 204c0,20 -16,36 -36,36l-204 0c-20,0 -36,-16 -36,-36l0 -204c0,-20 16,-36 36,-36zm347 0l204 0c20,0 36,16 36,36l0 204c0,20 -16,36 -36,36l-204 0c-20,0 -36,-16 -36,-36l0 -204c0,-20 16,-36 36,-36zm346 0l205 0c20,0 36,16 36,36l0 204c0,20 -16,36 -36,36l-205 0c-19,0 -36,-16 -36,-36l0 -204c0,-20 17,-36 36,-36zm347 0l205 0c20,0 36,16 36,36l0 204c0,20 -16,36 -36,36l-205 0c-19,0 -36,-16 -36,-36l0 -204c0,-20 17,-36 36,-36zm347 0l205 0c20,0 36,16 36,36l0 204c0,20 -16,36 -36,36l-205 0c-20,0 -36,-16 -36,-36l0 -204c0,-20 16,-36 36,-36zm347 0l205 0c20,0 36,16 36,36l0 204c0,20 -16,36 -36,36l-205 0c-20,0 -36,-16 -36,-36l0 -204c0,-20 16,-36 36,-36zm347 0l205 0c19,0 36,16 36,36l0 204c0,20 -17,36 -36,36l-205 0c-20,0 -36,-16 -36,-36l0 -204c0,-20 16,-36 36,-36zm347 0l205 0c19,0 36,16 36,36l0 204c0,20 -17,36 -36,36l-205 0c-20,0 -36,-16 -36,-36l0 -204c0,-20 16,-36 36,-36zm347 0l204 0c20,0 36,16 36,36l0 204c0,20 -16,36 -36,36l-204 0c-20,0 -36,-16 -36,-36l0 -204c0,-20 16,-36 36,-36zm347 0l204 0c20,0 36,16 36,36l0 204c0,20 -16,36 -36,36l-204 0c-20,0 -36,-16 -36,-36l0 -204c0,-20 16,-36 36,-36zm347 0l204 0c20,0 36,16 36,36l0 204c0,20 -16,36 -36,36l-204 0c-20,0 -36,-16 -36,-36l0 -204c0,-20 16,-36 36,-36zm346 0l205 0c20,0 36,16 36,36l0 204c0,20 -16,36 -36,36l-205 0c-19,0 -36,-16 -36,-36l0 -204c0,-20 17,-36 36,-36zm347 0l205 0c20,0 36,16 36,36l0 204c0,20 -16,36 -36,36l-205 0c-19,0 -36,-16 -36,-36l0 -204c0,-20 17,-36 36,-36zm347 0l205 0c20,0 36,16 36,36l0 204c0,20 -16,36 -36,36l-205 0c-20,0 -36,-16 -36,-36l0 -204c0,-20 16,-36 36,-36zm-6937 347l204 0c20,0 36,16 36,36l0 204c0,20 -16,36 -36,36l-204 0c-20,0 -37,-16 -37,-36l0 -204c0,-20 17,-36 37,-36zm346 0l205 0c20,0 36,16 36,36l0 204c0,20 -16,36 -36,36l-205 0c-19,0 -36,-16 -36,-36l0 -204c0,-20 17,-36 36,-36zm347 0l205 0c20,0 36,16 36,36l0 204c0,20 -16,36 -36,36l-205 0c-20,0 -36,-16 -36,-36l0 -204c0,-20 16,-36 36,-36zm347 0l205 0c20,0 36,16 36,36l0 204c0,20 -16,36 -36,36l-205 0c-20,0 -36,-16 -36,-36l0 -204c0,-20 16,-36 36,-36zm347 0l205 0c19,0 36,16 36,36l0 204c0,20 -17,36 -36,36l-205 0c-20,0 -36,-16 -36,-36l0 -204c0,-20 16,-36 36,-36zm347 0l205 0c19,0 36,16 36,36l0 204c0,20 -17,36 -36,36l-205 0c-20,0 -36,-16 -36,-36l0 -204c0,-20 16,-36 36,-36zm347 0l204 0c20,0 36,16 36,36l0 204c0,20 -16,36 -36,36l-204 0c-20,0 -36,-16 -36,-36l0 -204c0,-20 16,-36 36,-36zm347 0l204 0c20,0 36,16 36,36l0 204c0,20 -16,36 -36,36l-204 0c-20,0 -36,-16 -36,-36l0 -204c0,-20 16,-36 36,-36zm347 0l204 0c20,0 36,16 36,36l0 204c0,20 -16,36 -36,36l-204 0c-20,0 -36,-16 -36,-36l0 -204c0,-20 16,-36 36,-36zm346 0l205 0c20,0 36,16 36,36l0 204c0,20 -16,36 -36,36l-205 0c-19,0 -36,-16 -36,-36l0 -204c0,-20 17,-36 36,-36zm347 0l205 0c20,0 36,16 36,36l0 204c0,20 -16,36 -36,36l-205 0c-19,0 -36,-16 -36,-36l0 -204c0,-20 17,-36 36,-36zm347 0l205 0c20,0 36,16 36,36l0 204c0,20 -16,36 -36,36l-205 0c-20,0 -36,-16 -36,-36l0 -204c0,-20 16,-36 36,-36zm347 0l205 0c20,0 36,16 36,36l0 204c0,20 -16,36 -36,36l-205 0c-20,0 -36,-16 -36,-36l0 -204c0,-20 16,-36 36,-36zm347 0l205 0c19,0 36,16 36,36l0 204c0,20 -17,36 -36,36l-205 0c-20,0 -36,-16 -36,-36l0 -204c0,-20 16,-36 36,-36zm347 0l205 0c19,0 36,16 36,36l0 204c0,20 -17,36 -36,36l-205 0c-20,0 -36,-16 -36,-36l0 -204c0,-20 16,-36 36,-36zm347 0l204 0c20,0 36,16 36,36l0 204c0,20 -16,36 -36,36l-204 0c-20,0 -36,-16 -36,-36l0 -204c0,-20 16,-36 36,-36zm347 0l204 0c20,0 36,16 36,36l0 204c0,20 -16,36 -36,36l-204 0c-20,0 -36,-16 -36,-36l0 -204c0,-20 16,-36 36,-36zm347 0l204 0c20,0 36,16 36,36l0 204c0,20 -16,36 -36,36l-204 0c-20,0 -36,-16 -36,-36l0 -204c0,-20 16,-36 36,-36zm346 0l205 0c20,0 36,16 36,36l0 204c0,20 -16,36 -36,36l-205 0c-19,0 -36,-16 -36,-36l0 -204c0,-20 17,-36 36,-36zm347 0l205 0c20,0 36,16 36,36l0 204c0,20 -16,36 -36,36l-205 0c-19,0 -36,-16 -36,-36l0 -204c0,-20 17,-36 36,-36zm347 0l205 0c20,0 36,16 36,36l0 204c0,20 -16,36 -36,36l-205 0c-20,0 -36,-16 -36,-36l0 -204c0,-20 16,-36 36,-36zm-6591 347l205 0c20,0 36,16 36,36l0 204c0,20 -16,36 -36,36l-205 0c-19,0 -36,-16 -36,-36l0 -204c0,-20 17,-36 36,-36zm347 0l205 0c20,0 36,16 36,36l0 204c0,20 -16,36 -36,36l-205 0c-20,0 -36,-16 -36,-36l0 -204c0,-20 16,-36 36,-36zm347 0l205 0c20,0 36,16 36,36l0 204c0,20 -16,36 -36,36l-205 0c-20,0 -36,-16 -36,-36l0 -204c0,-20 16,-36 36,-36zm347 0l205 0c19,0 36,16 36,36l0 204c0,20 -17,36 -36,36l-205 0c-20,0 -36,-16 -36,-36l0 -204c0,-20 16,-36 36,-36zm347 0l205 0c19,0 36,16 36,36l0 204c0,20 -17,36 -36,36l-205 0c-20,0 -36,-16 -36,-36l0 -204c0,-20 16,-36 36,-36zm347 0l204 0c20,0 36,16 36,36l0 204c0,20 -16,36 -36,36l-204 0c-20,0 -36,-16 -36,-36l0 -204c0,-20 16,-36 36,-36zm347 0l204 0c20,0 36,16 36,36l0 204c0,20 -16,36 -36,36l-204 0c-20,0 -36,-16 -36,-36l0 -204c0,-20 16,-36 36,-36zm347 0l204 0c20,0 36,16 36,36l0 204c0,20 -16,36 -36,36l-204 0c-20,0 -36,-16 -36,-36l0 -204c0,-20 16,-36 36,-36zm346 0l205 0c20,0 36,16 36,36l0 204c0,20 -16,36 -36,36l-205 0c-19,0 -36,-16 -36,-36l0 -204c0,-20 17,-36 36,-36zm347 0l205 0c20,0 36,16 36,36l0 204c0,20 -16,36 -36,36l-205 0c-19,0 -36,-16 -36,-36l0 -204c0,-20 17,-36 36,-36zm347 0l205 0c20,0 36,16 36,36l0 204c0,20 -16,36 -36,36l-205 0c-20,0 -36,-16 -36,-36l0 -204c0,-20 16,-36 36,-36zm347 0l205 0c20,0 36,16 36,36l0 204c0,20 -16,36 -36,36l-205 0c-20,0 -36,-16 -36,-36l0 -204c0,-20 16,-36 36,-36zm347 0l205 0c19,0 36,16 36,36l0 204c0,20 -17,36 -36,36l-205 0c-20,0 -36,-16 -36,-36l0 -204c0,-20 16,-36 36,-36zm347 0l205 0c19,0 36,16 36,36l0 204c0,20 -17,36 -36,36l-205 0c-20,0 -36,-16 -36,-36l0 -204c0,-20 16,-36 36,-36zm347 0l204 0c20,0 36,16 36,36l0 204c0,20 -16,36 -36,36l-204 0c-20,0 -36,-16 -36,-36l0 -204c0,-20 16,-36 36,-36zm347 0l204 0c20,0 36,16 36,36l0 204c0,20 -16,36 -36,36l-204 0c-20,0 -36,-16 -36,-36l0 -204c0,-20 16,-36 36,-36zm347 0l204 0c20,0 36,16 36,36l0 204c0,20 -16,36 -36,36l-204 0c-20,0 -36,-16 -36,-36l0 -204c0,-20 16,-36 36,-36zm346 0l205 0c20,0 36,16 36,36l0 204c0,20 -16,36 -36,36l-205 0c-19,0 -36,-16 -36,-36l0 -204c0,-20 17,-36 36,-36zm347 0l205 0c20,0 36,16 36,36l0 204c0,20 -16,36 -36,36l-205 0c-19,0 -36,-16 -36,-36l0 -204c0,-20 17,-36 36,-36zm-5897 346l205 0c20,0 36,17 36,36l0 205c0,20 -16,36 -36,36l-205 0c-20,0 -36,-16 -36,-36l0 -205c0,-19 16,-36 36,-36zm347 0l205 0c20,0 36,17 36,36l0 205c0,20 -16,36 -36,36l-205 0c-20,0 -36,-16 -36,-36l0 -205c0,-19 16,-36 36,-36zm347 0l205 0c19,0 36,17 36,36l0 205c0,20 -17,36 -36,36l-205 0c-20,0 -36,-16 -36,-36l0 -205c0,-19 16,-36 36,-36zm347 0l205 0c19,0 36,17 36,36l0 205c0,20 -17,36 -36,36l-205 0c-20,0 -36,-16 -36,-36l0 -205c0,-19 16,-36 36,-36zm347 0l204 0c20,0 36,17 36,36l0 205c0,20 -16,36 -36,36l-204 0c-20,0 -36,-16 -36,-36l0 -205c0,-19 16,-36 36,-36zm347 0l204 0c20,0 36,17 36,36l0 205c0,20 -16,36 -36,36l-204 0c-20,0 -36,-16 -36,-36l0 -205c0,-19 16,-36 36,-36zm347 0l204 0c20,0 36,17 36,36l0 205c0,20 -16,36 -36,36l-204 0c-20,0 -36,-16 -36,-36l0 -205c0,-19 16,-36 36,-36zm346 0l205 0c20,0 36,17 36,36l0 205c0,20 -16,36 -36,36l-205 0c-19,0 -36,-16 -36,-36l0 -205c0,-19 17,-36 36,-36zm347 0l205 0c20,0 36,17 36,36l0 205c0,20 -16,36 -36,36l-205 0c-19,0 -36,-16 -36,-36l0 -205c0,-19 17,-36 36,-36zm347 0l205 0c20,0 36,17 36,36l0 205c0,20 -16,36 -36,36l-205 0c-20,0 -36,-16 -36,-36l0 -205c0,-19 16,-36 36,-36zm347 0l205 0c20,0 36,17 36,36l0 205c0,20 -16,36 -36,36l-205 0c-20,0 -36,-16 -36,-36l0 -205c0,-19 16,-36 36,-36zm347 0l205 0c19,0 36,17 36,36l0 205c0,20 -17,36 -36,36l-205 0c-20,0 -36,-16 -36,-36l0 -205c0,-19 16,-36 36,-36zm347 0l205 0c19,0 36,17 36,36l0 205c0,20 -17,36 -36,36l-205 0c-20,0 -36,-16 -36,-36l0 -205c0,-19 16,-36 36,-36zm347 0l204 0c20,0 36,17 36,36l0 205c0,20 -16,36 -36,36l-204 0c-20,0 -36,-16 -36,-36l0 -205c0,-19 16,-36 36,-36zm347 0l204 0c20,0 36,17 36,36l0 205c0,20 -16,36 -36,36l-204 0c-20,0 -36,-16 -36,-36l0 -205c0,-19 16,-36 36,-36zm347 0l204 0c20,0 36,17 36,36l0 205c0,20 -16,36 -36,36l-204 0c-20,0 -36,-16 -36,-36l0 -205c0,-19 16,-36 36,-36zm346 0l205 0c20,0 36,17 36,36l0 205c0,20 -16,36 -36,36l-205 0c-19,0 -36,-16 -36,-36l0 -205c0,-19 17,-36 36,-36zm347 0l205 0c20,0 36,17 36,36l0 205c0,20 -16,36 -36,36l-205 0c-19,0 -36,-16 -36,-36l0 -205c0,-19 17,-36 36,-36zm-5550 347l205 0c20,0 36,16 36,36l0 205c0,20 -16,36 -36,36l-205 0c-20,0 -36,-16 -36,-36l0 -205c0,-20 16,-36 36,-36zm347 0l205 0c19,0 36,16 36,36l0 205c0,20 -17,36 -36,36l-205 0c-20,0 -36,-16 -36,-36l0 -205c0,-20 16,-36 36,-36zm347 0l205 0c19,0 36,16 36,36l0 205c0,20 -17,36 -36,36l-205 0c-20,0 -36,-16 -36,-36l0 -205c0,-20 16,-36 36,-36zm347 0l204 0c20,0 36,16 36,36l0 205c0,20 -16,36 -36,36l-204 0c-20,0 -36,-16 -36,-36l0 -205c0,-20 16,-36 36,-36zm347 0l204 0c20,0 36,16 36,36l0 205c0,20 -16,36 -36,36l-204 0c-20,0 -36,-16 -36,-36l0 -205c0,-20 16,-36 36,-36zm347 0l204 0c20,0 36,16 36,36l0 205c0,20 -16,36 -36,36l-204 0c-20,0 -36,-16 -36,-36l0 -205c0,-20 16,-36 36,-36zm346 0l205 0c20,0 36,16 36,36l0 205c0,20 -16,36 -36,36l-205 0c-19,0 -36,-16 -36,-36l0 -205c0,-20 17,-36 36,-36zm347 0l205 0c20,0 36,16 36,36l0 205c0,20 -16,36 -36,36l-205 0c-19,0 -36,-16 -36,-36l0 -205c0,-20 17,-36 36,-36zm347 0l205 0c20,0 36,16 36,36l0 205c0,20 -16,36 -36,36l-205 0c-20,0 -36,-16 -36,-36l0 -205c0,-20 16,-36 36,-36zm347 0l205 0c20,0 36,16 36,36l0 205c0,20 -16,36 -36,36l-205 0c-20,0 -36,-16 -36,-36l0 -205c0,-20 16,-36 36,-36zm347 0l205 0c19,0 36,16 36,36l0 205c0,20 -17,36 -36,36l-205 0c-20,0 -36,-16 -36,-36l0 -205c0,-20 16,-36 36,-36zm347 0l205 0c19,0 36,16 36,36l0 205c0,20 -17,36 -36,36l-205 0c-20,0 -36,-16 -36,-36l0 -205c0,-20 16,-36 36,-36zm347 0l204 0c20,0 36,16 36,36l0 205c0,20 -16,36 -36,36l-204 0c-20,0 -36,-16 -36,-36l0 -205c0,-20 16,-36 36,-36zm347 0l204 0c20,0 36,16 36,36l0 205c0,20 -16,36 -36,36l-204 0c-20,0 -36,-16 -36,-36l0 -205c0,-20 16,-36 36,-36zm347 0l204 0c20,0 36,16 36,36l0 205c0,20 -16,36 -36,36l-204 0c-20,0 -36,-16 -36,-36l0 -205c0,-20 16,-36 36,-36zm346 0l205 0c20,0 36,16 36,36l0 205c0,20 -16,36 -36,36l-205 0c-19,0 -36,-16 -36,-36l0 -205c0,-20 17,-36 36,-36zm347 0l205 0c20,0 36,16 36,36l0 205c0,20 -16,36 -36,36l-205 0c-19,0 -36,-16 -36,-36l0 -205c0,-20 17,-36 36,-36zm-5203 347l205 0c19,0 36,16 36,36l0 205c0,20 -17,36 -36,36l-205 0c-20,0 -36,-16 -36,-36l0 -205c0,-20 16,-36 36,-36zm347 0l205 0c19,0 36,16 36,36l0 205c0,20 -17,36 -36,36l-205 0c-20,0 -36,-16 -36,-36l0 -205c0,-20 16,-36 36,-36zm347 0l204 0c20,0 36,16 36,36l0 205c0,20 -16,36 -36,36l-204 0c-20,0 -36,-16 -36,-36l0 -205c0,-20 16,-36 36,-36zm347 0l204 0c20,0 36,16 36,36l0 205c0,20 -16,36 -36,36l-204 0c-20,0 -36,-16 -36,-36l0 -205c0,-20 16,-36 36,-36zm347 0l204 0c20,0 36,16 36,36l0 205c0,20 -16,36 -36,36l-204 0c-20,0 -36,-16 -36,-36l0 -205c0,-20 16,-36 36,-36zm346 0l205 0c20,0 36,16 36,36l0 205c0,20 -16,36 -36,36l-205 0c-19,0 -36,-16 -36,-36l0 -205c0,-20 17,-36 36,-36zm347 0l205 0c20,0 36,16 36,36l0 205c0,20 -16,36 -36,36l-205 0c-19,0 -36,-16 -36,-36l0 -205c0,-20 17,-36 36,-36zm347 0l205 0c20,0 36,16 36,36l0 205c0,20 -16,36 -36,36l-205 0c-20,0 -36,-16 -36,-36l0 -205c0,-20 16,-36 36,-36zm347 0l205 0c20,0 36,16 36,36l0 205c0,20 -16,36 -36,36l-205 0c-20,0 -36,-16 -36,-36l0 -205c0,-20 16,-36 36,-36zm347 0l205 0c19,0 36,16 36,36l0 205c0,20 -17,36 -36,36l-205 0c-20,0 -36,-16 -36,-36l0 -205c0,-20 16,-36 36,-36zm347 0l205 0c19,0 36,16 36,36l0 205c0,20 -17,36 -36,36l-205 0c-20,0 -36,-16 -36,-36l0 -205c0,-20 16,-36 36,-36zm347 0l204 0c20,0 36,16 36,36l0 205c0,20 -16,36 -36,36l-204 0c-20,0 -36,-16 -36,-36l0 -205c0,-20 16,-36 36,-36zm347 0l204 0c20,0 36,16 36,36l0 205c0,20 -16,36 -36,36l-204 0c-20,0 -36,-16 -36,-36l0 -205c0,-20 16,-36 36,-36zm347 0l204 0c20,0 36,16 36,36l0 205c0,20 -16,36 -36,36l-204 0c-20,0 -36,-16 -36,-36l0 -205c0,-20 16,-36 36,-36zm346 0l205 0c20,0 36,16 36,36l0 205c0,20 -16,36 -36,36l-205 0c-19,0 -36,-16 -36,-36l0 -205c0,-20 17,-36 36,-36zm347 0l205 0c20,0 36,16 36,36l0 205c0,20 -16,36 -36,36l-205 0c-19,0 -36,-16 -36,-36l0 -205c0,-20 17,-36 36,-36zm-4509 347l204 0c20,0 36,16 36,36l0 205c0,19 -16,36 -36,36l-204 0c-20,0 -36,-17 -36,-36l0 -205c0,-20 16,-36 36,-36zm347 0l204 0c20,0 36,16 36,36l0 205c0,19 -16,36 -36,36l-204 0c-20,0 -36,-17 -36,-36l0 -205c0,-20 16,-36 36,-36zm347 0l204 0c20,0 36,16 36,36l0 205c0,19 -16,36 -36,36l-204 0c-20,0 -36,-17 -36,-36l0 -205c0,-20 16,-36 36,-36zm346 0l205 0c20,0 36,16 36,36l0 205c0,19 -16,36 -36,36l-205 0c-19,0 -36,-17 -36,-36l0 -205c0,-20 17,-36 36,-36zm347 0l205 0c20,0 36,16 36,36l0 205c0,19 -16,36 -36,36l-205 0c-19,0 -36,-17 -36,-36l0 -205c0,-20 17,-36 36,-36zm347 0l205 0c20,0 36,16 36,36l0 205c0,19 -16,36 -36,36l-205 0c-20,0 -36,-17 -36,-36l0 -205c0,-20 16,-36 36,-36zm347 0l205 0c20,0 36,16 36,36l0 205c0,19 -16,36 -36,36l-205 0c-20,0 -36,-17 -36,-36l0 -205c0,-20 16,-36 36,-36zm347 0l205 0c19,0 36,16 36,36l0 205c0,19 -17,36 -36,36l-205 0c-20,0 -36,-17 -36,-36l0 -205c0,-20 16,-36 36,-36zm347 0l205 0c19,0 36,16 36,36l0 205c0,19 -17,36 -36,36l-205 0c-20,0 -36,-17 -36,-36l0 -205c0,-20 16,-36 36,-36zm347 0l204 0c20,0 36,16 36,36l0 205c0,19 -16,36 -36,36l-204 0c-20,0 -36,-17 -36,-36l0 -205c0,-20 16,-36 36,-36zm347 0l204 0c20,0 36,16 36,36l0 205c0,19 -16,36 -36,36l-204 0c-20,0 -36,-17 -36,-36l0 -205c0,-20 16,-36 36,-36zm347 0l204 0c20,0 36,16 36,36l0 205c0,19 -16,36 -36,36l-204 0c-20,0 -36,-17 -36,-36l0 -205c0,-20 16,-36 36,-36zm346 0l205 0c20,0 36,16 36,36l0 205c0,19 -16,36 -36,36l-205 0c-19,0 -36,-17 -36,-36l0 -205c0,-20 17,-36 36,-36zm347 0l205 0c20,0 36,16 36,36l0 205c0,19 -16,36 -36,36l-205 0c-19,0 -36,-17 -36,-36l0 -205c0,-20 17,-36 36,-36zm-4162 347l204 0c20,0 36,16 36,36l0 205c0,19 -16,36 -36,36l-204 0c-20,0 -36,-17 -36,-36l0 -205c0,-20 16,-36 36,-36zm347 0l204 0c20,0 36,16 36,36l0 205c0,19 -16,36 -36,36l-204 0c-20,0 -36,-17 -36,-36l0 -205c0,-20 16,-36 36,-36zm346 0l205 0c20,0 36,16 36,36l0 205c0,19 -16,36 -36,36l-205 0c-19,0 -36,-17 -36,-36l0 -205c0,-20 17,-36 36,-36zm347 0l205 0c20,0 36,16 36,36l0 205c0,19 -16,36 -36,36l-205 0c-19,0 -36,-17 -36,-36l0 -205c0,-20 17,-36 36,-36zm347 0l205 0c20,0 36,16 36,36l0 205c0,19 -16,36 -36,36l-205 0c-20,0 -36,-17 -36,-36l0 -205c0,-20 16,-36 36,-36zm347 0l205 0c20,0 36,16 36,36l0 205c0,19 -16,36 -36,36l-205 0c-20,0 -36,-17 -36,-36l0 -205c0,-20 16,-36 36,-36zm347 0l205 0c19,0 36,16 36,36l0 205c0,19 -17,36 -36,36l-205 0c-20,0 -36,-17 -36,-36l0 -205c0,-20 16,-36 36,-36zm347 0l205 0c19,0 36,16 36,36l0 205c0,19 -17,36 -36,36l-205 0c-20,0 -36,-17 -36,-36l0 -205c0,-20 16,-36 36,-36zm347 0l204 0c20,0 36,16 36,36l0 205c0,19 -16,36 -36,36l-204 0c-20,0 -36,-17 -36,-36l0 -205c0,-20 16,-36 36,-36zm347 0l204 0c20,0 36,16 36,36l0 205c0,19 -16,36 -36,36l-204 0c-20,0 -36,-17 -36,-36l0 -205c0,-20 16,-36 36,-36zm347 0l204 0c20,0 36,16 36,36l0 205c0,19 -16,36 -36,36l-204 0c-20,0 -36,-17 -36,-36l0 -205c0,-20 16,-36 36,-36zm346 0l205 0c20,0 36,16 36,36l0 205c0,19 -16,36 -36,36l-205 0c-19,0 -36,-17 -36,-36l0 -205c0,-20 17,-36 36,-36zm347 0l205 0c20,0 36,16 36,36l0 205c0,19 -16,36 -36,36l-205 0c-19,0 -36,-17 -36,-36l0 -205c0,-20 17,-36 36,-36zm347 0l205 0c20,0 36,16 36,36l0 205c0,19 -16,36 -36,36l-205 0c-20,0 -36,-17 -36,-36l0 -205c0,-20 16,-36 36,-36zm-3816 347l205 0c20,0 36,16 36,36l0 204c0,20 -16,36 -36,36l-205 0c-19,0 -36,-16 -36,-36l0 -204c0,-20 17,-36 36,-36zm347 0l205 0c20,0 36,16 36,36l0 204c0,20 -16,36 -36,36l-205 0c-19,0 -36,-16 -36,-36l0 -204c0,-20 17,-36 36,-36zm347 0l205 0c20,0 36,16 36,36l0 204c0,20 -16,36 -36,36l-205 0c-20,0 -36,-16 -36,-36l0 -204c0,-20 16,-36 36,-36zm347 0l205 0c20,0 36,16 36,36l0 204c0,20 -16,36 -36,36l-205 0c-20,0 -36,-16 -36,-36l0 -204c0,-20 16,-36 36,-36zm347 0l205 0c19,0 36,16 36,36l0 204c0,20 -17,36 -36,36l-205 0c-20,0 -36,-16 -36,-36l0 -204c0,-20 16,-36 36,-36zm347 0l205 0c19,0 36,16 36,36l0 204c0,20 -17,36 -36,36l-205 0c-20,0 -36,-16 -36,-36l0 -204c0,-20 16,-36 36,-36zm347 0l204 0c20,0 36,16 36,36l0 204c0,20 -16,36 -36,36l-204 0c-20,0 -36,-16 -36,-36l0 -204c0,-20 16,-36 36,-36zm347 0l204 0c20,0 36,16 36,36l0 204c0,20 -16,36 -36,36l-204 0c-20,0 -36,-16 -36,-36l0 -204c0,-20 16,-36 36,-36zm347 0l204 0c20,0 36,16 36,36l0 204c0,20 -16,36 -36,36l-204 0c-20,0 -36,-16 -36,-36l0 -204c0,-20 16,-36 36,-36zm346 0l205 0c20,0 36,16 36,36l0 204c0,20 -16,36 -36,36l-205 0c-19,0 -36,-16 -36,-36l0 -204c0,-20 17,-36 36,-36zm347 0l205 0c20,0 36,16 36,36l0 204c0,20 -16,36 -36,36l-205 0c-19,0 -36,-16 -36,-36l0 -204c0,-20 17,-36 36,-36zm347 0l205 0c20,0 36,16 36,36l0 204c0,20 -16,36 -36,36l-205 0c-20,0 -36,-16 -36,-36l0 -204c0,-20 16,-36 36,-36zm-3122 347l205 0c20,0 36,16 36,36l0 204c0,20 -16,36 -36,36l-205 0c-20,0 -36,-16 -36,-36l0 -204c0,-20 16,-36 36,-36zm347 0l205 0c20,0 36,16 36,36l0 204c0,20 -16,36 -36,36l-205 0c-20,0 -36,-16 -36,-36l0 -204c0,-20 16,-36 36,-36zm347 0l205 0c19,0 36,16 36,36l0 204c0,20 -17,36 -36,36l-205 0c-20,0 -36,-16 -36,-36l0 -204c0,-20 16,-36 36,-36zm347 0l205 0c19,0 36,16 36,36l0 204c0,20 -17,36 -36,36l-205 0c-20,0 -36,-16 -36,-36l0 -204c0,-20 16,-36 36,-36zm347 0l204 0c20,0 36,16 36,36l0 204c0,20 -16,36 -36,36l-204 0c-20,0 -36,-16 -36,-36l0 -204c0,-20 16,-36 36,-36zm347 0l204 0c20,0 36,16 36,36l0 204c0,20 -16,36 -36,36l-204 0c-20,0 -36,-16 -36,-36l0 -204c0,-20 16,-36 36,-36zm347 0l204 0c20,0 36,16 36,36l0 204c0,20 -16,36 -36,36l-204 0c-20,0 -36,-16 -36,-36l0 -204c0,-20 16,-36 36,-36zm346 0l205 0c20,0 36,16 36,36l0 204c0,20 -16,36 -36,36l-205 0c-19,0 -36,-16 -36,-36l0 -204c0,-20 17,-36 36,-36zm347 0l205 0c20,0 36,16 36,36l0 204c0,20 -16,36 -36,36l-205 0c-19,0 -36,-16 -36,-36l0 -204c0,-20 17,-36 36,-36zm-2081 347l205 0c19,0 36,16 36,36l0 204c0,20 -17,36 -36,36l-205 0c-20,0 -36,-16 -36,-36l0 -204c0,-20 16,-36 36,-36zm347 0l205 0c19,0 36,16 36,36l0 204c0,20 -17,36 -36,36l-205 0c-20,0 -36,-16 -36,-36l0 -204c0,-20 16,-36 36,-36zm347 0l204 0c20,0 36,16 36,36l0 204c0,20 -16,36 -36,36l-204 0c-20,0 -36,-16 -36,-36l0 -204c0,-20 16,-36 36,-36zm347 0l204 0c20,0 36,16 36,36l0 204c0,20 -16,36 -36,36l-204 0c-20,0 -36,-16 -36,-36l0 -204c0,-20 16,-36 36,-36zm347 0l204 0c20,0 36,16 36,36l0 204c0,20 -16,36 -36,36l-204 0c-20,0 -36,-16 -36,-36l0 -204c0,-20 16,-36 36,-36zm346 0l205 0c20,0 36,16 36,36l0 204c0,20 -16,36 -36,36l-205 0c-19,0 -36,-16 -36,-36l0 -204c0,-20 17,-36 36,-36zm-1387 346l205 0c19,0 36,17 36,36l0 205c0,20 -17,36 -36,36l-205 0c-20,0 -36,-16 -36,-36l0 -205c0,-19 16,-36 36,-36zm347 0l204 0c20,0 36,17 36,36l0 205c0,20 -16,36 -36,36l-204 0c-20,0 -36,-16 -36,-36l0 -205c0,-19 16,-36 36,-36zm347 0l204 0c20,0 36,17 36,36l0 205c0,20 -16,36 -36,36l-204 0c-20,0 -36,-16 -36,-36l0 -205c0,-19 16,-36 36,-36zm347 0l204 0c20,0 36,17 36,36l0 205c0,20 -16,36 -36,36l-204 0c-20,0 -36,-16 -36,-36l0 -205c0,-19 16,-36 36,-36zm346 0l205 0c20,0 36,17 36,36l0 205c0,20 -16,36 -36,36l-205 0c-19,0 -36,-16 -36,-36l0 -205c0,-19 17,-36 36,-36zm-1040 347l204 0c20,0 36,17 36,36l0 205c0,20 -16,36 -36,36l-204 0c-20,0 -36,-16 -36,-36l0 -205c0,-19 16,-36 36,-36zm347 0l204 0c20,0 36,17 36,36l0 205c0,20 -16,36 -36,36l-204 0c-20,0 -36,-16 -36,-36l0 -205c0,-19 16,-36 36,-36zm347 0l204 0c20,0 36,17 36,36l0 205c0,20 -16,36 -36,36l-204 0c-20,0 -36,-16 -36,-36l0 -205c0,-19 16,-36 36,-36zm-347 347l204 0c20,0 36,16 36,36l0 205c0,20 -16,36 -36,36l-204 0c-20,0 -36,-16 -36,-36l0 -205c0,-20 16,-36 36,-36zm347 0l204 0c20,0 36,16 36,36l0 205c0,20 -16,36 -36,36l-204 0c-20,0 -36,-16 -36,-36l0 -205c0,-20 16,-36 36,-36zm0 -14916l204 0c20,0 36,16 36,36l0 205c0,20 -16,36 -36,36l-204 0c-20,0 -36,-16 -36,-36l0 -205c0,-20 16,-36 36,-36zm0 1388l204 0c20,0 36,16 36,36l0 204c0,20 -16,36 -36,36l-204 0c-20,0 -36,-16 -36,-36l0 -204c0,-20 16,-36 36,-36zm-1735 -2083l205 0c20,0 36,16 36,36l0 204c0,20 -16,36 -36,36l-205 0c-20,0 -36,-16 -36,-36l0 -204c0,-20 16,-36 36,-36zm347 -2l205 0c19,0 36,16 36,36l0 205c0,20 -17,36 -36,36l-205 0c-20,0 -36,-16 -36,-36l0 -205c0,-20 16,-36 36,-36z"/>
 </g>
</svg>
